<?xml version="1.0" encoding="utf-8"?>
<!-- Generator: Adobe Illustrator 16.0.0, SVG Export Plug-In . SVG Version: 6.00 Build 0)  -->
<!DOCTYPE svg PUBLIC "-//W3C//DTD SVG 1.1//EN" "http://www.w3.org/Graphics/SVG/1.1/DTD/svg11.dtd">
<svg version="1.1" id="Layer_1" xmlns="http://www.w3.org/2000/svg" xmlns:xlink="http://www.w3.org/1999/xlink" x="0px" y="0px"
	 width="708.5px" height="709px" viewBox="0 0 708.5 709" enable-background="new 0 0 708.5 709" xml:space="preserve">
<g>
	<g>
		<rect x="11.5" y="480.65" fill-rule="evenodd" clip-rule="evenodd" fill="#E2E2E2" width="684.15" height="215.05"/>
		
			<rect x="11.5" y="480.65" fill-rule="evenodd" clip-rule="evenodd" fill="none" stroke="#CCCCCC" stroke-width="0.1" stroke-miterlimit="3" width="684.15" height="215.05"/>
	</g>
</g>
<g>
	<path fill-rule="evenodd" clip-rule="evenodd" d="M708.7,0.45v465.3H0.5V0.45H708.7z M655.7,324.55
		c20.17-29.53,30.25-63.27,30.25-101.2c0-42.33-12.6-79.48-37.8-111.45c-4.8-6.1-10.07-12.02-15.8-17.75
		c-35.67-35.67-78.73-53.5-129.2-53.5c-50.4,0-93.5,17.83-129.3,53.5c-6.97,7-13.25,14.28-18.85,21.85c-1.07-1.37-2.13-2.73-3.2-4.1
		c-4.8-6.1-10.07-12.02-15.8-17.75c-35.63-35.67-78.7-53.5-129.2-53.5c-50.4,0-93.47,17.83-129.2,53.5
		c-35.7,35.73-53.55,78.8-53.55,129.2c0,50.5,17.85,93.58,53.55,129.25c35.73,35.7,78.8,53.55,129.2,53.55
		c50.5,0,93.57-17.85,129.2-53.55c7.03-7,13.37-14.28,19-21.85c5.6,7.57,11.88,14.85,18.85,21.85c35.8,35.7,78.9,53.55,129.3,53.55
		c50.47,0,93.53-17.85,129.2-53.55C641.22,343.7,649,334.35,655.7,324.55z"/>
</g>
</svg>
