<?xml version="1.0" encoding="utf-8"?>
<!-- Generator: Adobe Illustrator 16.0.0, SVG Export Plug-In . SVG Version: 6.00 Build 0)  -->
<!DOCTYPE svg PUBLIC "-//W3C//DTD SVG 1.1//EN" "http://www.w3.org/Graphics/SVG/1.1/DTD/svg11.dtd">
<svg version="1.1" id="Layer_1" xmlns="http://www.w3.org/2000/svg" xmlns:xlink="http://www.w3.org/1999/xlink" x="0px" y="0px"
	 width="10.06px" height="12.77px" viewBox="0 0 10.06 12.77" enable-background="new 0 0 10.06 12.77" xml:space="preserve">
<g>
	<g>
		<g>
			
				<radialGradient id="SVGID_1_" cx="-269.6318" cy="-194.8276" r="9.3" fx="-270.106" fy="-194.8276" gradientTransform="matrix(0.3589 0 0.015 0.4882 103.5045 103.423)" gradientUnits="userSpaceOnUse">
				<stop  offset="0" style="stop-color:#000000"/>
				<stop  offset="0.302" style="stop-color:#000000"/>
				<stop  offset="0.5176" style="stop-color:#000000"/>
				<stop  offset="0.7137" style="stop-color:#333333"/>
				<stop  offset="1" style="stop-color:#050505"/>
			</radialGradient>
			<path fill-rule="evenodd" clip-rule="evenodd" fill="url(#SVGID_1_)" d="M6.81,8.24c0.08,0.96-0.08,1.78-0.5,2.48
				c-0.25,0.48-0.57,0.8-0.95,0.97c-0.19,0.06-0.39,0.09-0.59,0.09c-0.04,0-0.07,0-0.11,0c-0.08,0-0.16-0.01-0.22-0.02
				c-0.13-0.04-0.25-0.07-0.34-0.11C4.05,11.62,4,11.6,3.94,11.57c-0.29-0.18-0.56-0.42-0.83-0.72c-0.04-0.05-0.07-0.1-0.11-0.14
				c-0.24-0.31-0.42-0.65-0.56-1C2.44,9.67,2.43,9.65,2.43,9.63C2.25,9.22,2.15,8.77,2.11,8.29c0-0.02,0-0.04,0-0.05V8.22
				c-0.1-0.97,0.07-1.8,0.5-2.49c0-0.02,0.01-0.05,0.04-0.09c0-0.01,0.01-0.03,0.02-0.05c0.08-0.11,0.17-0.2,0.25-0.29
				c0.11-0.12,0.23-0.23,0.38-0.32c0.13-0.08,0.28-0.15,0.45-0.2C3.85,4.74,3.97,4.71,4.1,4.7c0.02,0,0.05,0,0.07,0
				c0.65,0,1.23,0.34,1.76,1.02C6.44,6.42,6.73,7.25,6.81,8.24z"/>
		</g>
		<g>
			<g>
				
					<linearGradient id="SVGID_2_" gradientUnits="userSpaceOnUse" x1="-269.1343" y1="-199.7905" x2="-266.2816" y2="-187.6912" gradientTransform="matrix(0.3589 0 0 0.3589 100.5974 78.2343)">
					<stop  offset="0" style="stop-color:#607066"/>
					<stop  offset="0.4314" style="stop-color:#ACBFA3"/>
					<stop  offset="1" style="stop-color:#57625A"/>
				</linearGradient>
				<path fill-rule="evenodd" clip-rule="evenodd" fill="url(#SVGID_2_)" d="M2.67,6.08c0.12-0.06,0.25-0.11,0.39-0.14
					c0.1-0.02,0.2-0.04,0.31-0.05c0.02,0,0.05,0,0.07,0C4,5.88,4.5,6.14,4.93,6.66C5.36,7.17,5.6,7.79,5.65,8.52
					c0.04,0.72-0.13,1.33-0.5,1.85c-0.24,0.36-0.53,0.6-0.86,0.72c0.23-0.14,0.43-0.35,0.61-0.61c0.37-0.51,0.54-1.13,0.5-1.85
					C5.35,7.9,5.11,7.28,4.68,6.76C4.27,6.27,3.81,6.02,3.29,5.99c-0.04,0-0.07,0-0.11,0c-0.13,0-0.26,0.02-0.38,0.05
					C2.76,6.06,2.71,6.07,2.67,6.08z"/>
				
					<linearGradient id="SVGID_3_" gradientUnits="userSpaceOnUse" x1="-272.479" y1="-199.7778" x2="-269.2345" y2="-189.826" gradientTransform="matrix(0.3589 0 0 0.3589 100.5974 78.2343)">
					<stop  offset="0" style="stop-color:#4D5948"/>
					<stop  offset="0.5569" style="stop-color:#60775A"/>
					<stop  offset="1" style="stop-color:#43523F"/>
				</linearGradient>
				<path fill-rule="evenodd" clip-rule="evenodd" fill="url(#SVGID_3_)" d="M4.28,11.09c-0.17,0.05-0.34,0.07-0.52,0.07
					c-0.04,0-0.07,0-0.09,0c-0.07,0-0.14-0.01-0.2-0.02c-0.11-0.02-0.2-0.05-0.29-0.07c-0.05-0.02-0.1-0.04-0.14-0.05
					c-0.25-0.13-0.48-0.31-0.7-0.54c-0.04-0.04-0.07-0.07-0.09-0.11c-0.2-0.23-0.36-0.48-0.47-0.75C1.78,9.59,1.77,9.58,1.77,9.56
					c-0.13-0.31-0.21-0.65-0.23-1c0-0.01,0-0.02,0-0.04V8.5c-0.05-0.72,0.12-1.33,0.5-1.85c0.01-0.02,0.03-0.05,0.05-0.07
					c0-0.01,0.01-0.02,0.02-0.04c0.07-0.08,0.14-0.16,0.22-0.22c0.11-0.1,0.22-0.18,0.34-0.25c0.05-0.01,0.1-0.02,0.14-0.04
					c0.12-0.04,0.25-0.05,0.38-0.05c0.04,0,0.07,0,0.11,0c0.51,0.02,0.98,0.28,1.38,0.77C5.11,7.28,5.35,7.9,5.39,8.63
					c0.04,0.72-0.13,1.33-0.5,1.85C4.71,10.74,4.51,10.95,4.28,11.09z"/>
			</g>
		</g>
		<g>
			<path fill-rule="evenodd" clip-rule="evenodd" fill="#5F7659" d="M2.88,6.37c0.38,0,0.74,0.22,1.06,0.66
				c0.35,0.43,0.54,0.95,0.59,1.56c0.05,0.61-0.05,1.13-0.29,1.56S3.69,10.8,3.29,10.8c-0.38,0-0.74-0.22-1.08-0.65
				S1.69,9.2,1.64,8.59C1.6,7.98,1.69,7.46,1.91,7.03C2.16,6.59,2.49,6.37,2.88,6.37z"/>
		</g>
		<g>
			<path fill-rule="evenodd" clip-rule="evenodd" fill="#525252" d="M8.18,3.39l0.43,1.18L8.7,3.66l0.25,0.11L8.82,5.13L8.55,5.01
				L8.12,3.86l-0.07,0.9L7.8,4.65l0.13-1.36L8.18,3.39z M7.66,3.86c-0.01,0.22-0.08,0.36-0.2,0.43C7.33,4.36,7.17,4.35,6.99,4.25
				c-0.19-0.1-0.33-0.23-0.43-0.4C6.45,3.68,6.41,3.47,6.42,3.25c0.01-0.13,0.05-0.23,0.11-0.3C6.56,2.88,6.6,2.83,6.65,2.8
				C6.7,2.77,6.76,2.76,6.83,2.76c0.08,0,0.18,0.02,0.29,0.07c0.18,0.1,0.32,0.23,0.43,0.41C7.64,3.43,7.68,3.63,7.66,3.86z
				 M7.39,3.73c0.02-0.16,0.01-0.29-0.05-0.41C7.29,3.21,7.21,3.13,7.1,3.08S6.9,3.03,6.81,3.07C6.74,3.11,6.7,3.22,6.69,3.37
				C6.67,3.53,6.71,3.66,6.78,3.77c0.05,0.12,0.13,0.2,0.23,0.25c0.1,0.05,0.19,0.05,0.27,0.02C7.34,3.99,7.38,3.89,7.39,3.73z
				 M4.64,1.81c0.04,0.1,0.05,0.2,0.05,0.31C4.68,2.2,4.67,2.27,4.64,2.31C4.6,2.36,4.56,2.39,4.52,2.4c-0.05,0-0.09-0.01-0.13-0.02
				C4.33,2.37,4.24,2.34,4.12,2.28L3.96,2.21L3.91,2.73L3.64,2.6l0.13-1.36l0.41,0.2C4.33,1.51,4.43,1.56,4.48,1.6
				C4.54,1.66,4.59,1.73,4.64,1.81z M4.12,1.65L4.01,1.6L3.98,1.97L4.1,2.03c0.11,0.06,0.18,0.09,0.22,0.09
				c0.04,0,0.06-0.01,0.07-0.04c0.02-0.01,0.04-0.04,0.05-0.09c0-0.05-0.02-0.09-0.05-0.13C4.37,1.82,4.34,1.77,4.3,1.74
				C4.28,1.73,4.22,1.7,4.12,1.65z M4.86,2.01l0.02-0.23l1,0.5L5.86,2.51l-0.38-0.2L5.38,3.44L5.13,3.32l0.11-1.13L4.86,2.01z
				 M6.29,2.46L6.17,3.82L5.92,3.69l0.13-1.36L6.29,2.46z M2.61,1.72c0.05,0.12,0.13,0.2,0.23,0.25c0.1,0.05,0.19,0.05,0.27,0.02
				c0.06-0.05,0.1-0.15,0.11-0.31c0.02-0.16,0.01-0.29-0.05-0.41C3.12,1.16,3.04,1.09,2.94,1.04c-0.11-0.05-0.2-0.05-0.29-0.02
				C2.58,1.07,2.54,1.17,2.52,1.33C2.51,1.48,2.54,1.61,2.61,1.72z M2.36,0.9C2.4,0.84,2.44,0.79,2.49,0.75
				C2.54,0.73,2.6,0.72,2.67,0.72c0.08,0,0.18,0.02,0.29,0.07c0.18,0.1,0.32,0.23,0.43,0.41c0.1,0.18,0.13,0.38,0.11,0.61
				c-0.01,0.22-0.08,0.36-0.2,0.43C3.16,2.31,3.01,2.3,2.83,2.21c-0.19-0.1-0.34-0.23-0.43-0.4C2.29,1.63,2.24,1.43,2.25,1.2
				C2.27,1.07,2.3,0.97,2.36,0.9z"/>
		</g>
	</g>
</g>
</svg>
