<?xml version="1.0" encoding="utf-8"?>
<!-- Generator: Adobe Illustrator 16.0.0, SVG Export Plug-In . SVG Version: 6.00 Build 0)  -->
<!DOCTYPE svg PUBLIC "-//W3C//DTD SVG 1.1//EN" "http://www.w3.org/Graphics/SVG/1.1/DTD/svg11.dtd">
<svg version="1.1" id="Layer_2" xmlns="http://www.w3.org/2000/svg" xmlns:xlink="http://www.w3.org/1999/xlink" x="0px" y="0px"
	 width="22.83px" height="29.83px" viewBox="0 0 22.83 29.83" enable-background="new 0 0 22.83 29.83" xml:space="preserve">
<g>
	<g>
		
			<linearGradient id="SVGID_1_" gradientUnits="userSpaceOnUse" x1="-239.3281" y1="-184.2979" x2="-235.0495" y2="-184.2979" gradientTransform="matrix(0.2034 -0.2957 0.3171 0.1723 116.9833 -31.7413)">
			<stop  offset="0" style="stop-color:#0B0B0B"/>
			<stop  offset="0.2431" style="stop-color:#1D1D1D;stop-opacity:0.8314"/>
			<stop  offset="0.4902" style="stop-color:#1D1D1D;stop-opacity:0.2431"/>
			<stop  offset="0.7686" style="stop-color:#1C1C1C;stop-opacity:0.851"/>
			<stop  offset="1" style="stop-color:#000000"/>
		</linearGradient>
		<path fill-rule="evenodd" clip-rule="evenodd" fill="url(#SVGID_1_)" d="M7.09,4.34c0.07-0.07,0.14-0.13,0.22-0.2l7.05,3.94
			c-0.19,0.2-0.38,0.4-0.57,0.62c-0.09,0.11-0.19,0.22-0.28,0.33L6.18,5.26C6.47,4.94,6.77,4.63,7.09,4.34z"/>
		
			<linearGradient id="SVGID_2_" gradientUnits="userSpaceOnUse" x1="-251.3896" y1="-182.8115" x2="-247.1384" y2="-182.8115" gradientTransform="matrix(0.173 -0.3144 0.3304 0.1441 111.3659 -41.961)">
			<stop  offset="0" style="stop-color:#0B0B0B"/>
			<stop  offset="0.2431" style="stop-color:#1D1D1D;stop-opacity:0.8314"/>
			<stop  offset="0.4902" style="stop-color:#1D1D1D;stop-opacity:0.2431"/>
			<stop  offset="0.7686" style="stop-color:#1C1C1C;stop-opacity:0.851"/>
			<stop  offset="1" style="stop-color:#000000"/>
		</linearGradient>
		<path fill-rule="evenodd" clip-rule="evenodd" fill="url(#SVGID_2_)" d="M4.08,8.24c0.06-0.11,0.12-0.22,0.18-0.32l7.8,3.17
			c-0.21,0.34-0.41,0.69-0.6,1.05L3.7,8.95C3.82,8.7,3.94,8.47,4.08,8.24z"/>
		
			<linearGradient id="SVGID_3_" gradientUnits="userSpaceOnUse" x1="-226.5806" y1="-180.314" x2="-222.3053" y2="-180.314" gradientTransform="matrix(0.212 -0.2896 0.3125 0.1807 118.4046 -28.5659)">
			<stop  offset="0" style="stop-color:#0B0B0B"/>
			<stop  offset="0.2431" style="stop-color:#1D1D1D;stop-opacity:0.8314"/>
			<stop  offset="0.4902" style="stop-color:#1D1D1D;stop-opacity:0.2431"/>
			<stop  offset="0.7686" style="stop-color:#1C1C1C;stop-opacity:0.851"/>
			<stop  offset="1" style="stop-color:#000000"/>
		</linearGradient>
		<path fill-rule="evenodd" clip-rule="evenodd" fill="url(#SVGID_3_)" d="M12.2,1.69l6.43,3.82C18.08,5.61,17.54,5.8,17,6.07
			l-6.72-3.81c0.52-0.22,1.03-0.39,1.55-0.5C11.95,1.73,12.07,1.71,12.2,1.69z"/>
		
			<linearGradient id="SVGID_4_" gradientUnits="userSpaceOnUse" x1="-264.5625" y1="-180.8652" x2="-260.3606" y2="-180.8652" gradientTransform="matrix(0.1388 -0.331 0.3403 0.1166 104.0957 -51.4596)">
			<stop  offset="0" style="stop-color:#0B0B0B"/>
			<stop  offset="0.2431" style="stop-color:#1D1D1D;stop-opacity:0.8314"/>
			<stop  offset="0.4902" style="stop-color:#1D1D1D;stop-opacity:0.2431"/>
			<stop  offset="0.7686" style="stop-color:#1C1C1C;stop-opacity:0.851"/>
			<stop  offset="1" style="stop-color:#000000"/>
		</linearGradient>
		<path fill-rule="evenodd" clip-rule="evenodd" fill="url(#SVGID_4_)" d="M10.25,14.93c-0.14,0.41-0.27,0.83-0.39,1.26l-7.79-2.42
			c0.06-0.29,0.12-0.58,0.19-0.86c0.05-0.18,0.09-0.36,0.14-0.54L10.25,14.93z"/>
		
			<linearGradient id="SVGID_5_" gradientUnits="userSpaceOnUse" x1="-275.9629" y1="-178.0693" x2="-271.7771" y2="-178.0693" gradientTransform="matrix(0.1458 -0.328 0.3392 0.1206 105.7379 -49.9162)">
			<stop  offset="0" style="stop-color:#0B0B0B"/>
			<stop  offset="0.2431" style="stop-color:#1D1D1D;stop-opacity:0.8314"/>
			<stop  offset="0.4902" style="stop-color:#1D1D1D;stop-opacity:0.2431"/>
			<stop  offset="0.7686" style="stop-color:#1C1C1C;stop-opacity:0.851"/>
			<stop  offset="1" style="stop-color:#000000"/>
		</linearGradient>
		<path fill-rule="evenodd" clip-rule="evenodd" fill="url(#SVGID_5_)" d="M1.77,16.32L9.28,19c-0.06,0.46-0.11,0.91-0.13,1.35
			l-7.35-2.4c-0.02-0.3-0.04-0.6-0.04-0.91C1.76,16.81,1.76,16.56,1.77,16.32z"/>
		
			<linearGradient id="SVGID_6_" gradientUnits="userSpaceOnUse" x1="-288.1436" y1="-171.6304" x2="-283.9602" y2="-171.6304" gradientTransform="matrix(0.1351 -0.3325 0.3411 0.114 103.2722 -52.3495)">
			<stop  offset="0" style="stop-color:#0B0B0B"/>
			<stop  offset="0.2431" style="stop-color:#1D1D1D;stop-opacity:0.8314"/>
			<stop  offset="0.4902" style="stop-color:#1D1D1D;stop-opacity:0.2431"/>
			<stop  offset="0.7686" style="stop-color:#1C1C1C;stop-opacity:0.851"/>
			<stop  offset="1" style="stop-color:#000000"/>
		</linearGradient>
		<path fill-rule="evenodd" clip-rule="evenodd" fill="url(#SVGID_6_)" d="M2.35,21.16l7.07,2.39c0.08,0.33,0.18,0.66,0.29,0.97
			c0.06,0.16,0.12,0.32,0.18,0.47L3.01,23c-0.11-0.25-0.21-0.5-0.3-0.76C2.58,21.9,2.46,21.54,2.35,21.16z"/>
	</g>
</g>
</svg>
