<?xml version="1.0" encoding="utf-8"?>
<!-- Generator: Adobe Illustrator 16.0.0, SVG Export Plug-In . SVG Version: 6.00 Build 0)  -->
<!DOCTYPE svg PUBLIC "-//W3C//DTD SVG 1.1//EN" "http://www.w3.org/Graphics/SVG/1.1/DTD/svg11.dtd">
<svg version="1.1" id="Layer_1" xmlns="http://www.w3.org/2000/svg" xmlns:xlink="http://www.w3.org/1999/xlink" x="0px" y="0px"
	 width="77.67px" height="154.33px" viewBox="0 0 77.67 154.33" enable-background="new 0 0 77.67 154.33" xml:space="preserve">
<g>
	<g>
		<g>
			<g>
				
					<linearGradient id="SVGID_1_" gradientUnits="userSpaceOnUse" x1="-290.27" y1="-197.248" x2="-331.619" y2="-199.4416" gradientTransform="matrix(1.7882 0 0 1.9145 590.4393 480.7241)">
					<stop  offset="0" style="stop-color:#000000"/>
					<stop  offset="1" style="stop-color:#515151"/>
				</linearGradient>
				<path fill-rule="evenodd" clip-rule="evenodd" fill="url(#SVGID_1_)" d="M70.16,101.66c-0.54,1.6-3.67,2.9-9.39,3.92
					c-1.43,0.32-2.92,0.58-4.47,0.77c-5.19,0.77-11.15,1.15-17.88,1.15c-8.76,0-16.27-0.64-22.53-1.92c-6.14-1.15-9.24-2.62-9.3-4.4
					v-0.1c0-1.66,3.1-3.13,9.3-4.4c0.12,0,0.33-0.03,0.63-0.09c14.31-2.23,28.88-2.23,43.72,0c0.18,0,0.36,0.03,0.54,0.09
					c6.08,1.21,9.24,2.62,9.48,4.21L70.16,101.66z"/>
				
					<linearGradient id="SVGID_2_" gradientUnits="userSpaceOnUse" x1="-326.4995" y1="-184.6001" x2="-290.9502" y2="-184.6001" gradientTransform="matrix(1.7882 0 0 1.9145 590.4393 480.7241)">
					<stop  offset="0" style="stop-color:#000000"/>
					<stop  offset="0.3137" style="stop-color:#111111"/>
					<stop  offset="0.4275" style="stop-color:#1A1A1A"/>
					<stop  offset="0.5255" style="stop-color:#1A1A1A"/>
					<stop  offset="0.9176" style="stop-color:#000000"/>
					<stop  offset="1" style="stop-color:#060606"/>
				</linearGradient>
				<path fill-rule="evenodd" clip-rule="evenodd" fill="url(#SVGID_2_)" d="M6.59,101.18c0.06,1.79,3.16,3.25,9.3,4.4
					c6.26,1.28,13.77,1.92,22.53,1.92c6.74,0,12.7-0.38,17.88-1.15c1.55-0.19,3.04-0.45,4.47-0.77c5.72-1.02,8.85-2.33,9.39-3.92
					v41.64c-0.3,1.47-1.31,2.81-3.04,4.02c-1.55,1.08-3.67,2.04-6.35,2.87c-2.8,0.96-5.84,1.72-9.12,2.3
					c-0.83,0.13-1.67,0.25-2.5,0.38c-3.34,0.38-6.92,0.57-10.73,0.57c-4.95,0-9.48-0.35-13.59-1.05c-0.42-0.06-0.8-0.13-1.16-0.19
					c-2.8-0.51-5.39-1.18-7.78-2.01c-2.56-0.83-4.59-1.79-6.08-2.87c-2.09-1.47-3.16-3.1-3.22-4.88V101.18z"/>
			</g>
		</g>
		<g>
			<g>
				
					<linearGradient id="SVGID_3_" gradientUnits="userSpaceOnUse" x1="-322.1123" y1="-202.0254" x2="-296.2873" y2="-202.0254" gradientTransform="matrix(1.7882 0 0 1.9145 590.4393 480.7241)">
					<stop  offset="0" style="stop-color:#000000"/>
					<stop  offset="0.3137" style="stop-color:#111111"/>
					<stop  offset="0.4275" style="stop-color:#1A1A1A"/>
					<stop  offset="0.5255" style="stop-color:#1A1A1A"/>
					<stop  offset="0.9176" style="stop-color:#000000"/>
					<stop  offset="1" style="stop-color:#060606"/>
				</linearGradient>
				<path fill-rule="evenodd" clip-rule="evenodd" fill="url(#SVGID_3_)" d="M56.58,85.2l-0.09,15.12
					c-12.46,3.83-24.92,3.83-37.37,0v-15.6c0.18,0.45,0.33,0.73,0.45,0.86c0.77,0.64,2.44,1.18,5.01,1.63
					c3.75,0.7,8.2,1.05,13.32,1.05c5.19,0,9.6-0.35,13.23-1.05c2.15-0.38,3.7-0.8,4.65-1.25c0.18-0.13,0.36-0.25,0.54-0.38
					c0.06-0.13,0.15-0.41,0.27-0.86V85.2z"/>
				
					<linearGradient id="SVGID_4_" gradientUnits="userSpaceOnUse" x1="-322.1123" y1="-202.0254" x2="-296.2873" y2="-202.0254" gradientTransform="matrix(1.7882 0 0 1.9145 590.4393 480.7241)">
					<stop  offset="0" style="stop-color:#000000"/>
					<stop  offset="0.3137" style="stop-color:#111111"/>
					<stop  offset="0.4275" style="stop-color:#1A1A1A"/>
					<stop  offset="0.5255" style="stop-color:#1A1A1A"/>
					<stop  offset="0.9176" style="stop-color:#000000"/>
					<stop  offset="1" style="stop-color:#060606"/>
				</linearGradient>
				<path fill-rule="evenodd" clip-rule="evenodd" fill="url(#SVGID_4_)" d="M56.58,85.2l-0.09,15.12
					c-12.46,3.83-24.92,3.83-37.37,0v-15.6c0.18,0.45,0.33,0.73,0.45,0.86c0.77,0.64,2.44,1.18,5.01,1.63
					c3.75,0.7,8.2,1.05,13.32,1.05c5.19,0,9.6-0.35,13.23-1.05c2.15-0.38,3.7-0.8,4.65-1.25c0.18-0.13,0.36-0.25,0.54-0.38
					c0.06-0.13,0.15-0.41,0.27-0.86V85.2z"/>
				
					<linearGradient id="SVGID_5_" gradientUnits="userSpaceOnUse" x1="-314.9141" y1="-206.4028" x2="-225.1792" y2="-212.3043" gradientTransform="matrix(1.7882 0 0 1.9145 590.4393 480.7241)">
					<stop  offset="0" style="stop-color:#000000"/>
					<stop  offset="0.2745" style="stop-color:#212121"/>
					<stop  offset="0.6157" style="stop-color:#2A2A2A"/>
					<stop  offset="0.7098" style="stop-color:#848484"/>
					<stop  offset="0.8039" style="stop-color:#191919"/>
					<stop  offset="0.8471" style="stop-color:#8C8C8C"/>
					<stop  offset="0.9255" style="stop-color:#0E0E0E"/>
					<stop  offset="1" style="stop-color:#060606"/>
				</linearGradient>
				<path fill-rule="evenodd" clip-rule="evenodd" fill="url(#SVGID_5_)" d="M19.11,84.72c0-0.96,1.82-1.79,5.45-2.49
					c0.45-0.06,0.92-0.13,1.43-0.19c7.99-0.79,15.97-0.79,23.96,0c0.17,0.03,0.33,0.07,0.49,0.09c0.23,0.04,0.45,0.07,0.67,0.1
					c3.7,0.7,5.54,1.53,5.54,2.49c0,0.13-0.03,0.29-0.09,0.48v-0.48c-0.12,0.45-0.21,0.73-0.27,0.86c-0.18,0.13-0.36,0.26-0.54,0.38
					c-0.95,0.45-2.5,0.86-4.65,1.25c-3.64,0.7-8.05,1.05-13.23,1.05c-5.13,0-9.57-0.35-13.32-1.05c-2.56-0.45-4.23-0.99-5.01-1.63
					C19.44,85.45,19.29,85.17,19.11,84.72z"/>
				
					<linearGradient id="SVGID_6_" gradientUnits="userSpaceOnUse" x1="-314.9141" y1="-206.4028" x2="-225.1792" y2="-212.3043" gradientTransform="matrix(1.7882 0 0 1.9145 590.4393 480.7241)">
					<stop  offset="0" style="stop-color:#000000"/>
					<stop  offset="0.2745" style="stop-color:#212121"/>
					<stop  offset="0.6157" style="stop-color:#2A2A2A"/>
					<stop  offset="0.7098" style="stop-color:#848484"/>
					<stop  offset="0.8039" style="stop-color:#191919"/>
					<stop  offset="0.8471" style="stop-color:#8C8C8C"/>
					<stop  offset="0.9255" style="stop-color:#0E0E0E"/>
					<stop  offset="1" style="stop-color:#060606"/>
				</linearGradient>
				<path fill-rule="evenodd" clip-rule="evenodd" fill="url(#SVGID_6_)" d="M19.11,84.72c0-0.96,1.82-1.79,5.45-2.49
					c0.45-0.06,0.92-0.13,1.43-0.19c7.99-0.79,15.97-0.79,23.96,0c0.17,0.03,0.33,0.07,0.49,0.09c0.23,0.04,0.45,0.07,0.67,0.1
					c3.7,0.7,5.54,1.53,5.54,2.49c0,0.13-0.03,0.29-0.09,0.48v-0.48c-0.12,0.45-0.21,0.73-0.27,0.86c-0.18,0.13-0.36,0.26-0.54,0.38
					c-0.95,0.45-2.5,0.86-4.65,1.25c-3.64,0.7-8.05,1.05-13.23,1.05c-5.13,0-9.57-0.35-13.32-1.05c-2.56-0.45-4.23-0.99-5.01-1.63
					C19.44,85.45,19.29,85.17,19.11,84.72z"/>
			</g>
		</g>
		<g>
			
				<linearGradient id="SVGID_7_" gradientUnits="userSpaceOnUse" x1="-325.6035" y1="-186.6895" x2="-290.2529" y2="-183.4959" gradientTransform="matrix(1.7882 0 0 1.9145 590.4393 480.7241)">
				<stop  offset="0" style="stop-color:#030303;stop-opacity:0.5922"/>
				<stop  offset="0.2118" style="stop-color:#070707;stop-opacity:0.1529"/>
				<stop  offset="0.5373" style="stop-color:#090909;stop-opacity:0"/>
				<stop  offset="0.8627" style="stop-color:#040404;stop-opacity:0.3137"/>
				<stop  offset="1" style="stop-color:#000000"/>
			</linearGradient>
			<path fill-rule="evenodd" clip-rule="evenodd" fill="url(#SVGID_7_)" d="M38.42,107.5c6.74,0,12.7-0.38,17.88-1.15
				c1.55-0.19,3.04-0.45,4.47-0.77c5.72-1.02,8.85-2.33,9.39-3.92v41.64c-0.3,1.47-1.31,2.81-3.04,4.02
				c-1.55,1.08-3.67,2.04-6.35,2.87c-2.8,0.96-5.84,1.72-9.12,2.3c-0.83,0.13-1.67,0.25-2.5,0.38c-3.34,0.38-6.92,0.57-10.73,0.57
				c-4.95,0-9.48-0.35-13.59-1.05c-0.42-0.06-0.8-0.13-1.16-0.19c-2.8-0.51-5.39-1.18-7.78-2.01c-2.56-0.83-4.59-1.79-6.08-2.87
				c-2.09-1.47-3.16-3.1-3.22-4.88v-41.26c0.06,1.79,3.16,3.25,9.3,4.4C22.15,106.86,29.66,107.5,38.42,107.5z"/>
		</g>
		<g>
			<g>
				
					<radialGradient id="SVGID_8_" cx="-314.1001" cy="-197.6709" r="14.7627" gradientTransform="matrix(1.7882 -9.726170e-003 0 1.9922 590.4326 493.0853)" gradientUnits="userSpaceOnUse">
					<stop  offset="0" style="stop-color:#FFFFFF;stop-opacity:0.3333"/>
					<stop  offset="1" style="stop-color:#000000"/>
				</radialGradient>
				<path fill-rule="evenodd" clip-rule="evenodd" fill="url(#SVGID_8_)" d="M69.63,101.23c0.11,0.05,0.18,0.13,0.22,0.24
					c0.05,0.13,0.05,0.26,0,0.38c-0.59,1.55-3.76,2.89-9.52,4.02c-6.1,1.15-13.53,1.76-22.26,1.82c-8.74,0-16.19-0.54-22.35-1.63
					c-5.13-0.94-8.2-2.09-9.21-3.45v-1.44c0.13-0.02,0.25,0.01,0.36,0.09c0.1,0.07,0.16,0.17,0.18,0.29
					c0.28,1.32,3.23,2.5,8.85,3.54c6.11,1.08,13.5,1.63,22.17,1.63c8.67-0.07,16.03-0.67,22.08-1.82c5.33-1.04,8.29-2.19,8.9-3.45
					c0.04-0.12,0.12-0.2,0.22-0.24C69.39,101.18,69.51,101.18,69.63,101.23z"/>
				
					<radialGradient id="SVGID_9_" cx="-313.1001" cy="-205.75" r="5.15" gradientTransform="matrix(1.7882 0 0 1.9145 590.4393 480.7241)" gradientUnits="userSpaceOnUse">
					<stop  offset="0" style="stop-color:#FFFFFF;stop-opacity:0.3333"/>
					<stop  offset="1" style="stop-color:#000000"/>
				</radialGradient>
				<path fill-rule="evenodd" clip-rule="evenodd" fill="url(#SVGID_9_)" d="M40.84,88.02c0.02,0.13-0.01,0.24-0.09,0.33
					c-0.08,0.11-0.19,0.17-0.31,0.19c-6.9,0.65-13.38,0.17-19.45-1.44c-0.13-0.04-0.24-0.12-0.31-0.24
					c-0.06-0.1-0.08-0.22-0.04-0.33c0.04-0.14,0.11-0.25,0.22-0.34c0.1-0.07,0.2-0.08,0.31-0.05c5.98,1.59,12.37,2.07,19.18,1.44
					c0.12-0.02,0.22,0.02,0.31,0.1C40.76,87.78,40.82,87.89,40.84,88.02z"/>
			</g>
		</g>
	</g>
	<g>
		<linearGradient id="SVGID_10_" gradientUnits="userSpaceOnUse" x1="22.7627" y1="43.7998" x2="52.2377" y2="43.7998">
			<stop  offset="0" style="stop-color:#13112B"/>
			<stop  offset="0.0706" style="stop-color:#100D14"/>
			<stop  offset="0.2392" style="stop-color:#000000"/>
			<stop  offset="0.4549" style="stop-color:#7C7F74"/>
			<stop  offset="0.6471" style="stop-color:#24212C"/>
			<stop  offset="0.8392" style="stop-color:#0A0A0C"/>
			<stop  offset="1" style="stop-color:#0D0B0C"/>
		</linearGradient>
		<path fill-rule="evenodd" clip-rule="evenodd" fill="url(#SVGID_10_)" d="M22.8,1.65h29.4v82.6c-0.63,0.33-2,0.65-4.1,0.95
			c-3.07,0.5-6.72,0.75-10.95,0.75c-4.37,0-8.07-0.25-11.1-0.75c-1.47-0.17-2.55-0.37-3.25-0.6V1.65z"/>
	</g>
	<g>
		
			<radialGradient id="SVGID_11_" cx="39.5986" cy="29.0498" r="9.0375" gradientTransform="matrix(1 0 -6.915629e-003 0.2531 -5.6473 21.697)" gradientUnits="userSpaceOnUse">
			<stop  offset="0" style="stop-color:#FFFFFF"/>
			<stop  offset="0.4078" style="stop-color:#FEFEFE;stop-opacity:0.1882"/>
			<stop  offset="0.8" style="stop-color:#FEFEFE;stop-opacity:0"/>
			<stop  offset="1" style="stop-color:#FAFAFA;stop-opacity:0"/>
		</radialGradient>
		<path fill-rule="evenodd" clip-rule="evenodd" fill="url(#SVGID_11_)" d="M27.25,30.7c-1.7-0.3-2.55-0.7-2.55-1.2
			c0-0.4,0.88-0.8,2.65-1.2c1.7-0.33,3.8-0.5,6.3-0.5c2.33,0,4.3,0.17,5.9,0.5c1.6,0.4,2.4,0.8,2.4,1.2c0,0.5-0.85,0.9-2.55,1.2
			c-1.6,0.33-3.6,0.5-6,0.5C31,31.2,28.95,31.03,27.25,30.7z"/>
	</g>
	<g>
		<g>
			<g>
				<linearGradient id="SVGID_12_" gradientUnits="userSpaceOnUse" x1="1.2002" y1="51.8008" x2="76.4004" y2="51.8008">
					<stop  offset="0" style="stop-color:#000000"/>
					<stop  offset="0.3137" style="stop-color:#111111"/>
					<stop  offset="0.4275" style="stop-color:#1A1A1A"/>
					<stop  offset="0.5255" style="stop-color:#1A1A1A"/>
					<stop  offset="0.9176" style="stop-color:#000000"/>
					<stop  offset="1" style="stop-color:#060606"/>
				</linearGradient>
				<path fill-rule="evenodd" clip-rule="evenodd" fill="url(#SVGID_12_)" d="M1.2,22.95c0.07,1.97,3.73,3.58,11,4.85
					c7.4,1.4,16.28,2.1,26.65,2.1c7.97,0,15.02-0.42,21.15-1.25c1.83-0.2,3.6-0.48,5.3-0.85c6.77-1.13,10.47-2.58,11.1-4.35v46
					c-0.37,1.63-1.57,3.12-3.6,4.45c-1.83,1.2-4.33,2.25-7.5,3.15c-3.33,1.07-6.93,1.92-10.8,2.55c-1,0.13-1.98,0.27-2.95,0.4
					c-3.97,0.43-8.2,0.65-12.7,0.65c-5.87,0-11.22-0.38-16.05-1.15c-0.5-0.07-0.97-0.13-1.4-0.2c-3.3-0.57-6.37-1.32-9.2-2.25
					C9.17,76.15,6.77,75.1,5,73.9c-2.47-1.63-3.73-3.43-3.8-5.4V22.95z"/>
				<linearGradient id="SVGID_13_" gradientUnits="userSpaceOnUse" x1="77.8301" y1="25.0254" x2="-9.5951" y2="20.4292">
					<stop  offset="0" style="stop-color:#000000"/>
					<stop  offset="1" style="stop-color:#515151"/>
				</linearGradient>
				<path fill-rule="evenodd" clip-rule="evenodd" fill="url(#SVGID_13_)" d="M76.4,23.45c-0.63,1.77-4.33,3.22-11.1,4.35
					c-1.7,0.37-3.47,0.65-5.3,0.85c-6.13,0.83-13.18,1.25-21.15,1.25c-10.37,0-19.25-0.7-26.65-2.1c-7.27-1.27-10.93-2.88-11-4.85
					v-0.1c0-1.83,3.67-3.47,11-4.9c0.13,0,0.38-0.03,0.75-0.1c16.9-2.47,34.13-2.47,51.7,0c0.2,0,0.42,0.03,0.65,0.1
					c7.17,1.37,10.9,2.92,11.2,4.65L76.4,23.45z"/>
			</g>
		</g>
		<g>
			<g>
				<linearGradient id="SVGID_14_" gradientUnits="userSpaceOnUse" x1="10.5" y1="14.9624" x2="65.1" y2="14.9624">
					<stop  offset="0" style="stop-color:#000000"/>
					<stop  offset="0.3137" style="stop-color:#111111"/>
					<stop  offset="0.4275" style="stop-color:#1A1A1A"/>
					<stop  offset="0.5255" style="stop-color:#1A1A1A"/>
					<stop  offset="0.9176" style="stop-color:#000000"/>
					<stop  offset="1" style="stop-color:#060606"/>
				</linearGradient>
				<path fill-rule="evenodd" clip-rule="evenodd" fill="url(#SVGID_14_)" d="M60.3,5.3L60.2,22c-14.73,4.23-29.47,4.23-44.2,0V4.75
					c0.23,0.5,0.42,0.82,0.55,0.95c0.9,0.7,2.87,1.3,5.9,1.8c4.43,0.77,9.68,1.15,15.75,1.15c6.13,0,11.35-0.38,15.65-1.15
					c2.53-0.43,4.37-0.88,5.5-1.35c0.2-0.17,0.42-0.32,0.65-0.45c0.07-0.13,0.17-0.45,0.3-0.95V5.3z"/>
				<linearGradient id="SVGID_15_" gradientUnits="userSpaceOnUse" x1="25.6973" y1="5.6938" x2="215.4214" y2="-6.7436">
					<stop  offset="0" style="stop-color:#000000"/>
					<stop  offset="0.2745" style="stop-color:#212121"/>
					<stop  offset="0.6157" style="stop-color:#2A2A2A"/>
					<stop  offset="0.7098" style="stop-color:#848484"/>
					<stop  offset="0.8039" style="stop-color:#191919"/>
					<stop  offset="0.8471" style="stop-color:#8C8C8C"/>
					<stop  offset="0.9255" style="stop-color:#0E0E0E"/>
					<stop  offset="1" style="stop-color:#060606"/>
				</linearGradient>
				<path fill-rule="evenodd" clip-rule="evenodd" fill="url(#SVGID_15_)" d="M16,4.75c0-1.07,2.15-1.98,6.45-2.75
					c0.57-0.07,1.13-0.13,1.7-0.2c9.43-0.87,18.88-0.87,28.35,0c0.2,0.07,0.4,0.1,0.6,0.1C53.33,1.97,53.58,2,53.85,2
					c4.37,0.77,6.55,1.68,6.55,2.75c0,0.13-0.03,0.32-0.1,0.55V4.75c-0.13,0.5-0.23,0.82-0.3,0.95c-0.23,0.13-0.45,0.28-0.65,0.45
					c-1.13,0.47-2.97,0.92-5.5,1.35c-4.3,0.77-9.52,1.15-15.65,1.15c-6.07,0-11.32-0.38-15.75-1.15c-3.03-0.5-5-1.1-5.9-1.8
					C16.42,5.57,16.23,5.25,16,4.75z"/>
			</g>
		</g>
		<g>
			<linearGradient id="SVGID_16_" gradientUnits="userSpaceOnUse" x1="3.1279" y1="47.3711" x2="77.8798" y2="54.1254">
				<stop  offset="0" style="stop-color:#030303;stop-opacity:0.5922"/>
				<stop  offset="0.2118" style="stop-color:#070707;stop-opacity:0.1529"/>
				<stop  offset="0.5373" style="stop-color:#090909;stop-opacity:0"/>
				<stop  offset="0.8627" style="stop-color:#040404;stop-opacity:0.3137"/>
				<stop  offset="1" style="stop-color:#000000"/>
			</linearGradient>
			<path fill-rule="evenodd" clip-rule="evenodd" fill="url(#SVGID_16_)" d="M60,28.65c1.83-0.2,3.6-0.48,5.3-0.85
				c6.77-1.13,10.47-2.58,11.1-4.35v46c-0.37,1.63-1.57,3.12-3.6,4.45c-1.83,1.2-4.33,2.25-7.5,3.15c-3.33,1.07-6.93,1.92-10.8,2.55
				c-1,0.13-1.98,0.27-2.95,0.4c-3.97,0.43-8.2,0.65-12.7,0.65c-5.87,0-11.22-0.38-16.05-1.15c-0.5-0.07-0.97-0.13-1.4-0.2
				c-3.3-0.57-6.37-1.32-9.2-2.25C9.17,76.15,6.77,75.1,5,73.9c-2.47-1.63-3.73-3.43-3.8-5.4V22.95c0.07,1.97,3.73,3.58,11,4.85
				c7.4,1.4,16.28,2.1,26.65,2.1C46.82,29.9,53.87,29.48,60,28.65z"/>
		</g>
		<g>
			<g>
				<radialGradient id="SVGID_17_" cx="29.5498" cy="7.1001" r="10.8875" gradientUnits="userSpaceOnUse">
					<stop  offset="0" style="stop-color:#FFFFFF;stop-opacity:0.3333"/>
					<stop  offset="1" style="stop-color:#000000"/>
				</radialGradient>
				<path fill-rule="evenodd" clip-rule="evenodd" fill="url(#SVGID_17_)" d="M18.15,6.45c0.07-0.13,0.17-0.17,0.3-0.1
					c7.03,1.77,14.6,2.28,22.7,1.55c0.1,0,0.22,0.05,0.35,0.15c0.13,0.07,0.2,0.2,0.2,0.4c0,0.07-0.03,0.17-0.1,0.3
					C41.53,8.92,41.43,9,41.3,9c-8.2,0.7-15.88,0.17-23.05-1.6c-0.17-0.07-0.28-0.13-0.35-0.2c-0.13-0.17-0.17-0.32-0.1-0.45
					S17.98,6.52,18.15,6.45z"/>
				
					<radialGradient id="SVGID_18_" cx="27.4551" cy="25.9541" r="31.2129" gradientTransform="matrix(1 -5.206177e-003 0 1.0404 -4.394531e-003 -2.6603)" gradientUnits="userSpaceOnUse">
					<stop  offset="0" style="stop-color:#FFFFFF;stop-opacity:0.3333"/>
					<stop  offset="1" style="stop-color:#000000"/>
				</radialGradient>
				<path fill-rule="evenodd" clip-rule="evenodd" fill="url(#SVGID_18_)" d="M64.55,27.05c6.27-1.13,9.78-2.4,10.55-3.8
					c0-0.13,0.07-0.2,0.2-0.2c0.17-0.07,0.32-0.07,0.45,0c0.13,0,0.23,0.07,0.3,0.2c0,0.13,0,0.28,0,0.45
					c-0.7,1.67-4.47,3.13-11.3,4.4c-7.2,1.27-15.97,1.93-26.3,2c-10.37,0-19.18-0.58-26.45-1.75C5.93,27.28,2.3,26,1.1,24.5v-1.55
					c0.13,0,0.28,0.03,0.45,0.1c0.13,0.07,0.2,0.17,0.2,0.3c0.33,1.5,3.82,2.8,10.45,3.9c7.27,1.2,16.02,1.8,26.25,1.8
					C48.65,28.98,57.35,28.32,64.55,27.05z"/>
			</g>
		</g>
	</g>
</g>
</svg>
