<?xml version="1.0" encoding="utf-8"?>
<!-- Generator: Adobe Illustrator 16.0.0, SVG Export Plug-In . SVG Version: 6.00 Build 0)  -->
<!DOCTYPE svg PUBLIC "-//W3C//DTD SVG 1.1//EN" "http://www.w3.org/Graphics/SVG/1.1/DTD/svg11.dtd">
<svg version="1.1" xmlns="http://www.w3.org/2000/svg" xmlns:xlink="http://www.w3.org/1999/xlink" x="0px" y="0px" width="243px"
	 height="332px" viewBox="0 0 243 332" enable-background="new 0 0 243 332" xml:space="preserve">
<g id="Blue">
</g>
<g id="Green">
	<g>
		<g>
			
				<linearGradient id="SVGID_1_" gradientUnits="userSpaceOnUse" x1="-35.04" y1="-13.4106" x2="281.4346" y2="-35.8265" gradientTransform="matrix(0.6907 0 0 0.6907 34.6273 176.4341)">
				<stop  offset="0" style="stop-color:#FFFFFF;stop-opacity:0.2"/>
				<stop  offset="0.251" style="stop-color:#FFFFFF;stop-opacity:0.2"/>
				<stop  offset="0.4902" style="stop-color:#FFFFFF;stop-opacity:0"/>
				<stop  offset="0.5961" style="stop-color:#FEFEFE;stop-opacity:0"/>
				<stop  offset="0.7137" style="stop-color:#FEFEFE;stop-opacity:0.2118"/>
				<stop  offset="0.8314" style="stop-color:#FEFEFE;stop-opacity:0.2"/>
				<stop  offset="1" style="stop-color:#FDFDFD;stop-opacity:0.2"/>
			</linearGradient>
			<path fill-rule="evenodd" clip-rule="evenodd" fill="url(#SVGID_1_)" d="M85.62,154.23c0,0.02,0.01,0.05,0.03,0.07
				c0,0.02,0.01,0.05,0.04,0.07v0.07c0,0.02,0.01,0.03,0.03,0.03v0.07h0.03v0.03l0.04,0.03v0.03h0.03c0.02,0.02,0.05,0.03,0.07,0.03
				s0.03,0.01,0.03,0.03c0.02,0,0.05,0,0.07,0h0.07c0.02,0,0.05,0,0.07,0h0.03c0-0.02,0.01-0.03,0.03-0.03h0.04
				c0.35-0.02,0.68-0.03,1-0.03c0.02,0,0.05,0,0.07,0h0.04l0.03-0.03c0.02,0,0.05-0.01,0.07-0.03h0.03v-0.03l0.07-0.07v-0.03
				c0.14-0.05,0.23-0.09,0.28-0.14c0-0.02,0-0.05,0-0.07c0-0.09-0.12-0.17-0.35-0.24c-0.04-0.02-0.1-0.03-0.17-0.03
				c-0.16-0.02-0.36-0.03-0.59-0.03c-0.21,0-0.39,0.01-0.55,0.03H86.1c-0.02,0-0.03,0.01-0.03,0.03c-0.05,0-0.09,0-0.14,0
				C85.72,154.06,85.62,154.14,85.62,154.23z M84.89,154.12h-0.03c-0.02,0-0.05,0.01-0.07,0.03h-0.03c-0.02,0-0.05,0.01-0.07,0.03
				l-0.07,0.07v0.03c-0.02,0-0.04,0.01-0.04,0.03v0.03c-0.02,0-0.04,0.01-0.04,0.03v0.24h0.04v0.07l0.1,0.1v0.03h0.04v0.03
				l0.03,0.04v0.03h0.03l0.04,0.03c-0.39,0-0.76,0.01-1.11,0.03c0.46-0.09,0.69-0.18,0.69-0.28c0-0.12-0.25-0.22-0.76-0.31
				c-0.37-0.05-0.77-0.07-1.21-0.07c-0.09-0.02-0.2-0.03-0.31-0.03c0.09-0.05,0.14-0.09,0.14-0.14c0-0.09-0.22-0.17-0.66-0.24
				c-0.32-0.05-0.7-0.08-1.14-0.1v-0.24c-0.02,0-0.04-0.01-0.04-0.03v-0.03l-0.1-0.1c-0.02-0.02-0.05-0.03-0.07-0.03h-0.04
				c-0.02-0.02-0.05-0.03-0.07-0.03h-0.04l-0.03-0.03c-0.02,0-0.05,0-0.07,0c-0.07,0-0.15,0-0.24,0h-0.03
				c-0.02,0-0.05,0.01-0.07,0.03h-0.07c-0.02,0-0.05,0-0.07,0h-0.03c-0.02,0-0.05,0.01-0.07,0.03H79.4c-0.02,0-0.05,0.01-0.07,0.03
				l-0.07,0.07v0.04c-0.02,0-0.03,0.01-0.03,0.03v0.03c-0.02,0-0.04,0.01-0.04,0.03v0.14c0,0.02,0.01,0.03,0.04,0.03v0.07
				c-0.3,0-0.56,0.02-0.79,0.07c-0.44,0.07-0.66,0.15-0.66,0.24c0,0.09,0.22,0.17,0.66,0.24c0.3,0.05,0.63,0.08,1,0.1
				c0.02,0,0.04,0,0.07,0c-0.28,0.05-0.42,0.12-0.42,0.21s0.26,0.18,0.79,0.28c0.48,0.09,1.08,0.14,1.8,0.14
				c-0.21,0.02-0.4,0.05-0.59,0.07c-1.43,0.18-2.14,0.4-2.14,0.66s0.71,0.46,2.14,0.62c1.45,0.21,3.2,0.31,5.25,0.31
				s3.79-0.1,5.21-0.31c1.45-0.16,2.18-0.37,2.18-0.62s-0.73-0.47-2.18-0.66c-1.43-0.18-3.17-0.28-5.21-0.28c-0.32,0-0.64,0-0.97,0
				l0.14-0.14v-0.07h0.03v-0.38c-0.02,0-0.03-0.01-0.03-0.03v-0.03l-0.1-0.1c-0.02-0.02-0.04-0.03-0.07-0.03h-0.04l-0.03-0.03
				c-0.02,0-0.05,0-0.07,0C85.11,154.12,85.01,154.12,84.89,154.12z M88,143.49c0.48-0.07,1.09-0.05,1.83,0.07l139.07,18.03
				c0.28,0.05,0.44,0.12,0.48,0.21v0.03l-27.28,7.15c-0.62,0.25-1.32,0.29-2.11,0.1l-21.62-3.18c-0.88-0.18-1.97-0.2-3.28-0.03
				l-45.41,11.05c-0.81,0.09-1.82-0.01-3.04-0.31c-38.5-6.79-76.86-13.5-115.11-20.13c-1.8-0.25-1.77-0.55,0.07-0.9L88,143.49z"/>
		</g>
		<g>
			<g>
				
					<radialGradient id="SVGID_2_" cx="66.2773" cy="-241.9502" r="30.3139" gradientTransform="matrix(0.6907 0 0 0.6508 34.6273 166.7702)" gradientUnits="userSpaceOnUse">
					<stop  offset="0" style="stop-color:#FCFFEE"/>
					<stop  offset="1" style="stop-color:#8EB101"/>
				</radialGradient>
				<path fill-rule="evenodd" clip-rule="evenodd" fill="url(#SVGID_2_)" d="M101.02,8.73c-14.18,1.84-27.93,2.22-41.24,1.14V9.8
					c0.07-0.16,0.66-0.32,1.76-0.48c0.67-0.23,2.23-0.44,4.7-0.62c0.35-0.02,0.72-0.05,1.14-0.07l1.17-0.1
					c2.74-0.18,5.47-0.3,8.18-0.35c2.74-0.05,6.37-0.07,10.88-0.07H88c0.09,0,0.18,0,0.28,0l1.31,0.03l0.03-0.03l4.18,0.03
					c0.64,0,1.05,0,1.21,0c3.29,0.12,5.25,0.29,5.87,0.52c0.02,0.02,0.06,0.03,0.1,0.03L101.02,8.73z"/>
				
					<linearGradient id="SVGID_3_" gradientUnits="userSpaceOnUse" x1="65.127" y1="-343.2261" x2="67.9398" y2="-221.5519" gradientTransform="matrix(0.6907 0 0 0.6907 34.6273 176.4341)">
					<stop  offset="0" style="stop-color:#8EB102"/>
					<stop  offset="1" style="stop-color:#8EB101;stop-opacity:0"/>
				</linearGradient>
				<path fill-rule="evenodd" clip-rule="evenodd" fill="url(#SVGID_3_)" d="M101.02,8.73c0.02-0.02,0.06-0.04,0.1-0.04l21.55,31.84
					l-81.47-0.62L59.27,9.8c0.18,0.02,0.36,0.05,0.52,0.07C73.1,10.95,86.84,10.57,101.02,8.73z"/>
				
					<linearGradient id="SVGID_4_" gradientUnits="userSpaceOnUse" x1="15.7764" y1="-29.4141" x2="106.1764" y2="-29.4141" gradientTransform="matrix(0.6907 0 0 0.6907 34.6273 176.4341)">
					<stop  offset="0" style="stop-color:#94E31C;stop-opacity:0.5608"/>
					<stop  offset="1" style="stop-color:#C0D17C;stop-opacity:0"/>
				</linearGradient>
				<path fill-rule="evenodd" clip-rule="evenodd" fill="url(#SVGID_4_)" d="M70.18,160.79c-2.51-0.32-4.87-0.69-7.08-1.1
					c-6.49-1.27-9.74-2.68-9.74-4.25c0-1.59,3.25-2.87,9.74-3.83c2.21-0.35,4.57-0.61,7.08-0.79c4.9-0.39,10.41-0.53,16.51-0.41
					c9.21,0.21,17.07,0.94,23.59,2.21c6.52,1.24,9.77,2.66,9.77,4.25c0,1.57-3.26,2.84-9.77,3.83c-6.52,0.97-14.38,1.35-23.59,1.14
					C80.59,161.71,75.09,161.37,70.18,160.79z M86.17,153.95H86.1c-0.02,0-0.03,0.01-0.03,0.03H86c-0.02,0-0.05,0-0.07,0
					c-0.21,0.07-0.31,0.15-0.31,0.24c0,0.02,0.01,0.05,0.03,0.07c0,0.02,0.01,0.05,0.04,0.07v0.07c0,0.02,0.01,0.03,0.03,0.03v0.07
					h0.03v0.03l0.04,0.03v0.03h0.03c0.02,0.02,0.05,0.03,0.07,0.03s0.03,0.01,0.03,0.03c0.02,0,0.05,0,0.07,0h0.07
					c0.02,0,0.05,0,0.07,0h0.03c0-0.02,0.01-0.03,0.03-0.03h0.04c0.35-0.02,0.68-0.03,1-0.03c0.02,0,0.05,0,0.07,0h0.04l0.03-0.03
					c0.02,0,0.05-0.01,0.07-0.03h0.03v-0.03l0.07-0.07v-0.03c0.14-0.05,0.23-0.09,0.28-0.14c0-0.02,0-0.05,0-0.07
					c0-0.09-0.12-0.17-0.35-0.24c-0.04-0.02-0.1-0.03-0.17-0.03c-0.16-0.02-0.36-0.03-0.59-0.03
					C86.52,153.92,86.33,153.93,86.17,153.95z M86.35,156.82c2.05,0,3.79-0.1,5.21-0.31c1.45-0.16,2.18-0.37,2.18-0.62
					s-0.73-0.47-2.18-0.66c-1.43-0.18-3.17-0.28-5.21-0.28c-0.32,0-0.64,0-0.97,0l0.14-0.14v-0.07h0.03v-0.38
					c-0.02,0-0.03-0.01-0.03-0.03v-0.03l-0.1-0.1c-0.02-0.02-0.04-0.03-0.07-0.03h-0.04l-0.03-0.03c-0.02,0-0.05,0-0.07,0
					c-0.09,0-0.2,0-0.31,0h-0.03c-0.02,0-0.05,0.01-0.07,0.03h-0.03c-0.02,0-0.05,0.01-0.07,0.03l-0.07,0.07v0.03
					c-0.02,0-0.04,0.01-0.04,0.03v0.03c-0.02,0-0.04,0.01-0.04,0.03v0.24h0.04v0.07l0.1,0.1v0.03h0.04v0.03l0.03,0.04v0.03h0.03
					l0.04,0.03c-0.39,0-0.76,0.01-1.11,0.03c0.46-0.09,0.69-0.18,0.69-0.28c0-0.12-0.25-0.22-0.76-0.31
					c-0.37-0.05-0.77-0.07-1.21-0.07c-0.09-0.02-0.2-0.03-0.31-0.03c0.09-0.05,0.14-0.09,0.14-0.14c0-0.09-0.22-0.17-0.66-0.24
					c-0.32-0.05-0.7-0.08-1.14-0.1v-0.24c-0.02,0-0.04-0.01-0.04-0.03v-0.03l-0.1-0.1c-0.02-0.02-0.05-0.03-0.07-0.03h-0.04
					c-0.02-0.02-0.05-0.03-0.07-0.03h-0.04l-0.03-0.03c-0.02,0-0.05,0-0.07,0c-0.07,0-0.15,0-0.24,0h-0.03
					c-0.02,0-0.05,0.01-0.07,0.03h-0.07c-0.02,0-0.05,0-0.07,0h-0.03c-0.02,0-0.05,0.01-0.07,0.03H79.4c-0.02,0-0.05,0.01-0.07,0.03
					l-0.07,0.07v0.04c-0.02,0-0.03,0.01-0.03,0.03v0.03c-0.02,0-0.04,0.01-0.04,0.03v0.14c0,0.02,0.01,0.03,0.04,0.03v0.07
					c-0.3,0-0.56,0.02-0.79,0.07c-0.44,0.07-0.66,0.15-0.66,0.24c0,0.09,0.22,0.17,0.66,0.24c0.3,0.05,0.63,0.08,1,0.1
					c0.02,0,0.04,0,0.07,0c-0.28,0.05-0.42,0.12-0.42,0.21s0.26,0.18,0.79,0.28c0.48,0.09,1.08,0.14,1.8,0.14
					c-0.21,0.02-0.4,0.05-0.59,0.07c-1.43,0.18-2.14,0.4-2.14,0.66s0.71,0.46,2.14,0.62C82.55,156.71,84.3,156.82,86.35,156.82z"/>
				
					<linearGradient id="SVGID_5_" gradientUnits="userSpaceOnUse" x1="258.1748" y1="-58.4736" x2="181.125" y2="-58.4736" gradientTransform="matrix(0.6907 0 0 0.6907 34.6273 176.4341)">
					<stop  offset="0" style="stop-color:#94E31C;stop-opacity:0.3804"/>
					<stop  offset="1" style="stop-color:#C0D17C;stop-opacity:0"/>
				</linearGradient>
				<polygon fill-rule="evenodd" clip-rule="evenodd" fill="url(#SVGID_5_)" points="159.77,136.79 159.73,135.1 171.61,132.64 
					212.95,136.93 198.9,139.03 182.77,139.45 166.33,137.69 165.71,137.55 				"/>
				
					<linearGradient id="SVGID_6_" gradientUnits="userSpaceOnUse" x1="385.2764" y1="-21.749" x2="192.2774" y2="-21.749" gradientTransform="matrix(0.6907 0 0 0.6907 34.6273 176.4341)">
					<stop  offset="0" style="stop-color:#94E31C;stop-opacity:0.5608"/>
					<stop  offset="1" style="stop-color:#C0D17C;stop-opacity:0"/>
				</linearGradient>
				<path fill-rule="evenodd" clip-rule="evenodd" fill="url(#SVGID_6_)" d="M186.53,167.11l-8.63-1.45l-0.62,0.14l-11.74,2.62
					l-0.03-0.17V153.4l63.44,8.22c0.28,0.05,0.44,0.12,0.48,0.21V162l-28.66,7.43L186.53,167.11z"/>
				
					<linearGradient id="SVGID_7_" gradientUnits="userSpaceOnUse" x1="-33.8418" y1="2.9814" x2="282.6455" y2="-19.4353" gradientTransform="matrix(0.6907 0 0 0.6907 34.6273 176.4341)">
					<stop  offset="0" style="stop-color:#FFFFFF;stop-opacity:0.2"/>
					<stop  offset="0.251" style="stop-color:#FFFFFF;stop-opacity:0.2"/>
					<stop  offset="0.4902" style="stop-color:#FFFFFF;stop-opacity:0"/>
					<stop  offset="0.5961" style="stop-color:#FEFEFE;stop-opacity:0"/>
					<stop  offset="0.7137" style="stop-color:#FEFEFE;stop-opacity:0.2118"/>
					<stop  offset="0.8314" style="stop-color:#FEFEFE;stop-opacity:0.2"/>
					<stop  offset="1" style="stop-color:#FDFDFD;stop-opacity:0.2"/>
				</linearGradient>
				<path fill-rule="evenodd" clip-rule="evenodd" fill="url(#SVGID_7_)" d="M186.53,167.11l-8.12-1.17
					c-0.35-0.07-0.72-0.12-1.14-0.14l0.62-0.14L186.53,167.11z"/>
				
					<linearGradient id="SVGID_8_" gradientUnits="userSpaceOnUse" x1="385.2773" y1="-11.7246" x2="192.2773" y2="-11.7246" gradientTransform="matrix(0.6907 0 0 0.6907 34.6273 176.4341)">
					<stop  offset="0" style="stop-color:#0000FF;stop-opacity:0.4118"/>
					<stop  offset="1" style="stop-color:#0000F7;stop-opacity:0"/>
				</linearGradient>
				<polygon fill-rule="evenodd" clip-rule="evenodd" fill="url(#SVGID_8_)" points="165.53,168.42 165.5,168.42 165.5,168.25 				
					"/>
				
					<linearGradient id="SVGID_9_" gradientUnits="userSpaceOnUse" x1="73.8262" y1="-32.3252" x2="77.0264" y2="-32.3252" gradientTransform="matrix(0.6907 0 0 0.6907 34.6273 176.4341)">
					<stop  offset="0" style="stop-color:#94E31C;stop-opacity:0.5608"/>
					<stop  offset="1" style="stop-color:#C0D17C;stop-opacity:0"/>
				</linearGradient>
				<path fill-rule="evenodd" clip-rule="evenodd" fill="url(#SVGID_9_)" d="M86.17,153.95c0.16-0.02,0.34-0.03,0.55-0.03
					c0.23,0,0.43,0.01,0.59,0.03c0.07,0,0.13,0.01,0.17,0.03c0.23,0.07,0.35,0.15,0.35,0.24c0,0.02,0,0.05,0,0.07
					c-0.04-0.05-0.14-0.09-0.28-0.14v-0.03l-0.1-0.1c-0.02-0.02-0.05-0.03-0.07-0.03h-0.03l-0.04-0.03c-0.02,0-0.05,0-0.07,0
					C86.9,153.95,86.54,153.95,86.17,153.95z M86,153.99c-0.02,0-0.05,0.01-0.07,0.03h-0.07c0,0.02-0.01,0.03-0.03,0.03l-0.03,0.03
					v0.03h-0.04c0,0.02-0.01,0.03-0.03,0.03v0.07h-0.03v0.03c-0.02,0-0.04,0.01-0.04,0.03c-0.02-0.02-0.03-0.05-0.03-0.07
					c0-0.09,0.1-0.17,0.31-0.24C85.95,153.99,85.98,153.99,86,153.99z"/>
				
					<linearGradient id="SVGID_10_" gradientUnits="userSpaceOnUse" x1="-42.0166" y1="-21.04" x2="48.0837" y2="-28.5175" gradientTransform="matrix(0.6907 0 0 0.6907 34.6273 176.4341)">
					<stop  offset="0" style="stop-color:#94E31C;stop-opacity:0.5608"/>
					<stop  offset="0.4784" style="stop-color:#A8DB47;stop-opacity:0.4353"/>
					<stop  offset="1" style="stop-color:#C0D17C;stop-opacity:0"/>
				</linearGradient>
				<path fill-rule="evenodd" clip-rule="evenodd" fill="url(#SVGID_10_)" d="M70.18,150.81c-2.51,0.18-4.87,0.45-7.08,0.79
					c-6.49,0.97-9.74,2.25-9.74,3.83c0,1.57,3.25,2.98,9.74,4.25c2.21,0.41,4.57,0.78,7.08,1.1v5.94
					c-19.57-3.43-39.11-6.84-58.61-10.22c-1.17-0.16-1.56-0.33-1.17-0.52l0.04-0.03c0.07-0.05,0.16-0.08,0.28-0.1
					c0.14-0.05,0.32-0.09,0.55-0.14l58.92-9.36V150.81z"/>
			</g>
		</g>
		<g>
			<g>
				
					<linearGradient id="SVGID_11_" gradientUnits="userSpaceOnUse" x1="242.8066" y1="195.7988" x2="238.5103" y2="203.9876" gradientTransform="matrix(0.6907 0 0 0.6907 34.6273 176.4341)">
					<stop  offset="0" style="stop-color:#43E61A;stop-opacity:0.251"/>
					<stop  offset="1" style="stop-color:#D2F9C8;stop-opacity:0"/>
				</linearGradient>
				<polygon fill-rule="evenodd" clip-rule="evenodd" fill="url(#SVGID_11_)" points="192.13,311.26 194.54,311.26 219.55,320.03 
					219.41,324.45 219.38,324.97 178.54,311.26 				"/>
				
					<linearGradient id="SVGID_12_" gradientUnits="userSpaceOnUse" x1="260.4668" y1="196.4434" x2="178.7902" y2="169.003" gradientTransform="matrix(0.6907 0 0 0.6907 34.6273 176.4341)">
					<stop  offset="0" style="stop-color:#43E61A;stop-opacity:0.251"/>
					<stop  offset="1" style="stop-color:#EEE7DA;stop-opacity:0"/>
				</linearGradient>
				<path fill-rule="evenodd" clip-rule="evenodd" fill="url(#SVGID_12_)" d="M197.62,300.9l32.67,9.84
					c0.67,0.34,1.21,0.72,1.62,1.14c0.07,0.07,0.14,0.14,0.21,0.21l-12.54,7.53l-0.03,0.42l-25-8.77h-2.42
					c3.81-0.8,5.6-2.19,5.37-4.16l-0.05-6.22L197.62,300.9z"/>
				<polygon fill-rule="evenodd" clip-rule="evenodd" fill="#43E61A" fill-opacity="0.251" points="197.45,300.88 197.45,300.85 
					197.62,300.9 				"/>
				
					<linearGradient id="SVGID_13_" gradientUnits="userSpaceOnUse" x1="276.0908" y1="204.2021" x2="278.3246" y2="207.8969" gradientTransform="matrix(0.6907 0 0 0.6907 34.6273 176.4341)">
					<stop  offset="0" style="stop-color:#43E61A;stop-opacity:0.251"/>
					<stop  offset="1" style="stop-color:#D1F9C8;stop-opacity:0"/>
				</linearGradient>
				<path fill-rule="evenodd" clip-rule="evenodd" fill="url(#SVGID_13_)" d="M233.12,315.58l-0.07,0.59l-0.07,0.07l0.07,0.1
					l-13.64,8.12l0.14-4.42l0.03-0.42l12.54-7.53c0.51,0.58,0.81,1.2,0.9,1.86v0.04L233.12,315.58z"/>
				
					<linearGradient id="SVGID_14_" gradientUnits="userSpaceOnUse" x1="285.3496" y1="198.6045" x2="287.5833" y2="202.2992" gradientTransform="matrix(0.6907 0 0 0.6907 34.6273 176.4341)">
					<stop  offset="0" style="stop-color:#43E61A;stop-opacity:0.251"/>
					<stop  offset="1" style="stop-color:#EEE7DA;stop-opacity:0"/>
				</linearGradient>
				<polygon fill-rule="evenodd" clip-rule="evenodd" fill="url(#SVGID_14_)" points="233.12,315.58 233.15,316.09 233.05,316.16 
									"/>
			</g>
		</g>
	</g>
</g>
<g id="Red">
</g>
<g id="Yellow">
</g>
</svg>
