<?xml version="1.0" encoding="utf-8"?>
<!-- Generator: Adobe Illustrator 16.0.0, SVG Export Plug-In . SVG Version: 6.00 Build 0)  -->
<!DOCTYPE svg PUBLIC "-//W3C//DTD SVG 1.1//EN" "http://www.w3.org/Graphics/SVG/1.1/DTD/svg11.dtd">
<svg version="1.1" id="Layer_2" xmlns="http://www.w3.org/2000/svg" xmlns:xlink="http://www.w3.org/1999/xlink" x="0px" y="0px"
	 width="10.06px" height="12.77px" viewBox="0 0 10.06 12.77" enable-background="new 0 0 10.06 12.77" xml:space="preserve">
<g>
	<g>
		
			<radialGradient id="SVGID_1_" cx="-269.8872" cy="-194.8325" r="9.3015" fx="-270.2885" fy="-194.8325" gradientTransform="matrix(0.3589 0 0.015 0.4881 103.4914 103.41)" gradientUnits="userSpaceOnUse">
			<stop  offset="0" style="stop-color:#000000"/>
			<stop  offset="0.302" style="stop-color:#000000"/>
			<stop  offset="0.5176" style="stop-color:#000000"/>
			<stop  offset="0.7137" style="stop-color:#333333"/>
			<stop  offset="1" style="stop-color:#050505"/>
		</radialGradient>
		<path fill-rule="evenodd" clip-rule="evenodd" fill="url(#SVGID_1_)" d="M6.72,8.23c0.08,0.96-0.08,1.78-0.5,2.48
			c-0.25,0.48-0.57,0.8-0.95,0.97c-0.19,0.06-0.39,0.09-0.59,0.09c-0.04,0-0.07,0-0.11,0c-0.08,0-0.16-0.01-0.22-0.02
			c-0.13-0.04-0.25-0.07-0.34-0.11c-0.05-0.03-0.1-0.05-0.16-0.07c-0.29-0.18-0.56-0.42-0.83-0.72c-0.04-0.05-0.07-0.1-0.11-0.14
			c-0.24-0.31-0.42-0.65-0.56-1C2.35,9.67,2.34,9.65,2.34,9.63C2.16,9.21,2.06,8.77,2.02,8.29c0-0.02,0-0.04,0-0.05V8.22
			c-0.1-0.97,0.07-1.8,0.5-2.5c0-0.02,0.01-0.05,0.04-0.09c0-0.01,0.01-0.03,0.02-0.05c0.08-0.11,0.17-0.2,0.25-0.29
			C2.93,5.17,3.06,5.06,3.2,4.97c0.13-0.08,0.28-0.15,0.45-0.2C3.76,4.73,3.88,4.71,4.01,4.7c0.02,0,0.05,0,0.07,0
			c0.65,0,1.23,0.34,1.76,1.02C6.34,6.42,6.64,7.25,6.72,8.23z"/>
	</g>
	<g>
		<g>
			
				<linearGradient id="SVGID_2_" gradientUnits="userSpaceOnUse" x1="-272.73" y1="-194.4087" x2="-264.7886" y2="-194.4087" gradientTransform="matrix(0.3589 0 0 0.3589 100.5974 78.2343)">
				<stop  offset="0" style="stop-color:#379500"/>
				<stop  offset="0.5569" style="stop-color:#0EDD5C"/>
				<stop  offset="1" style="stop-color:#307601"/>
			</linearGradient>
			<path fill-rule="evenodd" clip-rule="evenodd" fill="url(#SVGID_2_)" d="M3.18,5.99c-0.03,0-0.05,0-0.08,0
				c-0.13,0-0.26,0.02-0.38,0.05L2.71,6.02c0.08-0.03,0.17-0.06,0.26-0.08c0.1-0.02,0.2-0.04,0.31-0.05c0.02,0,0.05,0,0.07,0
				c0.56,0,1.06,0.26,1.49,0.77c0.43,0.52,0.67,1.14,0.72,1.87c0.04,0.72-0.13,1.33-0.5,1.85c-0.21,0.31-0.45,0.53-0.74,0.66
				c0.19-0.14,0.36-0.32,0.52-0.56c0.22-0.32,0.36-0.68,0.42-1.08L5.3,8.63L5.24,8.1c-0.1-0.51-0.31-0.95-0.62-1.34
				C4.24,6.27,3.8,6.01,3.31,5.99c-0.04,0-0.07,0-0.11,0H3.18z"/>
			
				<linearGradient id="SVGID_3_" gradientUnits="userSpaceOnUse" x1="-276.2036" y1="-193.8457" x2="-265.7826" y2="-193.8457" gradientTransform="matrix(0.1068 0.3427 -0.3398 0.1159 -33.5518 123.6367)">
				<stop  offset="0" style="stop-color:#379500"/>
				<stop  offset="0.5569" style="stop-color:#0EDD5C"/>
				<stop  offset="1" style="stop-color:#307601"/>
			</linearGradient>
			<path fill-rule="evenodd" clip-rule="evenodd" fill="url(#SVGID_3_)" d="M4.32,11.03c-0.02,0.02-0.05,0.04-0.07,0.05
				c-0.16,0.05-0.32,0.07-0.48,0.07c-0.04,0-0.07,0-0.09,0c-0.07,0-0.14-0.01-0.2-0.02c-0.1-0.02-0.19-0.05-0.27-0.07
				c-0.05-0.03-0.1-0.04-0.14-0.05C2.82,10.88,2.6,10.7,2.4,10.48c-0.04-0.04-0.07-0.07-0.09-0.11c-0.19-0.23-0.33-0.48-0.43-0.75
				C1.86,9.59,1.86,9.57,1.86,9.56C1.73,9.25,1.65,8.92,1.63,8.56c0-0.01,0-0.02,0-0.04V8.5C1.59,7.79,1.75,7.17,2.11,6.65
				c0.01-0.02,0.03-0.05,0.05-0.07c0-0.01,0.01-0.02,0.02-0.04c0.07-0.08,0.14-0.16,0.2-0.22c0.11-0.1,0.22-0.18,0.32-0.25
				c0.05-0.01,0.1-0.02,0.14-0.04c0.11-0.03,0.22-0.05,0.33-0.05H3.2c0.04,0,0.07,0,0.11,0C3.8,6.01,4.24,6.27,4.62,6.76
				C4.94,7.15,5.14,7.59,5.24,8.1L5.3,8.63L5.26,9.39c-0.06,0.4-0.21,0.76-0.42,1.08C4.68,10.71,4.5,10.89,4.32,11.03z"/>
			
				<linearGradient id="SVGID_4_" gradientUnits="userSpaceOnUse" x1="-272.4346" y1="-199.1006" x2="-269.6146" y2="-187.1403" gradientTransform="matrix(0.3589 0 0 0.3589 100.5974 78.2343)">
				<stop  offset="0" style="stop-color:#607066"/>
				<stop  offset="0.4314" style="stop-color:#ACBFA3"/>
				<stop  offset="1" style="stop-color:#57625A"/>
			</linearGradient>
			<path fill-rule="evenodd" clip-rule="evenodd" fill="url(#SVGID_4_)" d="M2.72,6.04c-0.05,0.01-0.1,0.02-0.14,0.04
				c0.04-0.02,0.09-0.04,0.13-0.06L2.72,6.04z"/>
		</g>
	</g>
	<g>
		
			<radialGradient id="SVGID_5_" cx="-272.5547" cy="-195.5825" r="8.3007" gradientTransform="matrix(0.3589 0 0 0.3589 100.5842 78.2241)" gradientUnits="userSpaceOnUse">
			<stop  offset="0" style="stop-color:#03DD6C"/>
			<stop  offset="1" style="stop-color:#53DE00"/>
		</radialGradient>
		<path fill-rule="evenodd" clip-rule="evenodd" fill="url(#SVGID_5_)" d="M3.01,6.37c0.38,0,0.74,0.22,1.06,0.66
			c0.35,0.43,0.55,0.95,0.59,1.56c0.05,0.61-0.05,1.13-0.29,1.56c-0.24,0.43-0.56,0.65-0.95,0.65c-0.38,0-0.74-0.22-1.08-0.65
			C2.01,9.72,1.82,9.2,1.77,8.59C1.72,7.98,1.81,7.46,2.04,7.03C2.29,6.59,2.61,6.37,3.01,6.37z"/>
	</g>
	<g>
		<path fill-rule="evenodd" clip-rule="evenodd" fill="#525252" d="M7.24,3.32C7.19,3.21,7.12,3.13,7.01,3.08s-0.2-0.05-0.29-0.02
			C6.65,3.11,6.61,3.22,6.6,3.37C6.58,3.53,6.61,3.66,6.69,3.77c0.05,0.12,0.13,0.2,0.23,0.25c0.1,0.05,0.19,0.05,0.27,0.02
			c0.06-0.05,0.1-0.15,0.11-0.31C7.32,3.57,7.3,3.44,7.24,3.32z M7.57,3.85c-0.01,0.22-0.08,0.36-0.2,0.43
			C7.24,4.36,7.08,4.35,6.9,4.25c-0.19-0.1-0.33-0.23-0.43-0.4C6.36,3.68,6.31,3.47,6.33,3.24c0.01-0.13,0.05-0.23,0.11-0.3
			C6.47,2.88,6.51,2.83,6.56,2.8c0.05-0.02,0.11-0.04,0.18-0.04c0.08,0,0.18,0.02,0.29,0.07c0.18,0.1,0.32,0.23,0.43,0.41
			C7.55,3.42,7.59,3.63,7.57,3.85z M8.86,3.77L8.73,5.13L8.46,5L8.03,3.85l-0.07,0.9L7.71,4.64l0.13-1.36l0.25,0.11l0.43,1.18
			l0.09-0.91L8.86,3.77z M4.55,1.81c0.04,0.1,0.06,0.2,0.06,0.3C4.59,2.2,4.57,2.26,4.55,2.31C4.51,2.36,4.47,2.39,4.42,2.4
			C4.38,2.4,4.33,2.4,4.3,2.38C4.24,2.37,4.15,2.34,4.03,2.28L3.87,2.2L3.81,2.73L3.55,2.6l0.13-1.36l0.41,0.2
			C4.24,1.5,4.34,1.56,4.39,1.59C4.45,1.65,4.5,1.73,4.55,1.81z M4.03,1.65L3.92,1.59L3.89,1.97l0.13,0.05
			c0.11,0.06,0.18,0.09,0.22,0.09c0.04,0,0.06-0.01,0.07-0.04c0.02-0.01,0.04-0.04,0.05-0.09c0-0.05-0.02-0.09-0.05-0.13
			C4.27,1.81,4.24,1.77,4.21,1.74C4.18,1.73,4.13,1.7,4.03,1.65z M4.77,2.01l0.02-0.23l1,0.5L5.77,2.51l-0.38-0.2L5.29,3.44
			L5.03,3.32l0.11-1.13L4.77,2.01z M6.2,2.46L6.08,3.82L5.82,3.69l0.13-1.36L6.2,2.46z M2.16,1.2c0.01-0.13,0.05-0.23,0.11-0.31
			C2.31,0.83,2.35,0.79,2.4,0.75C2.44,0.73,2.5,0.71,2.58,0.71c0.08,0,0.18,0.02,0.29,0.07c0.18,0.1,0.32,0.23,0.43,0.41
			c0.1,0.18,0.13,0.38,0.11,0.61C3.39,2.02,3.32,2.17,3.2,2.24C3.07,2.31,2.92,2.3,2.74,2.2C2.55,2.11,2.4,1.98,2.31,1.81
			C2.2,1.63,2.15,1.43,2.16,1.2z M2.43,1.32C2.42,1.48,2.45,1.61,2.52,1.72c0.05,0.12,0.13,0.2,0.23,0.25
			c0.1,0.05,0.19,0.05,0.27,0.02c0.06-0.05,0.1-0.15,0.11-0.3c0.02-0.16,0.01-0.29-0.05-0.41C3.03,1.16,2.95,1.09,2.84,1.04
			c-0.11-0.05-0.2-0.05-0.29-0.02C2.49,1.07,2.44,1.17,2.43,1.32z"/>
	</g>
</g>
</svg>
