<?xml version="1.0" encoding="utf-8"?>
<!-- Generator: Adobe Illustrator 16.0.0, SVG Export Plug-In . SVG Version: 6.00 Build 0)  -->
<!DOCTYPE svg PUBLIC "-//W3C//DTD SVG 1.1//EN" "http://www.w3.org/Graphics/SVG/1.1/DTD/svg11.dtd">
<svg version="1.1" xmlns="http://www.w3.org/2000/svg" xmlns:xlink="http://www.w3.org/1999/xlink" x="0px" y="0px" width="78px"
	 height="96px" viewBox="0 0 78 96" enable-background="new 0 0 78 96" xml:space="preserve">
<g id="Layer_1">
	<g>
		<g>
			<g>
				
					<radialGradient id="SVGID_1_" cx="-235.3818" cy="-152.6001" r="9.3" fx="-235.7101" fy="-152.6001" gradientTransform="matrix(4.4867 0 0.1869 6.1028 1119.5038 980.6553)" gradientUnits="userSpaceOnUse">
					<stop  offset="0" style="stop-color:#000000"/>
					<stop  offset="0.302" style="stop-color:#000000"/>
					<stop  offset="0.5176" style="stop-color:#000000"/>
					<stop  offset="0.7137" style="stop-color:#333333"/>
					<stop  offset="1" style="stop-color:#050505"/>
				</radialGradient>
				<path fill-rule="evenodd" clip-rule="evenodd" fill="url(#SVGID_1_)" d="M39.38,4.27c8.08,0,15.4,4.26,21.98,12.79
					c6.28,8.67,9.95,19.14,10.99,31.41c1.05,11.96-1.05,22.28-6.28,30.96c-3.14,5.98-7.1,10.02-11.89,12.11
					c-2.39,0.75-4.86,1.12-7.4,1.12c-0.45,0-0.9,0-1.35,0c-1.05,0-1.95-0.07-2.69-0.22c-1.65-0.45-3.07-0.9-4.26-1.34
					c-0.6-0.3-1.27-0.6-2.02-0.9c-3.59-2.24-7.03-5.23-10.32-8.97c-0.45-0.6-0.9-1.2-1.34-1.79c-2.99-3.89-5.31-8.08-6.96-12.56
					c-0.15-0.45-0.22-0.75-0.22-0.9c-2.24-5.24-3.59-10.84-4.04-16.83c0-0.3,0-0.52,0-0.67v-0.23c-1.2-12.11,0.9-22.51,6.28-31.18
					c0-0.3,0.15-0.67,0.45-1.12c0-0.15,0.07-0.38,0.22-0.67c1.05-1.35,2.09-2.54,3.14-3.59c1.35-1.5,2.92-2.84,4.71-4.04
					c1.65-1.05,3.51-1.87,5.61-2.47c1.35-0.45,2.84-0.75,4.49-0.9C38.78,4.27,39.08,4.27,39.38,4.27z"/>
			</g>
			<g>
				<g>
					
						<linearGradient id="SVGID_2_" gradientUnits="userSpaceOnUse" x1="-238.2246" y1="-152.1748" x2="-230.2861" y2="-152.1748" gradientTransform="matrix(4.4867 0 0 4.4867 1091.0586 734.0277)">
						<stop  offset="0" style="stop-color:#379500"/>
						<stop  offset="0.5569" style="stop-color:#0EDD5C"/>
						<stop  offset="1" style="stop-color:#307601"/>
					</linearGradient>
					<path fill-rule="evenodd" clip-rule="evenodd" fill="url(#SVGID_2_)" d="M28.05,20.42c-0.34,0-0.67,0-1.01,0
						c-1.65,0-3.22,0.22-4.71,0.67l-0.11-0.34c1.03-0.39,2.11-0.72,3.25-1.01c1.2-0.3,2.47-0.52,3.81-0.67c0.3,0,0.6,0,0.9,0
						c7.03,0,13.24,3.22,18.62,9.65c5.38,6.43,8.38,14.21,8.97,23.33c0.45,8.97-1.65,16.68-6.28,23.11c-2.6,3.9-5.67,6.67-9.2,8.3
						c2.36-1.73,4.53-4.05,6.51-6.95c2.71-4.02,4.47-8.54,5.27-13.57l0.56-9.53l-0.78-6.62c-1.24-6.32-3.81-11.89-7.74-16.71
						c-4.79-6.13-10.24-9.35-16.38-9.65c-0.45,0-0.9,0-1.35,0H28.05z"/>
					
						<linearGradient id="SVGID_3_" gradientUnits="userSpaceOnUse" x1="-241.8672" y1="-151.8594" x2="-231.4454" y2="-151.8594" gradientTransform="matrix(1.3346 4.2836 -4.2481 1.4486 -298.5474 1283.1627)">
						<stop  offset="0" style="stop-color:#379500"/>
						<stop  offset="0.5569" style="stop-color:#0EDD5C"/>
						<stop  offset="1" style="stop-color:#307601"/>
					</linearGradient>
					<path fill-rule="evenodd" clip-rule="evenodd" fill="url(#SVGID_3_)" d="M42.29,83.46c-0.28,0.24-0.58,0.46-0.9,0.67
						c-1.94,0.6-3.96,0.9-6.06,0.9c-0.45,0-0.82,0-1.12,0c-0.9,0-1.72-0.07-2.47-0.23c-1.2-0.3-2.32-0.6-3.36-0.9
						c-0.6-0.3-1.2-0.52-1.79-0.67c-2.99-1.65-5.76-3.89-8.3-6.73c-0.45-0.45-0.82-0.9-1.12-1.35c-2.39-2.84-4.19-5.98-5.38-9.42
						c-0.15-0.3-0.23-0.52-0.23-0.67c-1.65-3.89-2.62-8.08-2.92-12.56c0-0.15,0-0.3,0-0.45v-0.22c-0.45-8.97,1.57-16.68,6.06-23.11
						c0.15-0.3,0.37-0.6,0.67-0.9c0-0.15,0.07-0.3,0.22-0.45c0.9-1.05,1.72-1.94,2.47-2.69c1.35-1.2,2.69-2.24,4.04-3.14
						c0.6-0.15,1.2-0.3,1.79-0.45c1.38-0.42,2.77-0.64,4.15-0.67h0.34c0.45,0,0.9,0,1.35,0c6.13,0.3,11.59,3.51,16.38,9.65
						c3.93,4.82,6.5,10.39,7.74,16.71l0.78,6.62l-0.56,9.53c-0.8,5.03-2.56,9.55-5.27,13.57C46.82,79.41,44.65,81.72,42.29,83.46z"
						/>
					
						<linearGradient id="SVGID_4_" gradientUnits="userSpaceOnUse" x1="-237.9277" y1="-156.8452" x2="-235.075" y2="-144.7459" gradientTransform="matrix(4.4867 0 0 4.4867 1091.0586 734.0277)">
						<stop  offset="0" style="stop-color:#607066"/>
						<stop  offset="0.4314" style="stop-color:#ACBFA3"/>
						<stop  offset="1" style="stop-color:#57625A"/>
					</linearGradient>
					<path fill-rule="evenodd" clip-rule="evenodd" fill="url(#SVGID_4_)" d="M22.33,21.09c-0.6,0.15-1.2,0.3-1.79,0.45
						c0.54-0.27,1.1-0.53,1.68-0.79L22.33,21.09z"/>
				</g>
			</g>
			<g>
				
					<radialGradient id="SVGID_5_" cx="-238.0498" cy="-153.3501" r="8.3" gradientTransform="matrix(4.4867 0 0 4.4867 1091.0586 734.0277)" gradientUnits="userSpaceOnUse">
					<stop  offset="0" style="stop-color:#03DD6C"/>
					<stop  offset="1" style="stop-color:#53DE00"/>
				</radialGradient>
				<path fill-rule="evenodd" clip-rule="evenodd" fill="url(#SVGID_5_)" d="M25.92,25.13c4.78,0,9.2,2.77,13.23,8.3
					c4.34,5.38,6.81,11.89,7.41,19.52c0.6,7.63-0.6,14.13-3.59,19.51c-2.99,5.39-6.95,8.08-11.89,8.08c-4.79,0-9.27-2.69-13.46-8.08
					c-4.19-5.38-6.58-11.89-7.18-19.51c-0.6-7.63,0.52-14.13,3.36-19.52C16.95,27.9,20.98,25.13,25.92,25.13z"/>
			</g>
		</g>
		<g>
			
				<radialGradient id="SVGID_6_" cx="-237.1763" cy="-154.5024" r="4.8157" gradientTransform="matrix(1.7702 4.1227 -1.677 0.7919 201.0174 1142.5685)" gradientUnits="userSpaceOnUse">
				<stop  offset="0" style="stop-color:#FFFFFF"/>
				<stop  offset="0.0863" style="stop-color:#FFFFFF"/>
				<stop  offset="0.1804" style="stop-color:#FFFFFF;stop-opacity:0.502"/>
				<stop  offset="0.3412" style="stop-color:#FFFFFF;stop-opacity:0.1294"/>
				<stop  offset="0.4549" style="stop-color:#FEFEFE;stop-opacity:0.0706"/>
				<stop  offset="0.8" style="stop-color:#FEFEFE;stop-opacity:0"/>
				<stop  offset="1" style="stop-color:#FAFAFA;stop-opacity:0"/>
			</radialGradient>
			<path fill-rule="evenodd" clip-rule="evenodd" fill="url(#SVGID_6_)" d="M46.33,38.14c2.54,4.94,3.29,10.32,2.24,16.15
				c0.15,3.89-0.6,6.36-2.24,7.4c-1.49,0.75-3.59-0.52-6.28-3.81c-2.84-3.14-5.38-7.18-7.63-12.11c-2.24-5.53-3.51-10.32-3.81-14.36
				c-0.75-4.49-0.3-7.1,1.35-7.85c1.65-0.6,4.19,0.37,7.63,2.92C41.02,29.32,43.94,33.21,46.33,38.14z"/>
		</g>
	</g>
</g>
<g id="Layer_2">
</g>
</svg>
