<?xml version="1.0" encoding="utf-8"?>
<!-- Generator: Adobe Illustrator 16.0.0, SVG Export Plug-In . SVG Version: 6.00 Build 0)  -->
<!DOCTYPE svg PUBLIC "-//W3C//DTD SVG 1.1//EN" "http://www.w3.org/Graphics/SVG/1.1/DTD/svg11.dtd">
<svg version="1.1" xmlns="http://www.w3.org/2000/svg" xmlns:xlink="http://www.w3.org/1999/xlink" x="0px" y="0px" width="243px"
	 height="332px" viewBox="0 0 243 332" enable-background="new 0 0 243 332" xml:space="preserve">
<g id="Blue">
</g>
<g id="Green">
</g>
<g id="Red">
	<g>
		<g>
			<g>
				
					<radialGradient id="SVGID_1_" cx="-47.9609" cy="-241.6001" r="28.7512" gradientTransform="matrix(0.6904 -0.0208 1.543620e-003 0.0513 113.8557 20.9704)" gradientUnits="userSpaceOnUse">
					<stop  offset="0" style="stop-color:#CAC902"/>
					<stop  offset="0.4078" style="stop-color:#E75A01"/>
					<stop  offset="1" style="stop-color:#FF0000"/>
				</radialGradient>
				<path fill-rule="evenodd" clip-rule="evenodd" fill="url(#SVGID_1_)" d="M100.99,9.01c-14.18,1.84-27.93,2.22-41.23,1.14v-0.07
					c0.07-0.16,0.66-0.32,1.76-0.48c0.67-0.23,2.23-0.44,4.7-0.62c0.35-0.02,0.73-0.05,1.14-0.07l1.17-0.1
					c2.74-0.18,5.47-0.3,8.18-0.35c2.74-0.05,6.37-0.07,10.88-0.07h0.38c0.09,0,0.18,0,0.28,0l1.31,0.03l0.04-0.03l4.18,0.03
					c0.64,0,1.05,0,1.21,0c3.29,0.11,5.25,0.29,5.87,0.52c0.02,0.02,0.06,0.03,0.1,0.03L100.99,9.01z"/>
				
					<linearGradient id="SVGID_2_" gradientUnits="userSpaceOnUse" x1="-48.5322" y1="-318.0537" x2="-46.1693" y2="-215.5806" gradientTransform="matrix(0.6907 0 0 0.6907 113.4977 176.4341)">
					<stop  offset="0" style="stop-color:#F91500"/>
					<stop  offset="1" style="stop-color:#F81702;stop-opacity:0"/>
				</linearGradient>
				<path fill-rule="evenodd" clip-rule="evenodd" fill="url(#SVGID_2_)" d="M100.99,9.01c0.02-0.02,0.06-0.03,0.1-0.03l21.55,31.84
					l-81.47-0.62l18.06-30.11c0.18,0.02,0.36,0.05,0.52,0.07C73.06,11.23,86.81,10.85,100.99,9.01z"/>
				
					<linearGradient id="SVGID_3_" gradientUnits="userSpaceOnUse" x1="-128.2363" y1="-23.4331" x2="165.4132" y2="-23.4331" gradientTransform="matrix(0.6907 0 0 0.6907 113.4977 176.4341)">
					<stop  offset="0" style="stop-color:#462919"/>
					<stop  offset="0.2667" style="stop-color:#281D17"/>
					<stop  offset="0.4471" style="stop-color:#524F4A"/>
					<stop  offset="0.6824" style="stop-color:#301F18"/>
					<stop  offset="0.7725" style="stop-color:#392117"/>
					<stop  offset="0.9098" style="stop-color:#392318"/>
					<stop  offset="1" style="stop-color:#1A130D"/>
				</linearGradient>
				<path fill-rule="evenodd" clip-rule="evenodd" fill="url(#SVGID_3_)" d="M87.73,143.52c0.48-0.05,1.09-0.01,1.83,0.1
					l139.14,18.03c0.28,0.05,0.44,0.11,0.48,0.21c0,0.02,0,0.05,0,0.07l-0.03,0.03c-0.02,0.05-0.07,0.08-0.14,0.1
					c-0.14,0.09-0.38,0.18-0.72,0.28l-26.11,6.7c-0.88,0.28-1.77,0.32-2.69,0.14h-0.1l-19.75-2.94c-1.59-0.32-3.29-0.36-5.11-0.1
					c-0.05,0-0.1,0.01-0.17,0.03l-43.65,10.64c-1.08,0.23-2.04,0.24-2.87,0.04c-1.54-0.25-3.1-0.51-4.66-0.76
					c-22.86-3.94-45.77-7.9-68.73-11.88c-9.9-1.73-19.81-3.45-29.73-5.18c-4.54-0.81-9.07-1.61-13.61-2.42
					c-0.07,0-0.14-0.01-0.21-0.03c-0.16-0.02-0.32-0.05-0.48-0.07c-0.18-0.05-0.32-0.09-0.41-0.14c-0.07-0.05-0.12-0.08-0.14-0.1
					c-0.09-0.21,0.38-0.41,1.42-0.62L87.73,143.52z"/>
				
					<linearGradient id="SVGID_4_" gradientUnits="userSpaceOnUse" x1="95.1592" y1="-58.2988" x2="111.8353" y2="-56.4586" gradientTransform="matrix(0.6907 0 0 0.6907 113.4977 176.4341)">
					<stop  offset="0" style="stop-color:#612F18"/>
					<stop  offset="1" style="stop-color:#6F2F16"/>
				</linearGradient>
				<polygon fill-rule="evenodd" clip-rule="evenodd" fill="url(#SVGID_4_)" points="159.42,135.13 171.44,132.61 212.47,136.89 
					198.03,139.1 182.21,139.41 159.42,136.93 				"/>
			</g>
			<g>
				<g>
					
						<linearGradient id="SVGID_5_" gradientUnits="userSpaceOnUse" x1="129.7744" y1="188.5918" x2="115.9179" y2="182.5309" gradientTransform="matrix(0.6907 0 0 0.6907 113.4977 176.4341)">
						<stop  offset="7.843138e-003" style="stop-color:#AE7A52"/>
						<stop  offset="0.5647" style="stop-color:#BE967C"/>
						<stop  offset="1" style="stop-color:#9C9D97;stop-opacity:0"/>
					</linearGradient>
					<path fill-rule="evenodd" clip-rule="evenodd" fill="url(#SVGID_5_)" d="M229.08,310.29l0.04,0.03l1.04,0.28
						c0.09,0.05,0.2,0.08,0.31,0.1c0.23,0.12,0.44,0.24,0.62,0.38l-12.88,7.67c-0.46-0.09-0.75-0.17-0.86-0.24h-0.03l-19.82-6.67
						h-0.03l-3.45-1.21l1.42-0.48c0.07-0.02,0.13-0.05,0.17-0.07c1.06-0.42,1.68-0.97,1.87-1.66v-7.67L229.08,310.29z"/>
					
						<linearGradient id="SVGID_6_" gradientUnits="userSpaceOnUse" x1="134.3535" y1="199.8096" x2="133.0316" y2="203.8611" gradientTransform="matrix(0.6907 0 0 0.6907 113.4977 176.4341)">
						<stop  offset="7.843138e-003" style="stop-color:#AE7A52"/>
						<stop  offset="0.5647" style="stop-color:#BE967C"/>
						<stop  offset="1" style="stop-color:#9C9D97;stop-opacity:0"/>
					</linearGradient>
					<path fill-rule="evenodd" clip-rule="evenodd" fill="url(#SVGID_6_)" d="M218.2,318.75l-0.1,0.07l1.07,0.1
						c0.78,0.97,1.21,2.04,1.28,3.21l-23-7.18c-1.11-0.41-3.34-1.24-6.7-2.49h-0.03v-0.66h-0.07v-0.45c0.02-0.02,0.06-0.04,0.1-0.04
						c0.6-0.11,1.35-0.26,2.25-0.45c0.12-0.02,0.24-0.05,0.38-0.07h0.03c0.21-0.07,0.39-0.13,0.55-0.17h0.04l3.45,1.21h0.03
						l19.82,6.67h0.03C217.45,318.58,217.74,318.66,218.2,318.75z"/>
					
						<linearGradient id="SVGID_7_" gradientUnits="userSpaceOnUse" x1="170.2412" y1="197.5703" x2="172.0131" y2="200.5222" gradientTransform="matrix(0.6907 0 0 0.6907 113.4977 176.4341)">
						<stop  offset="7.843138e-003" style="stop-color:#A97650"/>
						<stop  offset="0.5647" style="stop-color:#9C806A"/>
						<stop  offset="1" style="stop-color:#6A615A"/>
					</linearGradient>
					<polygon fill-rule="evenodd" clip-rule="evenodd" fill="url(#SVGID_7_)" points="229.08,310.29 230.15,310.6 229.11,310.33 
											"/>
					
						<linearGradient id="SVGID_8_" gradientUnits="userSpaceOnUse" x1="161.0303" y1="200.21" x2="164.5262" y2="205.8875" gradientTransform="matrix(0.6907 0 0 0.6907 113.4977 176.4341)">
						<stop  offset="7.843138e-003" style="stop-color:#AE7A52"/>
						<stop  offset="0.5647" style="stop-color:#BE967C"/>
						<stop  offset="1" style="stop-color:#9C9D97;stop-opacity:0"/>
					</linearGradient>
					<path fill-rule="evenodd" clip-rule="evenodd" fill="url(#SVGID_8_)" d="M220.45,322.14c-0.07-1.17-0.5-2.25-1.28-3.21
						l-1.07-0.1l0.1-0.07l12.88-7.67c0.07,0.02,0.13,0.06,0.17,0.1c1.13,0.78,1.75,1.89,1.87,3.32l-7.15,4.32
						C223.25,320.94,221.41,322.05,220.45,322.14z"/>
				</g>
				<g>
					<g>
						<path fill-rule="evenodd" clip-rule="evenodd" fill="#503727" d="M212.09,309.67c0.23-0.12,0.5-0.21,0.79-0.28
							c0.21-0.05,0.43-0.09,0.66-0.14c1.22-0.23,2.64-0.25,4.25-0.07c1.89,0.18,3.49,0.6,4.8,1.24c0.62,0.32,1.09,0.64,1.42,0.97
							c0.02,0.02,0.05,0.05,0.07,0.07c0.32,0.35,0.48,0.69,0.48,1.04c0,0.02,0,0.05,0,0.07c-0.02,0.25-0.13,0.48-0.31,0.69
							c-0.32,0.37-0.91,0.68-1.76,0.93c-0.64,0.16-1.32,0.26-2.04,0.31c0.05-0.02,0.09-0.04,0.14-0.04l1.55-0.28
							c0.02,0,0.06-0.01,0.1-0.03c0.55-0.14,0.99-0.31,1.31-0.52c0.07-0.05,0.15-0.1,0.24-0.17c0.28-0.25,0.41-0.54,0.41-0.86
							c0.02-0.69-0.6-1.36-1.87-2c-1.27-0.62-2.8-1.02-4.59-1.21c-1.68-0.21-3.14-0.16-4.39,0.14c-0.09,0.02-0.17,0.05-0.24,0.07
							c-1.31,0.37-1.98,0.9-2,1.59c-0.02,0.34,0.13,0.68,0.45,1c0.3,0.34,0.77,0.68,1.42,1c0.02,0,0.05,0.01,0.07,0.03
							c0.18,0.07,0.37,0.15,0.55,0.24c-0.28-0.12-0.55-0.23-0.83-0.34c-1.29-0.64-1.95-1.31-1.97-2c0-0.02,0-0.05,0-0.07
							c0.02-0.42,0.26-0.78,0.72-1.11C211.7,309.86,211.88,309.76,212.09,309.67z"/>
						
							<radialGradient id="SVGID_9_" cx="149.9883" cy="197.4502" r="6.2654" gradientTransform="matrix(0.0219 -0.6904 1.3146 0.0417 -45.7449 408.1336)" gradientUnits="userSpaceOnUse">
							<stop  offset="0" style="stop-color:#C2B9AE"/>
							<stop  offset="0.3529" style="stop-color:#AD856B"/>
							<stop  offset="1" style="stop-color:#A47451"/>
						</radialGradient>
						<path fill-rule="evenodd" clip-rule="evenodd" fill="url(#SVGID_9_)" d="M214.57,313.82c-0.07-0.02-0.15-0.05-0.24-0.07
							l-0.31-0.1c-0.12-0.05-0.22-0.09-0.31-0.14c-0.05,0-0.08-0.01-0.1-0.04c-0.18-0.09-0.37-0.17-0.55-0.24
							c-0.02-0.02-0.05-0.03-0.07-0.03c-0.65-0.32-1.12-0.66-1.42-1c-0.32-0.32-0.47-0.66-0.45-1c0.02-0.69,0.69-1.22,2-1.59
							c0.07-0.02,0.15-0.05,0.24-0.07c1.24-0.3,2.71-0.35,4.39-0.14c1.8,0.18,3.33,0.59,4.59,1.21c1.27,0.64,1.89,1.31,1.87,2
							c0,0.32-0.14,0.61-0.41,0.86c-0.09,0.07-0.17,0.13-0.24,0.17c-0.32,0.21-0.76,0.38-1.31,0.52c-0.05,0.02-0.08,0.03-0.1,0.03
							l-1.55,0.28c-0.05,0-0.09,0.01-0.14,0.04c-0.02-0.02-0.05-0.02-0.07,0c-0.11,0-0.23,0-0.34,0l-0.86,0.04
							c-0.48-0.02-1-0.06-1.55-0.1C216.49,314.3,215.47,314.09,214.57,313.82z M223.69,312.74c0.09-0.16,0.14-0.31,0.14-0.45
							c0.02-0.55-0.53-1.09-1.66-1.62c-1.08-0.53-2.43-0.9-4.04-1.1c-1.59-0.21-2.95-0.18-4.08,0.07c-0.42,0.07-0.75,0.16-1,0.28
							c-0.07,0.02-0.13,0.05-0.17,0.07c-0.07,0.05-0.13,0.09-0.17,0.14c-0.18,0.14-0.3,0.3-0.35,0.48c-0.02-0.02-0.06-0.03-0.1-0.03
							c-0.07-0.02-0.13-0.02-0.17,0c-0.02,0-0.05,0.01-0.07,0.03c-0.02,0.09-0.04,0.17-0.04,0.24c0,0.3,0.15,0.59,0.45,0.86
							c0.25,0.28,0.68,0.55,1.28,0.83c1.13,0.53,2.5,0.91,4.11,1.14h0.03c1.5,0.18,2.81,0.17,3.94-0.04c0.09,0,0.17-0.01,0.24-0.04
							h0.03c0.51-0.11,0.9-0.25,1.17-0.41c0.21-0.12,0.37-0.24,0.48-0.38c0.02-0.02,0.02-0.05,0-0.07H223.69z"/>
						<path fill-rule="evenodd" clip-rule="evenodd" fill="#B2927C" d="M223.69,312.74h0.03c0.02,0.02,0.02,0.05,0,0.07
							c-0.12,0.14-0.28,0.26-0.48,0.38c-0.28,0.16-0.67,0.3-1.17,0.41h-0.03c-0.07,0.02-0.15,0.04-0.24,0.04
							c-1.13,0.21-2.44,0.22-3.94,0.04h-0.03c-1.61-0.23-2.98-0.61-4.11-1.14c-0.6-0.28-1.02-0.55-1.28-0.83
							c-0.3-0.28-0.45-0.56-0.45-0.86c0-0.07,0.01-0.15,0.04-0.24c0.02-0.02,0.05-0.03,0.07-0.03c0.05-0.02,0.1-0.02,0.17,0
							c0.05,0,0.08,0.01,0.1,0.03c0.02,0.02,0.03,0.05,0.03,0.07c-0.02,0.07-0.05,0.14-0.07,0.21c0,0.07,0.01,0.15,0.03,0.24
							c0.02,0.07,0.06,0.13,0.1,0.17c0,0.02,0.01,0.05,0.03,0.07l0.04,0.04v0.03h0.03v0.03h0.03v0.03l0.04,0.03h0.03v0.04
							c0.02,0,0.04,0.01,0.04,0.04c0.02,0,0.03,0.01,0.03,0.03c0.25,0.25,0.66,0.51,1.21,0.76c0.1,0.05,0.21,0.1,0.31,0.14
							l0.35,0.14l2.11,0.62l1,0.17c0.07,0,0.14,0.01,0.21,0.04c1.43,0.16,2.68,0.15,3.76-0.04c0.04-0.02,0.11-0.03,0.21-0.03
							c0.02,0,0.05,0,0.07,0c0.42-0.09,0.75-0.22,1-0.38c0.18-0.09,0.32-0.2,0.41-0.31c0.02-0.02,0.06-0.05,0.1-0.07
							c0.05-0.02,0.09-0.02,0.14,0C223.65,312.7,223.67,312.72,223.69,312.74z"/>
						<path fill-rule="evenodd" clip-rule="evenodd" fill="#A47451" d="M214.26,312.54c-0.1-0.04-0.19-0.09-0.28-0.14
							c-0.55-0.25-0.97-0.51-1.24-0.76c0-0.02-0.01-0.03-0.03-0.03c0-0.02-0.01-0.04-0.04-0.04v-0.04h-0.03l-0.04-0.03v-0.03h-0.03
							v-0.03h-0.03v-0.03l-0.04-0.04c-0.02-0.02-0.03-0.05-0.03-0.07c-0.05-0.05-0.08-0.1-0.1-0.17c-0.02-0.09-0.03-0.17-0.03-0.24
							c0.02-0.07,0.05-0.14,0.07-0.21c0-0.02-0.01-0.05-0.03-0.07c0.05-0.18,0.16-0.35,0.35-0.48c0.05-0.05,0.1-0.09,0.17-0.14
							c0.05-0.02,0.1-0.05,0.17-0.07c0.25-0.12,0.59-0.21,1-0.28c1.13-0.25,2.49-0.28,4.08-0.07c1.61,0.21,2.96,0.58,4.04,1.1
							c1.13,0.53,1.68,1.07,1.66,1.62c0,0.14-0.05,0.29-0.14,0.45c-0.02-0.02-0.05-0.05-0.07-0.07c-0.05-0.02-0.09-0.02-0.14,0
							c-0.05,0.02-0.08,0.05-0.1,0.07c-0.09,0.12-0.23,0.22-0.41,0.31c-0.25,0.16-0.59,0.29-1,0.38c-0.02,0-0.05,0-0.07,0
							c-0.09,0-0.16,0.01-0.21,0.03c-1.08,0.18-2.34,0.2-3.76,0.04c-0.07-0.02-0.14-0.04-0.21-0.04l-1-0.17l-2.11-0.62
							L214.26,312.54z"/>
						<path fill-rule="evenodd" clip-rule="evenodd" fill="#FFFFFF" fill-opacity="0.5608" d="M212.09,309.67
							c0.28-0.18,0.64-0.33,1.11-0.45c0.21-0.05,0.41-0.1,0.62-0.17c1.15-0.21,2.5-0.23,4.04-0.07c1.82,0.21,3.35,0.62,4.59,1.24
							c0.65,0.35,1.12,0.68,1.42,1c0.05,0.05,0.09,0.1,0.14,0.17c-0.32-0.32-0.79-0.65-1.42-0.97c-1.31-0.64-2.91-1.06-4.8-1.24
							c-1.61-0.18-3.03-0.16-4.25,0.07c-0.23,0.05-0.45,0.09-0.66,0.14C212.58,309.46,212.32,309.56,212.09,309.67z"/>
						
							<radialGradient id="SVGID_10_" cx="149.9873" cy="197.4502" r="6.265" gradientTransform="matrix(0.0219 -0.6904 1.3146 0.0417 -45.7456 408.133)" gradientUnits="userSpaceOnUse">
							<stop  offset="0" style="stop-color:#CBCCC7"/>
							<stop  offset="0.3529" style="stop-color:#C0C1BD"/>
							<stop  offset="1" style="stop-color:#908D8D"/>
						</radialGradient>
						<path fill-rule="evenodd" clip-rule="evenodd" fill="url(#SVGID_10_)" d="M212.74,311.64c0.28,0.25,0.69,0.51,1.24,0.76
							c0.09,0.05,0.18,0.1,0.28,0.14c-0.1-0.04-0.21-0.09-0.31-0.14C213.4,312.15,213,311.89,212.74,311.64z"/>
						
							<linearGradient id="SVGID_11_" gradientUnits="userSpaceOnUse" x1="-1065.3125" y1="-137.8203" x2="-1040.0831" y2="-137.8203" gradientTransform="matrix(-0.6735 -0.1533 0.4559 -0.6046 -428.9493 69.6902)">
							<stop  offset="0" style="stop-color:#AAAAAA;stop-opacity:0.9412"/>
							<stop  offset="0.2667" style="stop-color:#4C4C4C;stop-opacity:0"/>
							<stop  offset="0.5412" style="stop-color:#090909;stop-opacity:0"/>
							<stop  offset="0.8667" style="stop-color:#080808;stop-opacity:0"/>
							<stop  offset="1" style="stop-color:#060606;stop-opacity:0.3608"/>
						</linearGradient>
						<path fill-rule="evenodd" clip-rule="evenodd" fill="url(#SVGID_11_)" d="M214.33,313.75c0.09,0.02,0.17,0.05,0.24,0.07h-0.03
							C214.47,313.79,214.4,313.77,214.33,313.75z"/>
					</g>
				</g>
			</g>
		</g>
		<g>
			<g>
				<path fill-rule="evenodd" clip-rule="evenodd" d="M103.09,151.6c2.42,0.3,4.7,0.65,6.84,1.04c2.23,0.41,4.08,0.85,5.53,1.31
					c1.31,0.41,2.31,0.84,3,1.28c0.62,0.39,1,0.81,1.14,1.24c0.05,0.12,0.07,0.23,0.07,0.35c0,0.92-1.16,1.74-3.49,2.45
					c-0.48,0.16-1.02,0.31-1.62,0.45c-1.31,0.32-2.85,0.61-4.63,0.86c-0.14,0.02-0.26,0.05-0.38,0.07
					c-1.68,0.25-3.44,0.47-5.28,0.66c-4.35,0.39-9.19,0.59-14.5,0.59c-0.14,0-0.26,0-0.38,0c-0.97-0.02-1.95-0.03-2.94-0.03
					c-3.13-0.07-6.1-0.2-8.91-0.38c-0.64-0.05-1.27-0.08-1.87-0.1c-0.83-0.07-1.65-0.14-2.45-0.21c-3.73-0.37-7.15-0.85-10.26-1.45
					c-1.61-0.3-3.02-0.61-4.21-0.93c-1.13-0.3-2.08-0.6-2.87-0.9c-1.75-0.71-2.62-1.48-2.62-2.31c0-0.74,0.73-1.4,2.18-2
					c1.61-0.67,4.12-1.27,7.53-1.8c2.72-0.39,5.65-0.69,8.81-0.9c4.19-0.28,8.79-0.38,13.81-0.31c0.3,0,0.59,0,0.86,0
					C92.6,150.68,98.14,151.03,103.09,151.6z M104.58,157.03c0.44-0.23,0.71-0.47,0.83-0.73c0-0.05,0.01-0.1,0.04-0.17
					c0-0.02,0-0.05,0-0.07c0-0.88-1.89-1.65-5.66-2.31c-0.05-0.02-0.1-0.03-0.14-0.03c0.03,0.01,0.07,0.02,0.1,0.03
					c3.78,0.67,5.66,1.44,5.66,2.31c0,0.02,0,0.06,0,0.1c-0.02,0.05-0.03,0.09-0.03,0.14c-0.11,0.25-0.39,0.5-0.83,0.73
					c-0.05,0.02-0.08,0.05-0.1,0.07c-0.07,0.03-0.13,0.06-0.19,0.09c0.06-0.02,0.14-0.05,0.22-0.09
					C104.5,157.07,104.53,157.05,104.58,157.03z M99.75,158.27h0.03c0.04-0.02,0.08-0.03,0.12-0.03
					C99.84,158.23,99.79,158.25,99.75,158.27z"/>
			</g>
			<g>
				<g>
					
						<linearGradient id="SVGID_12_" gradientUnits="userSpaceOnUse" x1="-18.2861" y1="-35.7339" x2="-14.1759" y2="-22.7621" gradientTransform="matrix(0.6907 0 0 0.6907 113.4977 176.4341)">
						<stop  offset="0" style="stop-color:#4A2916"/>
						<stop  offset="0.1098" style="stop-color:#4A2916"/>
						<stop  offset="0.1922" style="stop-color:#60311D"/>
						<stop  offset="0.349" style="stop-color:#4E2E23"/>
						<stop  offset="0.6627" style="stop-color:#46382F"/>
						<stop  offset="1" style="stop-color:#5C4942"/>
					</linearGradient>
					<path fill-rule="evenodd" clip-rule="evenodd" fill="url(#SVGID_12_)" d="M115.18,153.81l-10.08,1.9v-0.03l-14.92,0.55
						l-0.17,0.03l-0.07-0.03l-0.14,0.03l-0.24-0.03h-0.93l9.08-2.9h0.21c0.05,0,0.09,0.01,0.14,0.03h0.04l4.73-1.9
						c2.42,0.28,4.7,0.62,6.84,1.04C111.87,152.92,113.71,153.35,115.18,153.81z"/>
					
						<linearGradient id="SVGID_13_" gradientUnits="userSpaceOnUse" x1="-35.624" y1="-34.0259" x2="-23.3735" y2="-32.3547" gradientTransform="matrix(0.6907 0 0 0.6907 113.4977 176.4341)">
						<stop  offset="0" style="stop-color:#974A12"/>
						<stop  offset="0.349" style="stop-color:#913E12"/>
						<stop  offset="1" style="stop-color:#4A2916"/>
					</linearGradient>
					<path fill-rule="evenodd" clip-rule="evenodd" fill="url(#SVGID_13_)" d="M85.31,150.43c0.3,0,0.59,0,0.86,0
						c6.15,0.11,11.7,0.46,16.65,1.04l-4.73,1.9h-0.04c-0.05-0.02-0.09-0.03-0.14-0.03h-0.21l-9.08,2.9h-0.04
						c-0.02-0.02-0.05-0.02-0.07,0l-0.38-0.03L88,152.57c-0.07,0-0.13,0-0.17,0h-0.07L85.31,150.43z"/>
					
						<linearGradient id="SVGID_14_" gradientUnits="userSpaceOnUse" x1="-50.5518" y1="-31.4204" x2="-43.3798" y2="-38.8492" gradientTransform="matrix(0.6907 0 0 0.6907 113.4977 176.4341)">
						<stop  offset="0" style="stop-color:#562B18"/>
						<stop  offset="0.9098" style="stop-color:#954B1A"/>
						<stop  offset="1" style="stop-color:#974A12"/>
					</linearGradient>
					<path fill-rule="evenodd" clip-rule="evenodd" fill="url(#SVGID_14_)" d="M87.28,155.99l-11.4-3.07l-4.42-2.18
						c4.37-0.28,8.99-0.38,13.85-0.31l2.45,2.14h0.07c0.05,0,0.1,0,0.17,0l0.14,3.63l-0.66-0.17l0.1-0.03h-0.28H87.28z"/>
					
						<linearGradient id="SVGID_15_" gradientUnits="userSpaceOnUse" x1="-12.623" y1="-31.4429" x2="-12.6539" y2="-25.7679" gradientTransform="matrix(0.6907 0 0 0.6907 113.4977 176.4341)">
						<stop  offset="0" style="stop-color:#48352B"/>
						<stop  offset="1" style="stop-color:#4C4030"/>
					</linearGradient>
					<path fill-rule="evenodd" clip-rule="evenodd" fill="url(#SVGID_15_)" d="M90.18,156.27v-0.03l14.92-0.55v0.03l10.08-1.9
						c1.29,0.41,2.29,0.84,3.01,1.28c0.62,0.39,1,0.81,1.14,1.24c0.02,0.12,0.04,0.23,0.04,0.35c0,0.92-1.15,1.74-3.45,2.45
						c-0.51,0.16-1.06,0.31-1.66,0.45l-10.46-2.49c0.05,0,0.09-0.01,0.14-0.03h-0.14L90.18,156.27z"/>
					
						<linearGradient id="SVGID_16_" gradientUnits="userSpaceOnUse" x1="-18.2607" y1="-24.7515" x2="-16.7346" y2="-29.2261" gradientTransform="matrix(0.6907 0 0 0.6907 113.4977 176.4341)">
						<stop  offset="0" style="stop-color:#3F1E15"/>
						<stop  offset="0.298" style="stop-color:#2A130B"/>
						<stop  offset="0.5686" style="stop-color:#532A16"/>
						<stop  offset="0.8549" style="stop-color:#452216"/>
						<stop  offset="1" style="stop-color:#4C4030"/>
					</linearGradient>
					<path fill-rule="evenodd" clip-rule="evenodd" fill="url(#SVGID_16_)" d="M114.25,159.58c-1.29,0.32-2.82,0.61-4.59,0.86
						c-0.14,0.02-0.26,0.05-0.38,0.07c-1.68,0.25-3.44,0.47-5.29,0.66l-6.29-2.8c0.02,0,0.05,0,0.07,0l-9.12-2.04l0.03-0.03
						l-0.21-0.03l0.1-0.03h0.04h0.93v0.03h-0.45c-0.07,0-0.13,0.01-0.17,0.03l1.24-0.03l13.61,0.79v0.03L114.25,159.58z"/>
					
						<linearGradient id="SVGID_17_" gradientUnits="userSpaceOnUse" x1="-24.0781" y1="-27.1563" x2="-30.3085" y2="-19.0607" gradientTransform="matrix(0.6907 0 0 0.6907 113.4977 176.4341)">
						<stop  offset="0" style="stop-color:#3F1E15"/>
						<stop  offset="0.3529" style="stop-color:#B54700"/>
						<stop  offset="0.6118" style="stop-color:#D96C0F"/>
						<stop  offset="0.7765" style="stop-color:#C67138"/>
						<stop  offset="1" style="stop-color:#301713"/>
					</linearGradient>
					<path fill-rule="evenodd" clip-rule="evenodd" fill="url(#SVGID_17_)" d="M89.11,161.76l-3-2.83c0.12,0,0.21,0,0.28,0
						l1.76-2.66l0.21,0.03h0.1l0.21,0.03l9.12,2.04c-0.02,0-0.05,0-0.07,0l6.29,2.8c-4.37,0.39-9.21,0.59-14.5,0.59
						C89.35,161.76,89.22,161.76,89.11,161.76z"/>
					
						<linearGradient id="SVGID_18_" gradientUnits="userSpaceOnUse" x1="-62.0986" y1="-28.125" x2="-62.294" y2="-33.4002" gradientTransform="matrix(0.6907 0 0 0.6907 113.4977 176.4341)">
						<stop  offset="0" style="stop-color:#49291C"/>
						<stop  offset="0.5647" style="stop-color:#512F21"/>
						<stop  offset="1" style="stop-color:#5F2615"/>
					</linearGradient>
					<path fill-rule="evenodd" clip-rule="evenodd" fill="url(#SVGID_18_)" d="M86.83,156.02l-19.2,0.59
						c-0.07-0.05-0.13-0.08-0.17-0.1l-9.01,2.14c-1.13-0.3-2.07-0.6-2.83-0.9c-1.75-0.71-2.63-1.49-2.63-2.31
						c0-0.74,0.72-1.4,2.18-2l12.02,1.35c0.02-0.02,0.06-0.05,0.1-0.07c0.07-0.05,0.15-0.09,0.24-0.14l8.98,0.48h0.03l1.04,0.1
						c0.02,0,0.06,0,0.1,0l0.45,0.03c0.05,0,0.1,0.01,0.17,0.03l8.98,0.76h0.04v0.03H86.83z M88,156.2l-0.83-0.14l0.31-0.03
						l0.66,0.17H88z"/>
					
						<linearGradient id="SVGID_19_" gradientUnits="userSpaceOnUse" x1="-53.6904" y1="-21.1924" x2="-74.0857" y2="-46.3195" gradientTransform="matrix(0.6907 0 0 0.6907 113.4977 176.4341)">
						<stop  offset="0" style="stop-color:#622C10"/>
						<stop  offset="0.5176" style="stop-color:#49291C"/>
						<stop  offset="1" style="stop-color:#5C382A"/>
						<stop  offset="1" style="stop-color:#5F2615"/>
					</linearGradient>
					<path fill-rule="evenodd" clip-rule="evenodd" fill="url(#SVGID_19_)" d="M58.44,158.65l9.01-2.14c0.05,0.02,0.1,0.06,0.17,0.1
						l19.2-0.59l0.34,0.03l-13.68,2L72.95,161c-3.73-0.35-7.15-0.82-10.26-1.42C61.08,159.28,59.66,158.97,58.44,158.65z"/>
					
						<linearGradient id="SVGID_20_" gradientUnits="userSpaceOnUse" x1="-53.457" y1="-21.6396" x2="-36.7357" y2="-25.3786" gradientTransform="matrix(0.6907 0 0 0.6907 113.4977 176.4341)">
						<stop  offset="0" style="stop-color:#5A2515"/>
						<stop  offset="0.5176" style="stop-color:#592C26"/>
						<stop  offset="0.7373" style="stop-color:#45302B"/>
						<stop  offset="1" style="stop-color:#301713"/>
						<stop  offset="1" style="stop-color:#5F2615"/>
					</linearGradient>
					<path fill-rule="evenodd" clip-rule="evenodd" fill="url(#SVGID_20_)" d="M77.26,161.34l-0.66-2.94l0.24,0.03L88,156.2
						l0.14,0.03v0.03l-1.76,2.66c-0.07,0-0.16,0-0.28,0l3,2.83c-0.97-0.02-1.95-0.03-2.94-0.03
						C83.04,161.65,80.07,161.53,77.26,161.34z"/>
					
						<linearGradient id="SVGID_21_" gradientUnits="userSpaceOnUse" x1="-58.8623" y1="-25.6748" x2="-52.3623" y2="-25.6748" gradientTransform="matrix(0.6907 0 0 0.6907 113.4977 176.4341)">
						<stop  offset="0" style="stop-color:#5A2B13"/>
						<stop  offset="1" style="stop-color:#592517"/>
					</linearGradient>
					<path fill-rule="evenodd" clip-rule="evenodd" fill="url(#SVGID_21_)" d="M88,156.2l-11.16,2.24l-0.24-0.03l0.66,2.94
						c-0.65-0.05-1.28-0.08-1.9-0.1c-0.83-0.09-1.63-0.17-2.42-0.24l0.55-2.94l13.68-2L88,156.2z"/>
					
						<linearGradient id="SVGID_22_" gradientUnits="userSpaceOnUse" x1="-58.46" y1="-36.1919" x2="-64.7467" y2="-25.3594" gradientTransform="matrix(0.6907 0 0 0.6907 113.4977 176.4341)">
						<stop  offset="0" style="stop-color:#562B18"/>
						<stop  offset="0.1255" style="stop-color:#4F2612"/>
						<stop  offset="0.7255" style="stop-color:#5D2715"/>
						<stop  offset="1" style="stop-color:#562B18"/>
					</linearGradient>
					<path fill-rule="evenodd" clip-rule="evenodd" fill="url(#SVGID_22_)" d="M87.28,155.99l-8.98-0.76
						c-0.07-0.02-0.13-0.03-0.17-0.03l-0.45-0.03c-0.05,0-0.08,0-0.1,0c-0.14-0.02-0.28-0.05-0.41-0.07c-0.05,0-0.08,0-0.1,0
						l-0.41-0.03v-0.03h-0.1v0.03H76.5l-8.98-0.48c-0.09,0.05-0.17,0.09-0.24,0.14c-0.04,0.02-0.08,0.05-0.1,0.07l-12.02-1.35
						c1.61-0.69,4.12-1.29,7.53-1.8c2.69-0.41,5.62-0.71,8.77-0.9l4.42,2.18L87.28,155.99z"/>
				</g>
			</g>
			<g>
				<g>
					
						<radialGradient id="SVGID_23_" cx="-746.2036" cy="-18.7334" r="14.4726" gradientTransform="matrix(-0.6896 -0.0382 0 0.1426 -451.0657 129.4441)" gradientUnits="userSpaceOnUse">
						<stop  offset="0" style="stop-color:#954712;stop-opacity:0.2706"/>
						<stop  offset="1" style="stop-color:#944612;stop-opacity:0"/>
						<stop  offset="1" style="stop-color:#974A12;stop-opacity:0"/>
					</radialGradient>
					<path fill-rule="evenodd" clip-rule="evenodd" fill="url(#SVGID_23_)" d="M82.75,155.09c-0.12-0.05-0.27-0.09-0.45-0.14
						c-0.35-0.09-0.9-0.1-1.66-0.03c0.02,0.11-0.02,0.26-0.14,0.45l-5.32,0.48l-19.72,1.76l0.1-0.07c-0.25-0.14-0.48-0.27-0.69-0.38
						c-1.93-1.22-1.93-2.35,0-3.38c0.64-0.32,1.49-0.63,2.52-0.93l2.18-0.52l21.69,2.21C83.92,154.7,84.41,154.88,82.75,155.09z"/>
					
						<radialGradient id="SVGID_24_" cx="-7.5117" cy="-29.8501" r="15.325" gradientTransform="matrix(0.6907 0 0 0.1346 113.4977 159.8358)" gradientUnits="userSpaceOnUse">
						<stop  offset="0" style="stop-color:#954712;stop-opacity:0.4627"/>
						<stop  offset="1" style="stop-color:#944612;stop-opacity:0"/>
						<stop  offset="1" style="stop-color:#974A12;stop-opacity:0"/>
					</radialGradient>
					<path fill-rule="evenodd" clip-rule="evenodd" fill="url(#SVGID_24_)" d="M90.01,156.4l-1.59-0.14l0.9-0.14l23.17-3.04
						l2.31,0.62c4.88,1.61,5.54,3.22,1.97,4.83l0.1,0.07L90.01,156.4z"/>
					
						<linearGradient id="SVGID_25_" gradientUnits="userSpaceOnUse" x1="-40.5674" y1="-23.3682" x2="-33.5889" y2="-26.734" gradientTransform="matrix(0.6907 0 0 0.6907 113.4977 176.4341)">
						<stop  offset="0" style="stop-color:#3B241F;stop-opacity:0"/>
						<stop  offset="0.2235" style="stop-color:#3B241F"/>
						<stop  offset="1" style="stop-color:#38211C;stop-opacity:0"/>
					</linearGradient>
					<path fill-rule="evenodd" clip-rule="evenodd" fill="url(#SVGID_25_)" d="M89.32,156.13l-0.9,0.14l1.59,0.14
						c0.18,0.07,0.35,0.17,0.48,0.31c1.24,0.94,1.79,1.65,1.66,2.11l1.17,2.83c-5.85,0.07-9.07,0.02-9.67-0.14
						c-0.16-1.52-0.32-3.27-0.48-5.25C85.91,155.76,87.96,155.71,89.32,156.13z"/>
					
						<radialGradient id="SVGID_26_" cx="-63.0117" cy="-33.3999" r="11.9048" gradientTransform="matrix(0.6907 0 0 0.6907 113.4977 176.4341)" gradientUnits="userSpaceOnUse">
						<stop  offset="0" style="stop-color:#954712;stop-opacity:0.4627"/>
						<stop  offset="1" style="stop-color:#944612;stop-opacity:0"/>
						<stop  offset="1" style="stop-color:#974A12;stop-opacity:0"/>
					</radialGradient>
					<path fill-rule="evenodd" clip-rule="evenodd" fill="url(#SVGID_26_)" d="M82.75,155.09c0.83,0.28,0.76,0.58-0.21,0.9
						l-7.18,5.11c-5.55-0.44-10.36-1.08-14.44-1.93l8.39-1.93c2.23-0.55,4.19-1.01,5.87-1.38l5.32-0.48
						c0.12-0.18,0.16-0.33,0.14-0.45c0.76-0.07,1.31-0.06,1.66,0.03C82.49,155,82.64,155.05,82.75,155.09z"/>
				</g>
			</g>
			<g>
				
					<linearGradient id="SVGID_27_" gradientUnits="userSpaceOnUse" x1="-67.7363" y1="-29.9551" x2="-12.2863" y2="-29.9551" gradientTransform="matrix(0.6907 0 0 0.6907 113.4977 176.4341)">
					<stop  offset="0" style="stop-color:#35211A;stop-opacity:0.6902"/>
					<stop  offset="0.0392" style="stop-color:#482D24"/>
					<stop  offset="0.2588" style="stop-color:#371F15"/>
					<stop  offset="0.3804" style="stop-color:#402419"/>
					<stop  offset="0.5373" style="stop-color:#251812"/>
					<stop  offset="0.8" style="stop-color:#251613"/>
					<stop  offset="1" style="stop-color:#422116;stop-opacity:0.5804"/>
					<stop  offset="1" style="stop-color:#5F2615"/>
				</linearGradient>
				<path fill-rule="evenodd" clip-rule="evenodd" fill="url(#SVGID_27_)" d="M87.83,152.57c0.23,0,0.46,0.01,0.69,0.03l4.49,0.21
					c1.13,0.09,2.21,0.2,3.25,0.31l1.66,0.21c0.05,0.02,0.09,0.03,0.14,0.03h0.04l1.14,0.21c0.07,0,0.15,0.01,0.24,0.03
					c3.75,0.67,5.63,1.44,5.63,2.31c0,0.02,0,0.05,0,0.07c0,0.05-0.01,0.1-0.03,0.17c-0.09,0.25-0.36,0.5-0.79,0.73
					c-0.05,0-0.09,0.01-0.14,0.03c-0.09,0.07-0.21,0.13-0.35,0.17c-0.05,0.02-0.1,0.05-0.17,0.07l-0.45,0.17h-0.07
					c-0.51,0.16-1.09,0.31-1.76,0.45c-0.44,0.09-0.89,0.18-1.35,0.28h-0.03c-0.05,0-0.09,0-0.14,0l-0.04,0.03h-0.17
					c-0.05,0-0.09,0.01-0.14,0.03c-0.09,0-0.2,0.01-0.31,0.03l-0.93,0.14c-0.18,0.02-0.36,0.05-0.52,0.07h-0.03l-0.03,0.03
					l-9.46,0.55c-0.25,0-0.5,0-0.72,0h-0.04c-0.14,0-0.27,0-0.38,0h-0.24c-0.23-0.02-0.46-0.03-0.69-0.03c-0.07,0-0.14,0-0.21,0
					h-0.04l-10.15-0.59c-0.21,0-0.4-0.01-0.59-0.03l-0.03-0.03c-0.55-0.07-1.08-0.14-1.59-0.21c-0.44-0.07-0.85-0.14-1.24-0.21
					c-2.19-0.39-3.73-0.81-4.63-1.24c-0.07-0.05-0.13-0.08-0.17-0.1c-0.18-0.12-0.33-0.22-0.45-0.31c-0.25-0.21-0.38-0.43-0.38-0.66
					c0-0.28,0.18-0.53,0.55-0.76c0.02-0.02,0.06-0.05,0.1-0.07c0.85-0.51,2.51-0.97,4.97-1.38c0.23-0.02,0.46-0.05,0.69-0.07
					l2.73-0.31c0.07-0.02,0.13-0.03,0.17-0.03h0.03c0.21-0.02,0.44-0.05,0.69-0.07l3-0.21c1.98-0.09,4.08-0.13,6.29-0.1h0.04
					c0.37,0,0.74,0.01,1.11,0.03h0.38c0.12,0,0.23,0,0.35,0H87.83z"/>
			</g>
			<g>
				<g>
					
						<radialGradient id="SVGID_28_" cx="-23.8115" cy="-23.75" r="1.7899" gradientTransform="matrix(0.3268 -0.6085 2.1733 1.1671 156.4472 173.2587)" gradientUnits="userSpaceOnUse">
						<stop  offset="0" style="stop-color:#FFFFC8"/>
						<stop  offset="0.4392" style="stop-color:#FFFFC6"/>
						<stop  offset="0.6588" style="stop-color:#F1DA58"/>
						<stop  offset="0.7882" style="stop-color:#D2AB13"/>
						<stop  offset="0.9451" style="stop-color:#EAC926"/>
					</radialGradient>
					<path fill-rule="evenodd" clip-rule="evenodd" fill="url(#SVGID_28_)" d="M96.19,159.37c0.37,0.16,0.66,0.22,0.86,0.17
						c0.14,0.07,0.29,0.13,0.45,0.17c1.38,0.65,2.3,1.06,2.76,1.24c-0.19,0.12-0.38,0.18-0.59,0.21l-1.42,0.07
						c-0.51,0-0.9-0.01-1.17-0.03c-0.21-0.02-0.35-0.06-0.41-0.1c-0.05-0.02-0.07-0.05-0.07-0.07c-0.09-0.07-0.15-0.16-0.17-0.28
						c-0.12-0.35-0.23-0.55-0.35-0.62c-0.16-0.11-0.44-0.32-0.83-0.62c-0.16-0.11-0.31-0.23-0.45-0.35
						c-0.09-0.05-0.17-0.1-0.24-0.17v-0.03c0-0.12,0.06-0.18,0.17-0.21c0.16,0.07,0.34,0.15,0.55,0.24
						c0.18,0.09,0.37,0.17,0.55,0.24C95.96,159.3,96.07,159.35,96.19,159.37z"/>
					<path fill-rule="evenodd" clip-rule="evenodd" fill="#190100" d="M94.74,158.75c0.09-0.02,0.2-0.03,0.31-0.03
						c0.14,0,0.79,0.26,1.97,0.79c-0.05,0-0.1,0-0.17,0c-0.28-0.05-0.49-0.09-0.66-0.14c-0.12-0.02-0.23-0.07-0.34-0.14
						c-0.18-0.07-0.37-0.15-0.55-0.24C95.08,158.9,94.9,158.82,94.74,158.75z"/>
					<path fill-rule="evenodd" clip-rule="evenodd" fill="#583927" fill-opacity="0.2196" d="M79.78,158.27
						c-1.45,0-2.69-0.17-3.73-0.52c-0.78-0.25-1.17-0.46-1.17-0.62c0-0.41,0.89-0.52,2.66-0.31c1.77,0.21,2.66,0.52,2.66,0.93
						c0,0.09-0.03,0.2-0.1,0.31C80,158.2,79.9,158.27,79.78,158.27z M74.36,154.68l-0.55-0.1l-0.03-0.03
						c-0.02-0.02-0.03-0.1-0.03-0.24c0-0.16,0.33-0.44,1-0.83c0.67-0.39,1-0.31,1,0.24c0,0.23-0.17,0.45-0.52,0.66
						C74.9,154.57,74.62,154.68,74.36,154.68z M74.09,156.51c0.28,0,0.49,0.22,0.66,0.66c0,0.02-0.05,0.09-0.14,0.21
						c-0.12,0.12-0.23,0.17-0.35,0.17l-0.45-0.1l-0.03-0.1c-0.02-0.07-0.03-0.17-0.03-0.31C73.74,156.7,73.86,156.53,74.09,156.51z
						 M70.53,154.54c0.02,0.05,0.03,0.14,0.03,0.28c0,0.25-0.28,0.58-0.83,0.97c-0.3,0.18-0.74,0.43-1.31,0.73
						c-0.21-0.05-0.33-0.14-0.38-0.28c-0.02-0.02-0.03-0.11-0.03-0.28c0-0.46,0.23-0.82,0.69-1.07c0.39-0.21,0.98-0.35,1.76-0.41
						L70.53,154.54z"/>
				</g>
			</g>
			<g>
				<path fill-rule="evenodd" clip-rule="evenodd" fill="#0D080C" d="M87.28,154.09c0.25,0.09,0.38,0.21,0.38,0.35
					c0,0.14-0.13,0.26-0.38,0.38h0.04l3.35,0.31c0.16,0.02,0.3,0.05,0.41,0.07c1.45,0.23,2.18,0.5,2.18,0.79
					c0,0.28-0.72,0.52-2.18,0.73c-0.07,0-0.15,0.01-0.24,0.03l-4.97,0.17l-4.83-0.31l-0.1-0.03c-0.09,0-0.2-0.02-0.31-0.07
					c-0.37-0.05-0.69-0.1-0.97-0.17c-0.78-0.18-1.17-0.38-1.17-0.59c0-0.23,0.38-0.43,1.14-0.59c-0.05,0-0.1-0.01-0.17-0.03
					c-0.53-0.09-0.79-0.21-0.79-0.35c0-0.02,0.01-0.06,0.03-0.1c-0.12-0.02-0.24-0.05-0.38-0.07c-0.12-0.02-0.21-0.05-0.28-0.07
					c-0.18-0.02-0.33-0.05-0.45-0.07c-0.16-0.07-0.24-0.15-0.24-0.24c0-0.07,0.08-0.14,0.24-0.21c0.09-0.02,0.2-0.05,0.31-0.07h0.45
					c0.02,0,0.05,0,0.07,0c0.12-0.02,0.24-0.05,0.38-0.07c-0.02-0.02-0.03-0.07-0.03-0.14c0-0.12,0.08-0.21,0.24-0.28
					c0.09-0.05,0.21-0.09,0.35-0.14h0.24c0.21,0,0.38,0.05,0.52,0.14c0.16,0.07,0.24,0.16,0.24,0.28c0,0.02,0,0.06,0,0.1h0.04
					c0.37,0.02,0.7,0.06,1,0.1c0.42,0.09,0.63,0.21,0.66,0.35h0.03l0.66,0.03c0.18,0.02,0.37,0.05,0.55,0.07
					c0.53,0.11,0.79,0.24,0.79,0.38h0.03c0.05,0,0.1,0,0.17,0h0.03c0.12,0.07,0.25,0.1,0.42,0.1c0.18,0,0.33-0.03,0.45-0.1
					c0.07,0,0.15,0,0.24,0l0.04,0.04c0.28,0.09,0.59,0.14,0.93,0.14c0.34,0,0.63-0.05,0.86-0.14c-0.44,0-0.89-0.01-1.35-0.04
					c-0.18,0-0.35,0-0.48,0c-0.04-0.02-0.09-0.03-0.14-0.03h-0.07c0,0.02-0.01,0.03-0.03,0.03c-0.3,0-0.59,0-0.86,0
					c-0.02,0-0.05-0.01-0.07-0.03c-0.14-0.07-0.21-0.16-0.21-0.28c0-0.09,0.07-0.18,0.21-0.28c0.09-0.05,0.21-0.08,0.35-0.1h0.14
					c0.18,0,0.33,0.03,0.45,0.1h0.07c0.05-0.05,0.12-0.08,0.21-0.1c0.12-0.05,0.25-0.08,0.41-0.1l0.79-0.03
					C86.89,153.97,87.09,154.02,87.28,154.09z"/>
			</g>
			<g>
				<g>
					
						<radialGradient id="SVGID_29_" cx="-39.3613" cy="-31.8999" r="1.6625" gradientTransform="matrix(0.6907 0 0 0.2337 113.4977 161.8556)" gradientUnits="userSpaceOnUse">
						<stop  offset="0" style="stop-color:#FFFFFF"/>
						<stop  offset="0.5412" style="stop-color:#FBFAFA"/>
						<stop  offset="0.6902" style="stop-color:#B3ACAD"/>
						<stop  offset="0.7059" style="stop-color:#B3ACAD"/>
						<stop  offset="0.8078" style="stop-color:#B5AEAF"/>
						<stop  offset="1" style="stop-color:#8A7E80"/>
					</radialGradient>
					<path fill-rule="evenodd" clip-rule="evenodd" fill="url(#SVGID_29_)" d="M87,154.16c0.23,0.09,0.37,0.18,0.41,0.28
						c0.02,0.07-0.07,0.13-0.28,0.17c-0.18,0.09-0.42,0.14-0.69,0.14c-0.3,0-0.55-0.03-0.76-0.1c-0.21-0.07-0.32-0.14-0.35-0.21
						c-0.05-0.09,0.02-0.17,0.21-0.24c0.21-0.07,0.45-0.1,0.73-0.1S86.79,154.11,87,154.16z"/>
					
						<radialGradient id="SVGID_30_" cx="-41.7627" cy="-31.7002" r="0.5503" gradientTransform="matrix(0.6907 0 0 0.5494 113.4977 171.9555)" gradientUnits="userSpaceOnUse">
						<stop  offset="0" style="stop-color:#FFFFFF"/>
						<stop  offset="0.5412" style="stop-color:#FBFAFA"/>
						<stop  offset="0.6902" style="stop-color:#B3ACAD"/>
						<stop  offset="0.7059" style="stop-color:#B3ACAD"/>
						<stop  offset="0.8078" style="stop-color:#B5AEAF"/>
						<stop  offset="1" style="stop-color:#8A7E80"/>
					</radialGradient>
					<path fill-rule="evenodd" clip-rule="evenodd" fill="url(#SVGID_30_)" d="M84.65,154.23c0.12,0,0.22,0.03,0.31,0.1
						c0.07,0.05,0.12,0.1,0.14,0.17c0,0.09-0.04,0.17-0.14,0.24c-0.07,0.07-0.17,0.1-0.31,0.1c-0.11,0-0.21-0.02-0.28-0.07
						c-0.09-0.07-0.14-0.14-0.14-0.21c-0.02-0.09,0.02-0.16,0.14-0.21C84.45,154.27,84.54,154.23,84.65,154.23z"/>
					
						<radialGradient id="SVGID_31_" cx="-49.2119" cy="-32.8999" r="0.7879" gradientTransform="matrix(0.6907 0 0 0.3179 113.4977 164.1703)" gradientUnits="userSpaceOnUse">
						<stop  offset="0" style="stop-color:#FFFFFF"/>
						<stop  offset="0.5412" style="stop-color:#FBFAFA"/>
						<stop  offset="0.6902" style="stop-color:#B3ACAD"/>
						<stop  offset="0.7059" style="stop-color:#B3ACAD"/>
						<stop  offset="0.8078" style="stop-color:#B5AEAF"/>
						<stop  offset="1" style="stop-color:#8A7E80"/>
					</radialGradient>
					<path fill-rule="evenodd" clip-rule="evenodd" fill="url(#SVGID_31_)" d="M79.92,153.88c-0.09,0.05-0.22,0.07-0.38,0.07
						s-0.29-0.02-0.38-0.07c-0.12-0.02-0.17-0.07-0.17-0.14c0-0.07,0.06-0.12,0.17-0.14c0.09-0.07,0.21-0.1,0.35-0.1
						c0.14,0,0.26,0.01,0.38,0.04c0.12,0.05,0.18,0.1,0.21,0.17C80.09,153.76,80.04,153.81,79.92,153.88z"/>
				</g>
			</g>
			<g>
				<g>
					<path fill-rule="evenodd" clip-rule="evenodd" fill="#372815" d="M89.63,156.23c0.25,0.05,0.4,0.1,0.45,0.17v0.03
						c0,0.14-0.46,0.25-1.38,0.35c-0.53,0.07-1.12,0.12-1.76,0.14H86.9c-0.18,0-0.37,0-0.55,0l-0.04-0.03v0.03
						c-0.3,0.02-0.61,0.03-0.93,0.03c-1.29,0-2.39-0.06-3.32-0.17c-0.92-0.09-1.38-0.21-1.38-0.35c0-0.14,0.46-0.25,1.38-0.35
						c0.92-0.12,2.03-0.17,3.32-0.17c0.32,0,0.63,0.01,0.93,0.04h0.04c0.78,0,1.5,0.03,2.14,0.1c0.07,0,0.14,0.01,0.21,0.03
						c0.21,0.02,0.39,0.05,0.55,0.07C89.38,156.19,89.51,156.21,89.63,156.23z M83.44,156.84l0.31,0.02
						c0.44,0.02,0.9,0.03,1.38,0.03c0.05,0,0.08,0,0.1,0c0.05,0,0.08,0,0.1,0h0.04c0.04,0,0.08,0,0.1,0c0.3,0,0.58,0,0.83,0
						c0.21-0.02,0.4-0.03,0.59-0.03c0.48-0.02,0.93-0.05,1.35-0.07c0.07-0.02,0.13-0.03,0.17-0.03l0.48-0.03
						c0.44-0.07,0.68-0.15,0.73-0.24v-0.03c0.23-0.07-0.02-0.15-0.76-0.24c-0.05-0.02-0.08-0.03-0.1-0.03c-0.05,0-0.09,0-0.14,0
						c-0.07-0.02-0.14-0.03-0.21-0.03c-0.05,0-0.08,0-0.1,0c-0.46-0.07-0.98-0.12-1.55-0.14c-0.14,0-0.29,0-0.45,0
						c-0.15,0-0.29,0-0.41,0h-0.66c-0.05,0-0.09,0-0.14,0c-0.04,0-0.09,0-0.14,0c-0.9,0-1.69,0.05-2.38,0.14
						c-0.12,0.02-0.22,0.03-0.31,0.03c-0.16,0.02-0.3,0.05-0.42,0.07l-0.12,0.02c-0.31,0.04-0.48,0.11-0.5,0.19
						c0,0.14,0.39,0.25,1.17,0.35l0.04-0.03c0.04,0,0.09,0,0.14,0l-0.03,0.03C82.83,156.8,83.13,156.82,83.44,156.84z"/>
					
						<linearGradient id="SVGID_32_" gradientUnits="userSpaceOnUse" x1="-34.625" y1="-28.9756" x2="-31.5995" y2="-28.9756" gradientTransform="matrix(0.6907 0 0 0.6907 113.4977 176.4341)">
						<stop  offset="0" style="stop-color:#443925"/>
						<stop  offset="1" style="stop-color:#342818"/>
					</linearGradient>
					<path fill-rule="evenodd" clip-rule="evenodd" fill="url(#SVGID_32_)" d="M90.08,156.4c-0.05-0.07-0.2-0.13-0.45-0.17
						c1.22,0.07,1.91,0.2,2.07,0.38C91.45,156.52,90.9,156.45,90.08,156.4z"/>
					<path fill-rule="evenodd" clip-rule="evenodd" fill="#291C0B" d="M88.9,156.71c0.39-0.07,0.59-0.16,0.59-0.28
						c0-0.09-0.25-0.17-0.76-0.24l0.03-0.03c0.02,0,0.06,0.01,0.1,0.03c0.74,0.09,0.99,0.17,0.76,0.24v0.03
						C89.58,156.56,89.34,156.65,88.9,156.71z M88.28,156.13c-0.46-0.05-0.97-0.08-1.52-0.1v-0.03c0.58,0.02,1.09,0.07,1.55,0.14
						H88.28z"/>
					<path fill-rule="evenodd" clip-rule="evenodd" fill="#2E2013" d="M86.76,156.02c-0.18,0-0.38,0-0.59,0
						c-0.1-0.02-0.19-0.03-0.28-0.03c0.13,0,0.27,0,0.41,0c0.16,0,0.31,0,0.45,0V156.02z M88.76,156.16l-0.03,0.03
						c-0.07,0-0.15-0.01-0.24-0.03c-0.02,0-0.06,0-0.1,0s-0.08-0.01-0.1-0.03h0.04c0.02,0,0.06,0,0.1,0c0.07,0,0.14,0.01,0.21,0.03
						C88.67,156.16,88.72,156.16,88.76,156.16z"/>
					
						<linearGradient id="SVGID_33_" gradientUnits="userSpaceOnUse" x1="-40.6621" y1="-28.3877" x2="-40.6621" y2="-29.4127" gradientTransform="matrix(0.6907 0 0 0.6907 113.4977 176.4341)">
						<stop  offset="0" style="stop-color:#53441D"/>
						<stop  offset="1" style="stop-color:#32231C"/>
					</linearGradient>
					<path fill-rule="evenodd" clip-rule="evenodd" fill="url(#SVGID_33_)" d="M83.44,156.84c-0.3-0.02-0.59-0.05-0.86-0.09
						c-0.05,0-0.09,0-0.14,0c-0.74-0.09-1.11-0.2-1.11-0.31c0-0.08,0.13-0.14,0.4-0.19l0.12-0.02c0.12-0.02,0.25-0.05,0.42-0.07
						c0.09,0,0.2-0.01,0.31-0.03c0.69-0.09,1.49-0.14,2.38-0.14c0.05,0,0.09,0,0.14,0c0.05,0,0.09,0,0.14,0h0.66
						c0.08,0,0.18,0.01,0.28,0.03c0.21,0,0.4,0,0.59,0c0.55,0.02,1.06,0.06,1.52,0.1c0.02,0.02,0.06,0.03,0.1,0.03s0.08,0,0.1,0
						c0.09,0.02,0.17,0.03,0.24,0.03c0.51,0.07,0.76,0.15,0.76,0.24c0,0.12-0.2,0.21-0.59,0.28l-0.48,0.03
						c-0.05,0-0.1,0.01-0.17,0.03c-0.41,0.02-0.86,0.05-1.35,0.07c-0.18,0-0.38,0.01-0.59,0.03c-0.25,0-0.53,0-0.83,0
						c-0.02,0-0.06,0-0.1,0h-0.04c-0.02,0-0.06,0-0.1,0c-0.02,0-0.06,0-0.1,0c-0.48,0-0.94-0.01-1.38-0.03L83.44,156.84z
						 M82.75,156.58l-0.04,0.03c0,0.02,0.09,0.05,0.28,0.07c0.16,0.02,0.37,0.04,0.62,0.04c0.14,0,0.28,0,0.41,0
						c0.41,0.02,0.88,0.03,1.38,0.03c0.88,0,1.61-0.03,2.21-0.1s0.9-0.15,0.9-0.24c0-0.09-0.3-0.17-0.9-0.24
						c-0.6-0.07-1.31-0.1-2.14-0.1c-0.02,0-0.05,0-0.07,0c-0.09,0-0.2,0-0.31,0c-0.71,0-1.33,0.03-1.86,0.1
						c-0.62,0.07-0.93,0.15-0.93,0.24C82.3,156.45,82.46,156.51,82.75,156.58z"/>
					
						<linearGradient id="SVGID_34_" gradientUnits="userSpaceOnUse" x1="-40.6621" y1="-28.5874" x2="-40.6621" y2="-29.5124" gradientTransform="matrix(0.6907 0 0 0.6907 113.4977 176.4341)">
						<stop  offset="0" style="stop-color:#453013"/>
						<stop  offset="1" style="stop-color:#2F2315"/>
					</linearGradient>
					<path fill-rule="evenodd" clip-rule="evenodd" fill="url(#SVGID_34_)" d="M87.59,156.47c-0.04,0-0.07,0.01-0.07,0.03h0.07
						c0.07,0.02,0.14,0.03,0.21,0.03s0.13-0.01,0.17-0.03h0.1c0-0.02-0.04-0.03-0.1-0.03c-0.05,0-0.1,0-0.17,0
						S87.66,156.47,87.59,156.47z M84.03,156.71c0.07,0,0.14-0.01,0.21-0.04c0.18-0.02,0.28-0.05,0.28-0.07
						c0-0.02-0.09-0.06-0.28-0.1c-0.16-0.02-0.37-0.03-0.62-0.03c-0.25,0-0.46,0.01-0.62,0.03c-0.14,0.02-0.22,0.05-0.24,0.07
						c-0.3-0.07-0.45-0.13-0.45-0.17c0-0.09,0.31-0.17,0.93-0.24c0.53-0.07,1.15-0.1,1.86-0.1c0.12,0,0.22,0,0.31,0
						c0.02,0,0.05,0,0.07,0c0.83,0,1.54,0.03,2.14,0.1c0.6,0.07,0.9,0.15,0.9,0.24c0,0.09-0.3,0.17-0.9,0.24s-1.34,0.1-2.21,0.1
						C84.91,156.75,84.45,156.74,84.03,156.71z"/>
					
						<radialGradient id="SVGID_35_" cx="-37.2109" cy="-28.8501" r="0.387" gradientTransform="matrix(0.6907 0 0 0.2228 113.4977 162.9353)" gradientUnits="userSpaceOnUse">
						<stop  offset="0" style="stop-color:#97752B"/>
						<stop  offset="1" style="stop-color:#937229;stop-opacity:0"/>
					</radialGradient>
					<path fill-rule="evenodd" clip-rule="evenodd" fill="url(#SVGID_35_)" d="M87.59,156.47c0.07,0,0.14,0,0.21,0s0.13,0,0.17,0
						c0.07,0,0.1,0.01,0.1,0.03h-0.1c-0.05,0.02-0.1,0.03-0.17,0.03s-0.14-0.01-0.21-0.03h-0.07
						C87.52,156.48,87.54,156.47,87.59,156.47z"/>
					
						<radialGradient id="SVGID_36_" cx="-43.3613" cy="-28.7002" r="1.2254" gradientTransform="matrix(0.6907 0 0 0.1128 113.4977 159.8472)" gradientUnits="userSpaceOnUse">
						<stop  offset="0" style="stop-color:#97752B"/>
						<stop  offset="1" style="stop-color:#937229;stop-opacity:0"/>
					</radialGradient>
					<path fill-rule="evenodd" clip-rule="evenodd" fill="url(#SVGID_36_)" d="M82.75,156.58c0.02-0.02,0.1-0.05,0.24-0.07
						c0.16-0.02,0.37-0.03,0.62-0.03c0.25,0,0.46,0.01,0.62,0.03c0.18,0.05,0.28,0.08,0.28,0.1c0,0.02-0.09,0.05-0.28,0.07
						c-0.07,0.02-0.14,0.04-0.21,0.04c-0.14,0-0.28,0-0.41,0c-0.25,0-0.46-0.01-0.62-0.04c-0.18-0.02-0.28-0.05-0.28-0.07
						L82.75,156.58z"/>
					<path fill-rule="evenodd" clip-rule="evenodd" fill="#2D1E0F" d="M82.44,156.75l-0.04,0.03c-0.78-0.09-1.17-0.21-1.17-0.35
						c0.02-0.08,0.19-0.15,0.5-0.19c-0.26,0.05-0.4,0.11-0.4,0.19C81.34,156.55,81.71,156.66,82.44,156.75z M82.58,156.75
						c0.28,0.03,0.56,0.06,0.86,0.09c-0.32-0.02-0.62-0.03-0.9-0.05L82.58,156.75z"/>
					<path fill-rule="evenodd" clip-rule="evenodd" fill="none" d="M88.87,156.2c0.74,0.09,0.99,0.17,0.76,0.24"/>
				</g>
			</g>
		</g>
	</g>
</g>
<g id="Yellow">
</g>
</svg>
