<?xml version="1.0" encoding="utf-8"?>
<!-- Generator: Adobe Illustrator 16.0.0, SVG Export Plug-In . SVG Version: 6.00 Build 0)  -->
<!DOCTYPE svg PUBLIC "-//W3C//DTD SVG 1.1//EN" "http://www.w3.org/Graphics/SVG/1.1/DTD/svg11.dtd">
<svg version="1.1" id="Layer_1" xmlns="http://www.w3.org/2000/svg" xmlns:xlink="http://www.w3.org/1999/xlink" x="0px" y="0px"
	 width="22.83px" height="29.83px" viewBox="0 0 22.83 29.83" enable-background="new 0 0 22.83 29.83" xml:space="preserve">
<g>
	<g>
		
			<linearGradient id="SVGID_1_" gradientUnits="userSpaceOnUse" x1="-264.1982" y1="-167.2817" x2="-259.8932" y2="-167.2817" gradientTransform="matrix(0.2147 -0.2876 0.3385 0.1465 119.9028 -39.1869)">
			<stop  offset="0" style="stop-color:#0B0B0B"/>
			<stop  offset="0.2431" style="stop-color:#1D1D1D;stop-opacity:0.8314"/>
			<stop  offset="0.4902" style="stop-color:#1D1D1D;stop-opacity:0.2431"/>
			<stop  offset="0.7686" style="stop-color:#1C1C1C;stop-opacity:0.851"/>
			<stop  offset="1" style="stop-color:#000000"/>
		</linearGradient>
		<path fill-rule="evenodd" clip-rule="evenodd" fill="url(#SVGID_1_)" d="M3.46,9.43l7.65,3.23c-0.12,0.27-0.28,0.68-0.5,1.22
			l-7.73-3.17c0.09-0.22,0.19-0.44,0.29-0.66C3.22,9.93,3.27,9.8,3.34,9.67C3.38,9.59,3.42,9.51,3.46,9.43z"/>
		
			<linearGradient id="SVGID_2_" gradientUnits="userSpaceOnUse" x1="-249.7544" y1="-168.7568" x2="-245.5532" y2="-168.7568" gradientTransform="matrix(0.2221 -0.2819 0.3261 0.1661 119.5679 -34.0281)">
			<stop  offset="0" style="stop-color:#0B0B0B"/>
			<stop  offset="0.2431" style="stop-color:#1D1D1D;stop-opacity:0.8314"/>
			<stop  offset="0.4902" style="stop-color:#1D1D1D;stop-opacity:0.2431"/>
			<stop  offset="0.7686" style="stop-color:#1C1C1C;stop-opacity:0.851"/>
			<stop  offset="1" style="stop-color:#000000"/>
		</linearGradient>
		<path fill-rule="evenodd" clip-rule="evenodd" fill="url(#SVGID_2_)" d="M5.62,6.22c0.07-0.08,0.13-0.16,0.2-0.23
			C5.97,5.81,6.13,5.64,6.3,5.48l7.36,3.58c-0.08,0.09-0.17,0.19-0.25,0.29c-0.17,0.21-0.34,0.42-0.5,0.64L5.49,6.36
			C5.53,6.31,5.58,6.27,5.62,6.22z"/>
		
			<linearGradient id="SVGID_3_" gradientUnits="userSpaceOnUse" x1="-238.4023" y1="-162.9678" x2="-234.0618" y2="-162.9678" gradientTransform="matrix(0.2005 -0.2977 0.3212 0.1656 112.926 -38.3211)">
			<stop  offset="0" style="stop-color:#0B0B0B"/>
			<stop  offset="0.2431" style="stop-color:#1D1D1D;stop-opacity:0.8314"/>
			<stop  offset="0.4902" style="stop-color:#1D1D1D;stop-opacity:0.2431"/>
			<stop  offset="0.7686" style="stop-color:#1C1C1C;stop-opacity:0.851"/>
			<stop  offset="1" style="stop-color:#000000"/>
		</linearGradient>
		<path fill-rule="evenodd" clip-rule="evenodd" fill="url(#SVGID_3_)" d="M10.52,2.76l6.97,3.54c-0.51,0.16-1.01,0.4-1.52,0.72
			L9.21,3.33C9.35,3.25,9.5,3.18,9.64,3.12c0.09-0.04,0.18-0.09,0.28-0.13C10.12,2.9,10.32,2.82,10.52,2.76z"/>
		
			<linearGradient id="SVGID_4_" gradientUnits="userSpaceOnUse" x1="-278.7798" y1="-163.9238" x2="-274.5423" y2="-163.9238" gradientTransform="matrix(0.1927 -0.3028 0.3437 0.1284 115.0162 -46.5777)">
			<stop  offset="0" style="stop-color:#0B0B0B"/>
			<stop  offset="0.2431" style="stop-color:#1D1D1D;stop-opacity:0.8314"/>
			<stop  offset="0.4902" style="stop-color:#1D1D1D;stop-opacity:0.2431"/>
			<stop  offset="0.7686" style="stop-color:#1C1C1C;stop-opacity:0.851"/>
			<stop  offset="1" style="stop-color:#000000"/>
		</linearGradient>
		<path fill-rule="evenodd" clip-rule="evenodd" fill="url(#SVGID_4_)" d="M9.37,16.85c-0.1,0.33-0.22,0.76-0.36,1.27l-7.47-2.6
			c0.02-0.14,0.04-0.27,0.06-0.41c0.03-0.2,0.07-0.41,0.12-0.61c0.03-0.16,0.06-0.31,0.1-0.47L9.37,16.85z"/>
		
			<linearGradient id="SVGID_5_" gradientUnits="userSpaceOnUse" x1="-305.519" y1="-148.126" x2="-301.1747" y2="-148.126" gradientTransform="matrix(0.1776 -0.3119 0.3544 0.103 112.9918 -53.7122)">
			<stop  offset="0" style="stop-color:#0B0B0B"/>
			<stop  offset="0.2431" style="stop-color:#1D1D1D;stop-opacity:0.8314"/>
			<stop  offset="0.4902" style="stop-color:#1D1D1D;stop-opacity:0.2431"/>
			<stop  offset="0.7686" style="stop-color:#1C1C1C;stop-opacity:0.851"/>
			<stop  offset="1" style="stop-color:#000000"/>
		</linearGradient>
		<path fill-rule="evenodd" clip-rule="evenodd" fill="url(#SVGID_5_)" d="M5.26,25.39c-0.49-0.07-1.21-0.58-2.15-1.54l6.37,1.87
			c0.23,0.56,0.51,1.03,0.83,1.42L5.26,25.39z"/>
		
			<linearGradient id="SVGID_6_" gradientUnits="userSpaceOnUse" x1="-293.938" y1="-158.1396" x2="-289.5687" y2="-158.1396" gradientTransform="matrix(0.1807 -0.3101 0.3558 0.1023 114.0719 -53.3584)">
			<stop  offset="0" style="stop-color:#0B0B0B"/>
			<stop  offset="0.2431" style="stop-color:#1D1D1D;stop-opacity:0.8314"/>
			<stop  offset="0.4902" style="stop-color:#1D1D1D;stop-opacity:0.2431"/>
			<stop  offset="0.7686" style="stop-color:#1C1C1C;stop-opacity:0.851"/>
			<stop  offset="1" style="stop-color:#000000"/>
		</linearGradient>
		<path fill-rule="evenodd" clip-rule="evenodd" fill="url(#SVGID_6_)" d="M1.48,19.11l7.32,2.12c-0.02,0.45-0.02,0.88,0.01,1.3
			l-7.15-2.01c-0.06-0.33-0.11-0.67-0.13-1C1.51,19.38,1.49,19.25,1.48,19.11z"/>
	</g>
</g>
</svg>
