<?xml version="1.0" encoding="utf-8"?>
<!-- Generator: Adobe Illustrator 16.0.0, SVG Export Plug-In . SVG Version: 6.00 Build 0)  -->
<!DOCTYPE svg PUBLIC "-//W3C//DTD SVG 1.1//EN" "http://www.w3.org/Graphics/SVG/1.1/DTD/svg11.dtd">
<svg version="1.1" id="Layer_2_2_" xmlns="http://www.w3.org/2000/svg" xmlns:xlink="http://www.w3.org/1999/xlink" x="0px" y="0px"
	 width="53.17px" height="11.17px" viewBox="0 0 53.17 11.17" enable-background="new 0 0 53.17 11.17" xml:space="preserve">
<g>
	<g>
		<g>
			
				<linearGradient id="SVGID_1_" gradientUnits="userSpaceOnUse" x1="-363.2588" y1="382.1406" x2="-285.6971" y2="336.27" gradientTransform="matrix(0.6907 0 0 -0.6907 247.5532 251.0813)">
				<stop  offset="0" style="stop-color:#E6E6E5;stop-opacity:0.5804"/>
				<stop  offset="0.251" style="stop-color:#FBFCFC;stop-opacity:0.4118"/>
				<stop  offset="0.4118" style="stop-color:#D0D1D1"/>
				<stop  offset="0.6118" style="stop-color:#FFFFFF;stop-opacity:0.6431"/>
				<stop  offset="0.8039" style="stop-color:#EAEAEA;stop-opacity:0.8118"/>
				<stop  offset="1" style="stop-color:#FFFFFF"/>
			</linearGradient>
			<polygon fill="url(#SVGID_1_)" points="31.68,9.31 0.77,4.1 20.49,0.85 52.4,5.58 52.33,5.62 31.82,9.31 			"/>
			
				<linearGradient id="SVGID_2_" gradientUnits="userSpaceOnUse" x1="-327.7466" y1="351.8613" x2="-274.5475" y2="351.8613" gradientTransform="matrix(0.6907 0 0 -0.6907 247.5532 251.0813)">
				<stop  offset="0" style="stop-color:#E6E6E5;stop-opacity:0.5804"/>
				<stop  offset="0.1961" style="stop-color:#989898;stop-opacity:0.4118"/>
				<stop  offset="0.4118" style="stop-color:#D0D1D1"/>
				<stop  offset="0.6118" style="stop-color:#FFFFFF"/>
				<stop  offset="0.8471" style="stop-color:#EAEAEA;stop-opacity:0.8118"/>
				<stop  offset="1" style="stop-color:#FFFFFF"/>
			</linearGradient>
			<polygon fill="url(#SVGID_2_)" points="31.68,9.31 31.82,9.31 52.33,5.62 52.4,5.58 52.43,6.62 31.99,10.52 31.68,10.49 			"/>
			
				<linearGradient id="SVGID_3_" gradientUnits="userSpaceOnUse" x1="-373.5977" y1="352.9541" x2="-302.2969" y2="352.9541" gradientTransform="matrix(0.6907 0 0 -0.6907 247.5532 251.0813)">
				<stop  offset="0.1412" style="stop-color:#FFFFFF"/>
				<stop  offset="0.298" style="stop-color:#DEDEDD"/>
				<stop  offset="0.4078" style="stop-color:#FFFFFF"/>
				<stop  offset="0.5333" style="stop-color:#D0D1D1"/>
				<stop  offset="0.651" style="stop-color:#C4C4C4"/>
				<stop  offset="0.8667" style="stop-color:#EAEAEA"/>
				<stop  offset="1" style="stop-color:#FFFFFF"/>
			</linearGradient>
			<polygon fill="url(#SVGID_3_)" points="0.77,4.1 31.68,9.31 31.68,10.49 0.73,5.06 			"/>
		</g>
	</g>
	<g>
		<g>
			<line fill="none" x1="32.06" y1="9.28" x2="51.29" y2="5.72"/>
			<line fill="none" x1="30.85" y1="9.21" x2="2.49" y2="4.37"/>
		</g>
	</g>
	<g>
		<polygon fill="#FFFFFF" points="24.7,3.23 33.82,4.68 27.71,6.03 19.38,4.37 		"/>
	</g>
	<g>
		<path fill="#F7A3A5" d="M26.26,3.82c0.46,0.02,0.87,0.08,1.24,0.17c0.16,0.05,0.32,0.09,0.48,0.14c0.48,0.16,0.73,0.32,0.73,0.48
			s-0.24,0.28-0.73,0.35c-0.48,0.07-1.06,0.08-1.73,0.03c-0.67-0.05-1.24-0.15-1.73-0.31c-0.49-0.16-0.73-0.32-0.73-0.48
			c0-0.07,0.07-0.14,0.21-0.21c0.12-0.05,0.29-0.09,0.52-0.14C25.01,3.79,25.59,3.78,26.26,3.82z"/>
	</g>
</g>
</svg>
