<?xml version="1.0" encoding="utf-8"?>
<!-- Generator: Adobe Illustrator 16.0.0, SVG Export Plug-In . SVG Version: 6.00 Build 0)  -->
<!DOCTYPE svg PUBLIC "-//W3C//DTD SVG 1.1//EN" "http://www.w3.org/Graphics/SVG/1.1/DTD/svg11.dtd">
<svg version="1.1" id="Layer_2" xmlns="http://www.w3.org/2000/svg" xmlns:xlink="http://www.w3.org/1999/xlink" x="0px" y="0px"
	 width="9.63px" height="13.58px" viewBox="0 0 9.63 13.58" enable-background="new 0 0 9.63 13.58" xml:space="preserve">
<g>
	<g>
		<g>
			<polygon fill-rule="evenodd" clip-rule="evenodd" points="5.64,12.27 1.84,10.32 2.45,4.12 6.32,6.01 6.32,6.04 6.26,6.54 
				6.26,6.56 			"/>
			
				<radialGradient id="SVGID_1_" cx="-264.5273" cy="-192.4668" r="0.7775" gradientTransform="matrix(0.3577 0.0301 -0.2713 3.2208 48.7383 636.8168)" gradientUnits="userSpaceOnUse">
				<stop  offset="0" style="stop-color:#484848"/>
				<stop  offset="0.3216" style="stop-color:#1E1E1E"/>
				<stop  offset="1" style="stop-color:#000000"/>
			</radialGradient>
			<polygon fill-rule="evenodd" clip-rule="evenodd" fill="url(#SVGID_1_)" points="7.2,5.59 6.52,11.81 5.64,12.27 6.26,6.56 
				6.26,6.54 6.32,6.04 6.32,6.01 6.33,6.03 			"/>
			
				<radialGradient id="SVGID_2_" cx="-268.3267" cy="-203.7168" r="0.8899" gradientTransform="matrix(0.1758 -0.3129 1.2337 0.6931 303.4762 62.1584)" gradientUnits="userSpaceOnUse">
				<stop  offset="0" style="stop-color:#484848"/>
				<stop  offset="0.3216" style="stop-color:#1E1E1E"/>
				<stop  offset="1" style="stop-color:#000000"/>
			</radialGradient>
			<polygon fill-rule="evenodd" clip-rule="evenodd" fill="url(#SVGID_2_)" points="2.45,4.12 2.46,4.04 3.22,3.77 7.2,5.57 
				7.2,5.59 6.33,6.03 6.32,6.01 			"/>
		</g>
	</g>
	<g>
		<g>
			<polygon fill-rule="evenodd" clip-rule="evenodd" fill="#379500" points="6.07,6.55 5.36,6.85 5.28,6.84 2.13,5.33 1.78,9.76 
				5.45,11.81 1.53,9.8 1.82,5.17 2.61,4.95 6.07,6.53 			"/>
			
				<radialGradient id="SVGID_3_" cx="-271.0776" cy="-192.3677" r="10.0257" gradientTransform="matrix(0.3589 0 0 0.3589 101.2859 78.033)" gradientUnits="userSpaceOnUse">
				<stop  offset="0" style="stop-color:#03DD6C"/>
				<stop  offset="1" style="stop-color:#53DE00"/>
			</radialGradient>
			<polygon fill-rule="evenodd" clip-rule="evenodd" fill="url(#SVGID_3_)" points="5.36,6.85 5.45,11.81 1.78,9.76 2.13,5.33 
				5.28,6.84 			"/>
			
				<linearGradient id="SVGID_4_" gradientUnits="userSpaceOnUse" x1="-274.2944" y1="-198.2275" x2="-265.1175" y2="-198.2275" gradientTransform="matrix(-0.0381 0.3569 -0.3558 -0.0487 -75.3515 95.7434)">
				<stop  offset="0" style="stop-color:#307601"/>
				<stop  offset="1" style="stop-color:#43DD14"/>
			</linearGradient>
			<polygon fill-rule="evenodd" clip-rule="evenodd" fill="url(#SVGID_4_)" points="5.45,11.81 5.36,6.85 6.07,6.55 5.46,11.81 
				5.46,11.83 			"/>
			<polygon fill-rule="evenodd" clip-rule="evenodd" fill="#4F5A56" points="5.45,11.81 5.46,11.83 5.46,11.84 			"/>
		</g>
	</g>
	<g>
		
			<radialGradient id="SVGID_5_" cx="-263.1274" cy="-201.2178" r="1.1" gradientTransform="matrix(0.3589 0 0 0.3589 101.2859 78.033)" gradientUnits="userSpaceOnUse">
			<stop  offset="0" style="stop-color:#595959"/>
			<stop  offset="1" style="stop-color:#000000"/>
		</radialGradient>
		<path fill-rule="evenodd" clip-rule="evenodd" fill="url(#SVGID_5_)" d="M6.44,5.98c0-0.01,0.01-0.02,0.02-0.03l0.7-0.38
			C7.17,5.57,7.18,5.57,7.2,5.57c0.01,0,0.02,0.01,0.03,0.02C7.23,5.6,7.23,5.61,7.23,5.63c0,0.01-0.01,0.02-0.02,0.03l-0.7,0.38
			C6.5,6.04,6.49,6.04,6.48,6.04c-0.01,0-0.02-0.01-0.03-0.02C6.44,6.01,6.44,6,6.44,5.98z"/>
	</g>
	<g>
		<path fill-rule="evenodd" clip-rule="evenodd" fill="#555555" d="M6.02,2.13H5.97C5.93,2.07,5.9,1.98,5.87,1.88
			C5.73,1.72,5.6,1.63,5.47,1.63c-0.17,0-0.32,0.08-0.45,0.25C4.95,2.02,4.9,2.15,4.87,2.28c-0.03,0.1-0.05,0.2-0.05,0.3
			c0.03,0.13,0.07,0.27,0.1,0.4c0.03,0.1,0.07,0.2,0.1,0.3C5.15,3.42,5.27,3.5,5.37,3.53c0.03,0,0.07,0,0.1,0
			c0.17,0,0.3-0.08,0.4-0.25c0.03-0.1,0.07-0.18,0.1-0.25c0-0.03,0.02-0.05,0.05-0.05c0.03-0.13,0.03-0.27,0-0.4
			c0.03-0.17,0.03-0.3,0-0.4V2.13z M5.42,0.78h0.1c0,0.03,0,0.07,0,0.1v0.55c0.17,0.03,0.33,0.15,0.5,0.35
			c0.03,0.07,0.07,0.13,0.1,0.2l0.25-0.25c0-0.03,0.02-0.05,0.05-0.05l0.05,0.05v0.05c0,0.03,0,0.07,0,0.1l-0.3,0.25
			C6.2,2.27,6.22,2.42,6.22,2.58S6.2,2.9,6.17,3.03l0.3,0.6c0.03,0,0.03,0.02,0,0.05v0.05c-0.03,0.03-0.07,0.03-0.1,0H6.32
			L6.07,3.28c-0.03,0.03-0.05,0.07-0.05,0.1C5.85,3.62,5.67,3.73,5.47,3.73v0.4c0,0.03-0.02,0.05-0.05,0.05
			c0,0.03-0.02,0.05-0.05,0.05c-0.03,0-0.05-0.02-0.05-0.05c-0.03,0-0.05-0.02-0.05-0.05V3.68C5.13,3.62,5,3.52,4.87,3.38
			c-0.03-0.07-0.05-0.13-0.05-0.2l-0.2,0.2h-0.1c-0.03-0.03-0.05-0.07-0.05-0.1l0.3-0.3c-0.07-0.13-0.1-0.27-0.1-0.4
			c0-0.1,0.02-0.18,0.05-0.25l-0.3-0.25L4.37,2.03c0-0.07,0.02-0.1,0.05-0.1c0-0.03,0.02-0.05,0.05-0.05S4.52,1.9,4.52,1.93l0.2,0.2
			C4.78,2,4.83,1.88,4.87,1.78c0.13-0.2,0.3-0.32,0.5-0.35V0.88C5.37,0.85,5.38,0.82,5.42,0.78z"/>
	</g>
</g>
</svg>
