<?xml version="1.0" encoding="utf-8"?>
<!-- Generator: Adobe Illustrator 16.0.0, SVG Export Plug-In . SVG Version: 6.00 Build 0)  -->
<!DOCTYPE svg PUBLIC "-//W3C//DTD SVG 1.1//EN" "http://www.w3.org/Graphics/SVG/1.1/DTD/svg11.dtd">
<svg version="1.1" id="Layer_2" xmlns="http://www.w3.org/2000/svg" xmlns:xlink="http://www.w3.org/1999/xlink" x="0px" y="0px"
	 width="74px" height="104px" viewBox="0 0 74 104" enable-background="new 0 0 74 104" xml:space="preserve">
<g>
	<g>
		<g>
			
				<radialGradient id="SVGID_1_" cx="-234.5669" cy="-157.4668" r="0.89" gradientTransform="matrix(1.9644 -3.4964 13.785 7.7451 2677.1387 417.5797)" gradientUnits="userSpaceOnUse">
				<stop  offset="0" style="stop-color:#484848"/>
				<stop  offset="0.3216" style="stop-color:#1E1E1E"/>
				<stop  offset="1" style="stop-color:#000000"/>
			</radialGradient>
			<polygon fill-rule="evenodd" clip-rule="evenodd" fill="url(#SVGID_1_)" points="70.53,25.65 60.71,30.56 60.61,30.36 
				17.39,9.21 17.49,8.3 26.01,5.3 70.53,25.45 			"/>
			
				<radialGradient id="SVGID_2_" cx="-230.7671" cy="-146.2168" r="0.7775" gradientTransform="matrix(3.9963 0.3366 -3.0312 35.9884 539.9052 5403.0376)" gradientUnits="userSpaceOnUse">
				<stop  offset="0" style="stop-color:#484848"/>
				<stop  offset="0.3216" style="stop-color:#1E1E1E"/>
				<stop  offset="1" style="stop-color:#000000"/>
			</radialGradient>
			<polygon fill-rule="evenodd" clip-rule="evenodd" fill="url(#SVGID_2_)" points="70.53,25.65 62.91,95.13 53.09,100.35 60,36.48 
				60,36.28 60.61,30.66 60.61,30.36 60.71,30.56 			"/>
			<polygon fill-rule="evenodd" clip-rule="evenodd" points="53.09,100.35 10.57,78.49 17.39,9.21 60.61,30.36 60.61,30.66 
				60,36.28 60,36.48 			"/>
		</g>
	</g>
	<g>
		<g>
			<polygon fill-rule="evenodd" clip-rule="evenodd" fill="#3B5047" points="57.9,36.38 53.49,38.98 53.19,38.98 18.39,22.74 
				13.98,20.94 19.2,18.53 57.9,36.18 			"/>
			<polygon fill-rule="evenodd" clip-rule="evenodd" fill="#3B5047" points="57.9,36.38 53.49,38.98 53.19,38.98 18.39,22.74 
				13.98,20.94 19.2,18.53 57.9,36.18 			"/>
			
				<linearGradient id="SVGID_3_" gradientUnits="userSpaceOnUse" x1="-237.6855" y1="-152.2461" x2="-226.2723" y2="-152.2461" gradientTransform="matrix(-0.4217 3.9882 -3.9752 -0.5446 -653.9994 924.8929)">
				<stop  offset="0" style="stop-color:#516655"/>
				<stop  offset="1" style="stop-color:#96AB9A"/>
			</linearGradient>
			<polygon fill-rule="evenodd" clip-rule="evenodd" fill="url(#SVGID_3_)" points="57.9,36.38 51.08,95.13 51.08,95.33 
				50.88,95.13 49.17,94.13 44.56,87.31 53.29,39.19 53.49,39.19 53.19,38.98 53.49,38.98 			"/>
			
				<linearGradient id="SVGID_4_" gradientUnits="userSpaceOnUse" x1="-237.6855" y1="-152.2461" x2="-226.2723" y2="-152.2461" gradientTransform="matrix(-0.4217 3.9882 -3.9752 -0.5446 -653.9994 924.8929)">
				<stop  offset="0" style="stop-color:#516655"/>
				<stop  offset="1" style="stop-color:#96AB9A"/>
			</linearGradient>
			<polygon fill-rule="evenodd" clip-rule="evenodd" fill="url(#SVGID_4_)" points="57.9,36.38 51.08,95.13 51.08,95.33 
				50.88,95.13 49.17,94.13 44.56,87.31 53.29,39.19 53.49,39.19 53.19,38.98 53.49,38.98 			"/>
			<polygon fill-rule="evenodd" clip-rule="evenodd" fill="#5A704A" points="44.56,87.31 44.46,87.11 44.46,88.11 9.57,70.27 
				18.39,22.74 53.19,38.98 53.49,39.19 53.29,39.19 			"/>
			<polygon fill-rule="evenodd" clip-rule="evenodd" fill="#5A704A" points="44.56,87.31 44.46,87.11 44.46,88.11 9.57,70.27 
				18.39,22.74 53.19,38.98 53.49,39.19 53.29,39.19 			"/>
			<polygon fill-rule="evenodd" clip-rule="evenodd" fill="#4F5A56" points="50.88,95.13 4.76,72.67 13.98,20.94 18.39,22.74 
				9.57,70.27 44.46,88.11 44.46,87.11 44.56,87.31 49.17,94.13 50.88,95.13 51.08,95.33 51.08,95.53 			"/>
			<polygon fill-rule="evenodd" clip-rule="evenodd" fill="#4F5A56" points="50.88,95.13 4.76,72.67 13.98,20.94 18.39,22.74 
				9.57,70.27 44.46,88.11 44.46,87.11 44.56,87.31 49.17,94.13 50.88,95.13 51.08,95.33 51.08,95.53 			"/>
		</g>
	</g>
	<g>
		
			<radialGradient id="SVGID_5_" cx="-229.3672" cy="-154.9668" r="1.1" gradientTransform="matrix(4.0105 0 0 4.0105 986.3895 649.6458)" gradientUnits="userSpaceOnUse">
			<stop  offset="0" style="stop-color:#595959"/>
			<stop  offset="1" style="stop-color:#000000"/>
		</radialGradient>
		<path fill-rule="evenodd" clip-rule="evenodd" fill="url(#SVGID_5_)" d="M62.81,30.56c-0.13,0.09-0.26,0.12-0.4,0.1
			c-0.13-0.03-0.23-0.09-0.3-0.2c-0.09-0.13-0.12-0.26-0.1-0.4c0.03-0.13,0.09-0.23,0.2-0.3l7.82-4.21c0.13-0.09,0.26-0.12,0.4-0.1
			c0.13,0.03,0.23,0.09,0.3,0.2c0.09,0.13,0.12,0.26,0.1,0.4c-0.03,0.13-0.09,0.23-0.2,0.3L62.81,30.56z"/>
	</g>
</g>
</svg>
