<?xml version="1.0" encoding="utf-8"?>
<!-- Generator: Adobe Illustrator 16.0.0, SVG Export Plug-In . SVG Version: 6.00 Build 0)  -->
<!DOCTYPE svg PUBLIC "-//W3C//DTD SVG 1.1//EN" "http://www.w3.org/Graphics/SVG/1.1/DTD/svg11.dtd">
<svg version="1.1" id="Layer_1" xmlns="http://www.w3.org/2000/svg" xmlns:xlink="http://www.w3.org/1999/xlink" x="0px" y="0px"
	 width="137px" height="137px" viewBox="0 0 137 137" enable-background="new 0 0 137 137" xml:space="preserve">
<g>
	<g>
		<g>
			<path fill-rule="evenodd" clip-rule="evenodd" d="M26.54,115.3c-0.13-0.17-0.25-0.32-0.35-0.45c-0.03-0.03-0.07-0.07-0.1-0.1
				c-2.61-3.31-4.8-7.2-6.58-11.65c-5.26-13.16-5.49-27.69-0.7-43.59c0.07-0.33,0.17-0.65,0.3-0.95
				c4.72-14.93,12.67-26.88,23.85-35.86c0.33-0.3,0.69-0.59,1.05-0.85c3.62-2.75,7.25-4.94,10.9-6.58
				c5.29-2.48,10.61-3.78,15.97-3.92c0.03-0.03,0.08-0.03,0.15,0l3.16,1.61l0.6,1.03l-0.2,0.13c-5.39,0.27-10.61,1.57-15.67,3.92
				c-3.65,1.61-7.28,3.75-10.9,6.43c-0.37,0.27-0.72,0.55-1.05,0.85c-11.18,8.81-19.13,20.56-23.85,35.25
				c-0.13,0.3-0.23,0.6-0.3,0.9c-4.79,15.63-4.55,29.91,0.7,42.84c1.77,4.39,3.97,8.22,6.58,11.5c0.7,0.87,1.46,1.71,2.26,2.51
				c-2.11-0.23-4.02-1.21-5.72-2.91c-0.03-0.03-0.05-0.05-0.08-0.08L26.54,115.3z M66.51,131.67c-1.54-0.77-2.93-1.74-4.17-2.91
				c-0.44-0.4-0.85-0.82-1.26-1.25l-0.05-0.05c-0.13-0.13-0.23-0.25-0.3-0.35c-0.54-0.64-1.04-1.29-1.51-1.96
				c-0.74-1.04-1.39-2.13-1.96-3.26c-0.23-0.5-0.47-1-0.7-1.51c-1.14-2.61-2.01-5.56-2.61-8.84c-2.24-11.72-0.79-24.66,4.37-38.82
				c0.07-0.3,0.17-0.59,0.3-0.85c4.99-13.29,11.94-23.94,20.84-31.94c0.27-0.27,0.55-0.52,0.85-0.75c2.85-2.44,5.66-4.39,8.44-5.83
				c2.51-1.37,4.99-2.34,7.43-2.91c2.54-0.6,5.06-0.75,7.53-0.45c0.44,0.03,0.89,0.1,1.36,0.2c0.44,0.07,0.92,0.17,1.46,0.3
				c0.2,0.07,0.4,0.13,0.6,0.2h0.03c0.63,0.17,1.25,0.41,1.88,0.7l2.61,1.31c5.19,3.08,8.77,8.62,10.75,16.62
				c0.17,0.84,0.35,1.72,0.55,2.66c0.2,0.87,0.35,1.74,0.45,2.61c1.67,11.08,0.12,23.19-4.67,36.31
				c-5.19,14.13-12.57,25.28-22.15,33.45c-4.08,3.55-8.07,6.11-11.95,7.68c-0.33,0.07-0.69,0.18-1.05,0.35
				c-1.31,0.47-2.58,0.82-3.82,1.05c-3.42,0.67-6.71,0.52-9.89-0.45c0-0.03-0.02-0.05-0.05-0.05L66.51,131.67z M101.76,31.93
				c-2.28-0.3-4.59-0.17-6.93,0.4c-2.28,0.54-4.57,1.46-6.88,2.76c-2.54,1.34-5.14,3.16-7.78,5.47c-0.27,0.23-0.52,0.47-0.75,0.7
				c-8.2,7.57-14.61,17.61-19.23,30.13c-0.1,0.23-0.18,0.5-0.25,0.8c-4.75,13.36-6.11,25.56-4.07,36.61
				c0.57,3.08,1.37,5.84,2.41,8.29c0.23,0.5,0.45,0.99,0.65,1.46c0.54,1.07,1.14,2.09,1.81,3.06c0.44,0.64,0.9,1.26,1.41,1.86
				c0.07,0.1,0.15,0.2,0.25,0.3l0.05,0.05c0.37,0.43,0.75,0.84,1.15,1.21c1.84,1.74,3.98,3,6.43,3.77c0.17,0.07,0.33,0.12,0.5,0.15
				c2.91,0.94,5.96,1.09,9.14,0.45c1.14-0.2,2.31-0.52,3.52-0.95c0.33-0.17,0.67-0.29,1-0.35c3.55-1.47,7.21-3.88,11-7.23
				c8.84-7.7,15.63-18.21,20.39-31.54c4.42-12.35,5.86-23.75,4.32-34.2c-0.1-0.84-0.23-1.66-0.4-2.46c-0.2-0.9-0.37-1.74-0.5-2.51
				c-2.08-8.54-6.03-14.11-11.85-16.72c-0.7-0.37-1.46-0.65-2.26-0.85c-0.17-0.07-0.35-0.13-0.55-0.2c-0.47-0.13-0.9-0.23-1.31-0.3
				C102.58,32.02,102.16,31.97,101.76,31.93z"/>
			<path fill-rule="evenodd" clip-rule="evenodd" d="M26.54,115.3c-0.13-0.17-0.25-0.32-0.35-0.45c-0.03-0.03-0.07-0.07-0.1-0.1
				c-2.61-3.31-4.8-7.2-6.58-11.65c-5.26-13.16-5.49-27.69-0.7-43.59c0.07-0.33,0.17-0.65,0.3-0.95
				c4.72-14.93,12.67-26.88,23.85-35.86c0.33-0.3,0.69-0.59,1.05-0.85c3.62-2.75,7.25-4.94,10.9-6.58
				c5.29-2.48,10.61-3.78,15.97-3.92c0.03-0.03,0.08-0.03,0.15,0l3.16,1.61l0.6,1.03l-0.2,0.13c-5.39,0.27-10.61,1.57-15.67,3.92
				c-3.65,1.61-7.28,3.75-10.9,6.43c-0.37,0.27-0.72,0.55-1.05,0.85c-11.18,8.81-19.13,20.56-23.85,35.25
				c-0.13,0.3-0.23,0.6-0.3,0.9c-4.79,15.63-4.55,29.91,0.7,42.84c1.77,4.39,3.97,8.22,6.58,11.5c0.7,0.87,1.46,1.71,2.26,2.51
				c-2.11-0.23-4.02-1.21-5.72-2.91c-0.03-0.03-0.05-0.05-0.08-0.08L26.54,115.3z M66.51,131.67c-1.54-0.77-2.93-1.74-4.17-2.91
				c-0.44-0.4-0.85-0.82-1.26-1.25l-0.05-0.05c-0.13-0.13-0.23-0.25-0.3-0.35c-0.54-0.64-1.04-1.29-1.51-1.96
				c-0.74-1.04-1.39-2.13-1.96-3.26c-0.23-0.5-0.47-1-0.7-1.51c-1.14-2.61-2.01-5.56-2.61-8.84c-2.24-11.72-0.79-24.66,4.37-38.82
				c0.07-0.3,0.17-0.59,0.3-0.85c4.99-13.29,11.94-23.94,20.84-31.94c0.27-0.27,0.55-0.52,0.85-0.75c2.85-2.44,5.66-4.39,8.44-5.83
				c2.51-1.37,4.99-2.34,7.43-2.91c2.54-0.6,5.06-0.75,7.53-0.45c0.44,0.03,0.89,0.1,1.36,0.2c0.44,0.07,0.92,0.17,1.46,0.3
				c0.2,0.07,0.4,0.13,0.6,0.2h0.03c0.63,0.17,1.25,0.41,1.88,0.7l2.61,1.31c5.19,3.08,8.77,8.62,10.75,16.62
				c0.17,0.84,0.35,1.72,0.55,2.66c0.2,0.87,0.35,1.74,0.45,2.61c1.67,11.08,0.12,23.19-4.67,36.31
				c-5.19,14.13-12.57,25.28-22.15,33.45c-4.08,3.55-8.07,6.11-11.95,7.68c-0.33,0.07-0.69,0.18-1.05,0.35
				c-1.31,0.47-2.58,0.82-3.82,1.05c-3.42,0.67-6.71,0.52-9.89-0.45c0-0.03-0.02-0.05-0.05-0.05L66.51,131.67z M101.76,31.93
				c-2.28-0.3-4.59-0.17-6.93,0.4c-2.28,0.54-4.57,1.46-6.88,2.76c-2.54,1.34-5.14,3.16-7.78,5.47c-0.27,0.23-0.52,0.47-0.75,0.7
				c-8.2,7.57-14.61,17.61-19.23,30.13c-0.1,0.23-0.18,0.5-0.25,0.8c-4.75,13.36-6.11,25.56-4.07,36.61
				c0.57,3.08,1.37,5.84,2.41,8.29c0.23,0.5,0.45,0.99,0.65,1.46c0.54,1.07,1.14,2.09,1.81,3.06c0.44,0.64,0.9,1.26,1.41,1.86
				c0.07,0.1,0.15,0.2,0.25,0.3l0.05,0.05c0.37,0.43,0.75,0.84,1.15,1.21c1.84,1.74,3.98,3,6.43,3.77c0.17,0.07,0.33,0.12,0.5,0.15
				c2.91,0.94,5.96,1.09,9.14,0.45c1.14-0.2,2.31-0.52,3.52-0.95c0.33-0.17,0.67-0.29,1-0.35c3.55-1.47,7.21-3.88,11-7.23
				c8.84-7.7,15.63-18.21,20.39-31.54c4.42-12.35,5.86-23.75,4.32-34.2c-0.1-0.84-0.23-1.66-0.4-2.46c-0.2-0.9-0.37-1.74-0.5-2.51
				c-2.08-8.54-6.03-14.11-11.85-16.72c-0.7-0.37-1.46-0.65-2.26-0.85c-0.17-0.07-0.35-0.13-0.55-0.2c-0.47-0.13-0.9-0.23-1.31-0.3
				C102.58,32.02,102.16,31.97,101.76,31.93z"/>
			<path fill-rule="evenodd" clip-rule="evenodd" fill="#191A1E" d="M74.59,14.11l0.2-0.13l0.05,0.07h-0.05
				c-0.03,0-0.07,0.02-0.1,0.05H74.59z"/>
			<path fill-rule="evenodd" clip-rule="evenodd" fill="#191A1E" d="M74.59,14.11l0.2-0.13l0.05,0.07h-0.05
				c-0.03,0-0.07,0.02-0.1,0.05H74.59z"/>
			
				<linearGradient id="SVGID_1_" gradientUnits="userSpaceOnUse" x1="-362.0098" y1="-298.7788" x2="-393.6292" y2="-197.2271" gradientTransform="matrix(1.0044 0 0 1.0044 423.0634 363.2787)">
				<stop  offset="0" style="stop-color:#161719"/>
				<stop  offset="0.298" style="stop-color:#3D3F3A"/>
				<stop  offset="1" style="stop-color:#272B2C"/>
			</linearGradient>
			<path fill-rule="evenodd" clip-rule="evenodd" fill="url(#SVGID_1_)" d="M74.9,14.16l-0.3-0.05h0.1c0.03-0.03,0.07-0.05,0.1-0.05
				L74.9,14.16z"/>
			
				<linearGradient id="SVGID_2_" gradientUnits="userSpaceOnUse" x1="-362.0098" y1="-298.7788" x2="-393.6292" y2="-197.2271" gradientTransform="matrix(1.0044 0 0 1.0044 423.0634 363.2787)">
				<stop  offset="0" style="stop-color:#161719"/>
				<stop  offset="0.298" style="stop-color:#3D3F3A"/>
				<stop  offset="1" style="stop-color:#272B2C"/>
			</linearGradient>
			<path fill-rule="evenodd" clip-rule="evenodd" fill="url(#SVGID_2_)" d="M74.9,14.16l-0.3-0.05h0.1c0.03-0.03,0.07-0.05,0.1-0.05
				L74.9,14.16z"/>
			
				<linearGradient id="SVGID_3_" gradientUnits="userSpaceOnUse" x1="-339.8506" y1="-339.7485" x2="-384.4" y2="-251.7482" gradientTransform="matrix(1.0044 0 0 1.0044 423.0634 363.2787)">
				<stop  offset="0" style="stop-color:#594737"/>
				<stop  offset="0.2745" style="stop-color:#1C1714"/>
				<stop  offset="0.5412" style="stop-color:#161211"/>
				<stop  offset="0.698" style="stop-color:#241E17"/>
				<stop  offset="0.8157" style="stop-color:#10120F"/>
				<stop  offset="1" style="stop-color:#161513"/>
			</linearGradient>
			<path fill-rule="evenodd" clip-rule="evenodd" fill="url(#SVGID_3_)" d="M32.36,118.31c-0.8-0.8-1.56-1.64-2.26-2.51
				c-2.61-3.28-4.8-7.11-6.58-11.5c-5.26-12.92-5.49-27.2-0.7-42.84c0.07-0.3,0.17-0.6,0.3-0.9c4.72-14.7,12.67-26.45,23.85-35.25
				c0.33-0.3,0.69-0.59,1.05-0.85c3.62-2.68,7.25-4.82,10.9-6.43c5.06-2.34,10.28-3.65,15.67-3.92l0.3,0.05c0.03,0,0.07,0,0.1,0
				l32.24,16.32l-0.1,0.2c-0.2-0.07-0.4-0.13-0.6-0.2c-0.54-0.13-1.02-0.23-1.46-0.3c-0.47-0.1-0.92-0.17-1.36-0.2
				c-2.48-0.3-4.99-0.15-7.53,0.45c-2.44,0.57-4.92,1.54-7.43,2.91c-2.78,1.44-5.59,3.38-8.44,5.83c-0.3,0.23-0.59,0.49-0.85,0.75
				c-8.91,8-15.85,18.65-20.84,31.94c-0.13,0.27-0.23,0.55-0.3,0.85c-5.16,14.16-6.61,27.1-4.37,38.82c0.6,3.28,1.47,6.23,2.61,8.84
				c0.23,0.5,0.47,1,0.7,1.51c0.57,1.14,1.22,2.23,1.96,3.26c0.47,0.67,0.97,1.32,1.51,1.96c0.07,0.1,0.17,0.22,0.3,0.35l0.05,0.05
				c0.4,0.43,0.82,0.85,1.26,1.25c1.24,1.17,2.63,2.14,4.17,2.91l-33.85-13.06c-0.03-0.07-0.07-0.1-0.1-0.1
				C32.49,118.41,32.43,118.34,32.36,118.31z"/>
			
				<linearGradient id="SVGID_4_" gradientUnits="userSpaceOnUse" x1="-339.8506" y1="-339.7485" x2="-384.4" y2="-251.7482" gradientTransform="matrix(1.0044 0 0 1.0044 423.0634 363.2787)">
				<stop  offset="0" style="stop-color:#594737"/>
				<stop  offset="0.2745" style="stop-color:#1C1714"/>
				<stop  offset="0.5412" style="stop-color:#161211"/>
				<stop  offset="0.698" style="stop-color:#241E17"/>
				<stop  offset="0.8157" style="stop-color:#10120F"/>
				<stop  offset="1" style="stop-color:#161513"/>
			</linearGradient>
			<path fill-rule="evenodd" clip-rule="evenodd" fill="url(#SVGID_4_)" d="M32.36,118.31c-0.8-0.8-1.56-1.64-2.26-2.51
				c-2.61-3.28-4.8-7.11-6.58-11.5c-5.26-12.92-5.49-27.2-0.7-42.84c0.07-0.3,0.17-0.6,0.3-0.9c4.72-14.7,12.67-26.45,23.85-35.25
				c0.33-0.3,0.69-0.59,1.05-0.85c3.62-2.68,7.25-4.82,10.9-6.43c5.06-2.34,10.28-3.65,15.67-3.92l0.3,0.05c0.03,0,0.07,0,0.1,0
				l32.24,16.32l-0.1,0.2c-0.2-0.07-0.4-0.13-0.6-0.2c-0.54-0.13-1.02-0.23-1.46-0.3c-0.47-0.1-0.92-0.17-1.36-0.2
				c-2.48-0.3-4.99-0.15-7.53,0.45c-2.44,0.57-4.92,1.54-7.43,2.91c-2.78,1.44-5.59,3.38-8.44,5.83c-0.3,0.23-0.59,0.49-0.85,0.75
				c-8.91,8-15.85,18.65-20.84,31.94c-0.13,0.27-0.23,0.55-0.3,0.85c-5.16,14.16-6.61,27.1-4.37,38.82c0.6,3.28,1.47,6.23,2.61,8.84
				c0.23,0.5,0.47,1,0.7,1.51c0.57,1.14,1.22,2.23,1.96,3.26c0.47,0.67,0.97,1.32,1.51,1.96c0.07,0.1,0.17,0.22,0.3,0.35l0.05,0.05
				c0.4,0.43,0.82,0.85,1.26,1.25c1.24,1.17,2.63,2.14,4.17,2.91l-33.85-13.06c-0.03-0.07-0.07-0.1-0.1-0.1
				C32.49,118.41,32.43,118.34,32.36,118.31z"/>
			
				<linearGradient id="SVGID_5_" gradientUnits="userSpaceOnUse" x1="-354.3198" y1="-251.9375" x2="-297.9478" y2="-332.8395" gradientTransform="matrix(1.0044 0 0 1.0044 423.0634 363.2787)">
				<stop  offset="0" style="stop-color:#000000"/>
				<stop  offset="1" style="stop-color:#161513"/>
			</linearGradient>
			<path fill-rule="evenodd" clip-rule="evenodd" fill="url(#SVGID_5_)" d="M101.76,31.93c0.4,0.03,0.82,0.08,1.25,0.15
				c0.4,0.07,0.84,0.17,1.31,0.3c0.2,0.07,0.39,0.13,0.55,0.2c0.8,0.2,1.56,0.49,2.26,0.85c5.83,2.61,9.78,8.19,11.85,16.72
				c0.13,0.77,0.3,1.61,0.5,2.51c0.17,0.8,0.3,1.62,0.4,2.46c1.54,10.45,0.1,21.85-4.32,34.2c-4.75,13.33-11.55,23.84-20.39,31.54
				c-3.78,3.35-7.45,5.76-11,7.23c-0.33,0.07-0.67,0.18-1,0.35c-1.21,0.43-2.38,0.75-3.52,0.95c-3.18,0.64-6.23,0.49-9.14-0.45
				c-0.17-0.03-0.33-0.08-0.5-0.15c-2.44-0.77-4.59-2.03-6.43-3.77c-0.4-0.37-0.79-0.77-1.15-1.21l-0.05-0.05
				c-0.1-0.1-0.18-0.2-0.25-0.3c-0.5-0.6-0.97-1.22-1.41-1.86c-0.67-0.97-1.27-1.99-1.81-3.06c-0.2-0.47-0.42-0.95-0.65-1.46
				c-1.04-2.44-1.84-5.21-2.41-8.29c-2.04-11.05-0.69-23.25,4.07-36.61c0.07-0.3,0.15-0.57,0.25-0.8
				c4.62-12.52,11.03-22.57,19.23-30.13c0.23-0.23,0.49-0.47,0.75-0.7c2.65-2.31,5.24-4.13,7.78-5.47c2.31-1.31,4.6-2.23,6.88-2.76
				C97.18,31.77,99.49,31.63,101.76,31.93z"/>
			
				<linearGradient id="SVGID_6_" gradientUnits="userSpaceOnUse" x1="-354.3198" y1="-251.9375" x2="-297.9478" y2="-332.8395" gradientTransform="matrix(1.0044 0 0 1.0044 423.0634 363.2787)">
				<stop  offset="0" style="stop-color:#000000"/>
				<stop  offset="1" style="stop-color:#161513"/>
			</linearGradient>
			<path fill-rule="evenodd" clip-rule="evenodd" fill="url(#SVGID_6_)" d="M101.76,31.93c0.4,0.03,0.82,0.08,1.25,0.15
				c0.4,0.07,0.84,0.17,1.31,0.3c0.2,0.07,0.39,0.13,0.55,0.2c0.8,0.2,1.56,0.49,2.26,0.85c5.83,2.61,9.78,8.19,11.85,16.72
				c0.13,0.77,0.3,1.61,0.5,2.51c0.17,0.8,0.3,1.62,0.4,2.46c1.54,10.45,0.1,21.85-4.32,34.2c-4.75,13.33-11.55,23.84-20.39,31.54
				c-3.78,3.35-7.45,5.76-11,7.23c-0.33,0.07-0.67,0.18-1,0.35c-1.21,0.43-2.38,0.75-3.52,0.95c-3.18,0.64-6.23,0.49-9.14-0.45
				c-0.17-0.03-0.33-0.08-0.5-0.15c-2.44-0.77-4.59-2.03-6.43-3.77c-0.4-0.37-0.79-0.77-1.15-1.21l-0.05-0.05
				c-0.1-0.1-0.18-0.2-0.25-0.3c-0.5-0.6-0.97-1.22-1.41-1.86c-0.67-0.97-1.27-1.99-1.81-3.06c-0.2-0.47-0.42-0.95-0.65-1.46
				c-1.04-2.44-1.84-5.21-2.41-8.29c-2.04-11.05-0.69-23.25,4.07-36.61c0.07-0.3,0.15-0.57,0.25-0.8
				c4.62-12.52,11.03-22.57,19.23-30.13c0.23-0.23,0.49-0.47,0.75-0.7c2.65-2.31,5.24-4.13,7.78-5.47c2.31-1.31,4.6-2.23,6.88-2.76
				C97.18,31.77,99.49,31.63,101.76,31.93z"/>
			
				<linearGradient id="SVGID_7_" gradientUnits="userSpaceOnUse" x1="-366.5508" y1="-353.2656" x2="-411.1002" y2="-265.2653" gradientTransform="matrix(1.0044 0 0 1.0044 423.0634 363.2787)">
				<stop  offset="0" style="stop-color:#463A2C"/>
				<stop  offset="0.2745" style="stop-color:#1C1714"/>
				<stop  offset="0.5412" style="stop-color:#161211"/>
				<stop  offset="0.6118" style="stop-color:#1B1D1C"/>
				<stop  offset="0.698" style="stop-color:#10120F"/>
				<stop  offset="1" style="stop-color:#161513"/>
			</linearGradient>
			<path fill-rule="evenodd" clip-rule="evenodd" fill="url(#SVGID_7_)" d="M26.08,114.75l-0.15,0.38l-8.14-3.14
				c-1.1-0.37-2.39-1.86-3.87-4.47c-1.14-1.74-2.44-4.32-3.92-7.73c-0.3-0.7-0.62-1.47-0.96-2.31C3.8,84.31,3.57,69.78,8.36,53.88
				c0.07-0.33,0.17-0.65,0.3-0.95c4.72-14.93,12.67-26.88,23.85-35.86c0.33-0.3,0.69-0.59,1.05-0.85c3.62-2.75,7.25-4.94,10.9-6.58
				c1.71-0.8,3.67-1.62,5.88-2.46c2.01-0.87,3.97-1.02,5.88-0.45l14.66,4.62c-5.36,0.13-10.68,1.44-15.97,3.92
				c-3.65,1.64-7.28,3.83-10.9,6.58c-0.37,0.27-0.72,0.55-1.05,0.85C31.77,31.67,23.82,43.62,19.1,58.55
				c-0.13,0.3-0.23,0.62-0.3,0.95c-4.79,15.9-4.55,30.43,0.7,43.59C21.28,107.55,23.47,111.43,26.08,114.75z"/>
			
				<linearGradient id="SVGID_8_" gradientUnits="userSpaceOnUse" x1="-366.5508" y1="-353.2656" x2="-411.1002" y2="-265.2653" gradientTransform="matrix(1.0044 0 0 1.0044 423.0634 363.2787)">
				<stop  offset="0" style="stop-color:#463A2C"/>
				<stop  offset="0.2745" style="stop-color:#1C1714"/>
				<stop  offset="0.5412" style="stop-color:#161211"/>
				<stop  offset="0.6118" style="stop-color:#1B1D1C"/>
				<stop  offset="0.698" style="stop-color:#10120F"/>
				<stop  offset="1" style="stop-color:#161513"/>
			</linearGradient>
			<path fill-rule="evenodd" clip-rule="evenodd" fill="url(#SVGID_8_)" d="M26.08,114.75l-0.15,0.38l-8.14-3.14
				c-1.1-0.37-2.39-1.86-3.87-4.47c-1.14-1.74-2.44-4.32-3.92-7.73c-0.3-0.7-0.62-1.47-0.96-2.31C3.8,84.31,3.57,69.78,8.36,53.88
				c0.07-0.33,0.17-0.65,0.3-0.95c4.72-14.93,12.67-26.88,23.85-35.86c0.33-0.3,0.69-0.59,1.05-0.85c3.62-2.75,7.25-4.94,10.9-6.58
				c1.71-0.8,3.67-1.62,5.88-2.46c2.01-0.87,3.97-1.02,5.88-0.45l14.66,4.62c-5.36,0.13-10.68,1.44-15.97,3.92
				c-3.65,1.64-7.28,3.83-10.9,6.58c-0.37,0.27-0.72,0.55-1.05,0.85C31.77,31.67,23.82,43.62,19.1,58.55
				c-0.13,0.3-0.23,0.62-0.3,0.95c-4.79,15.9-4.55,30.43,0.7,43.59C21.28,107.55,23.47,111.43,26.08,114.75z"/>
			
				<linearGradient id="SVGID_9_" gradientUnits="userSpaceOnUse" x1="-382.7935" y1="-331.6299" x2="-395.7036" y2="-242.8064" gradientTransform="matrix(1.0044 0 0 1.0044 423.0634 363.2787)">
				<stop  offset="0" style="stop-color:#121015"/>
				<stop  offset="0.298" style="stop-color:#333532"/>
				<stop  offset="0.5255" style="stop-color:#232426"/>
				<stop  offset="0.8471" style="stop-color:#464646"/>
				<stop  offset="1" style="stop-color:#212528"/>
			</linearGradient>
			<path fill-rule="evenodd" clip-rule="evenodd" fill="url(#SVGID_9_)" d="M25.93,115.12l0.15-0.38c0.03,0.03,0.07,0.07,0.1,0.1
				c0.1,0.13,0.22,0.28,0.35,0.45v0.05h-0.03L25.93,115.12z"/>
			
				<linearGradient id="SVGID_10_" gradientUnits="userSpaceOnUse" x1="-382.7935" y1="-331.6299" x2="-395.7036" y2="-242.8064" gradientTransform="matrix(1.0044 0 0 1.0044 423.0634 363.2787)">
				<stop  offset="0" style="stop-color:#121015"/>
				<stop  offset="0.298" style="stop-color:#333532"/>
				<stop  offset="0.5255" style="stop-color:#232426"/>
				<stop  offset="0.8471" style="stop-color:#464646"/>
				<stop  offset="1" style="stop-color:#212528"/>
			</linearGradient>
			<path fill-rule="evenodd" clip-rule="evenodd" fill="url(#SVGID_10_)" d="M25.93,115.12l0.15-0.38c0.03,0.03,0.07,0.07,0.1,0.1
				c0.1,0.13,0.22,0.28,0.35,0.45v0.05h-0.03L25.93,115.12z"/>
		</g>
	</g>
	<g>
		
			<radialGradient id="SVGID_11_" cx="-389.8501" cy="-327.3501" r="33.55" gradientTransform="matrix(1.0044 0 0 1.0044 423.0634 363.2787)" gradientUnits="userSpaceOnUse">
			<stop  offset="0" style="stop-color:#FFFFFF;stop-opacity:0.3333"/>
			<stop  offset="1" style="stop-color:#FDFDFD;stop-opacity:0"/>
		</radialGradient>
		<path fill-rule="evenodd" clip-rule="evenodd" fill="url(#SVGID_11_)" d="M58.42,13.13c0.06,0.03,0.1,0.08,0.13,0.15
			c0.03,0.06,0.03,0.12,0,0.18c-0.03,0.06-0.08,0.1-0.15,0.13c-1.13,0.4-2.24,0.87-3.34,1.41c-3.63,1.63-7.25,3.82-10.85,6.55
			c-0.36,0.26-0.7,0.54-1.03,0.83l-0.02,0.02C32.02,31.33,24.1,43.24,19.4,58.12l-0.02,0.03c-0.13,0.29-0.22,0.59-0.28,0.9v0.02
			c-4.78,15.84-4.55,30.31,0.68,43.42c0.97,2.43,2.08,4.69,3.31,6.75c0.03,0.05,0.04,0.11,0.02,0.18c-0.02,0.07-0.06,0.13-0.13,0.18
			c-0.06,0.03-0.11,0.04-0.18,0.03c-0.07-0.02-0.13-0.06-0.18-0.13c-1.24-2.08-2.34-4.35-3.31-6.8c-5.29-13.21-5.53-27.8-0.73-43.77
			c0.08-0.34,0.19-0.67,0.33-0.98l-0.03,0.03C23.64,43,31.62,31.02,42.83,22.02l0.03-0.02c0.34-0.3,0.69-0.58,1.05-0.85
			c3.63-2.76,7.28-4.96,10.95-6.6c1.11-0.54,2.24-1,3.39-1.41C58.31,13.1,58.37,13.1,58.42,13.13z"/>
	</g>
	<g>
		
			<radialGradient id="SVGID_12_" cx="-362.7554" cy="-313.2002" r="42.3875" gradientTransform="matrix(1.0044 0 -0.3012 1.2387 333.8978 436.6572)" gradientUnits="userSpaceOnUse">
			<stop  offset="0" style="stop-color:#FFFFFF;stop-opacity:0.1412"/>
			<stop  offset="1" style="stop-color:#FDFDFD;stop-opacity:0"/>
		</radialGradient>
		<path fill-rule="evenodd" clip-rule="evenodd" fill="url(#SVGID_12_)" d="M74.02,45.52h0.03C65.23,55.56,59.1,67.67,55.66,81.85
			c-3.47,14.17-3.25,26.26,0.68,36.26c1.03,2.66,2.26,4.95,3.69,6.88c0.04,0.05,0.06,0.11,0.05,0.17c-0.01,0.07-0.04,0.13-0.1,0.18
			c-0.05,0.04-0.11,0.06-0.18,0.05c-0.07-0.01-0.13-0.04-0.18-0.1c-1.45-1.96-2.7-4.28-3.74-6.98c-3.98-10.08-4.22-22.27-0.73-36.56
			c3.46-14.28,9.62-26.47,18.48-36.58h0.03c8.93-10.07,17.94-15.1,27.04-15.09c2.2,0,4.25,0.3,6.15,0.9
			c0.07,0.02,0.12,0.06,0.15,0.13c0.03,0.06,0.04,0.13,0.02,0.2c-0.02,0.07-0.06,0.12-0.13,0.15c-0.07,0.03-0.13,0.04-0.2,0.02
			c-1.85-0.6-3.85-0.9-6-0.9C91.73,30.59,82.83,35.57,74.02,45.52z"/>
	</g>
	<g>
		<path fill-rule="evenodd" clip-rule="evenodd" fill="#B4B1AC" d="M98.85,49.51l16.62,7.93c-5.63,1.31-10.81,4.57-15.57,9.79
			C92.77,75,88.71,84.86,87.7,96.82c-0.6,6.93-0.07,13.41,1.61,19.43L75,109.07c-4.15-5.09-5.54-12.96-4.17-23.6
			c1.37-10.68,5.19-19.28,11.45-25.81C88.54,53.06,94.06,49.68,98.85,49.51z"/>
		<g>
			<g>
				<g>
					
						<linearGradient id="SVGID_13_" gradientUnits="userSpaceOnUse" x1="-315.145" y1="-309.2651" x2="-341.17" y2="-261.4901" gradientTransform="matrix(1.0044 0 0 1.0044 423.0634 363.2787)">
						<stop  offset="0" style="stop-color:#463A2C"/>
						<stop  offset="0.2745" style="stop-color:#1C1714"/>
						<stop  offset="0.5412" style="stop-color:#161211"/>
						<stop  offset="0.6118" style="stop-color:#1B1D1C"/>
						<stop  offset="0.698" style="stop-color:#10120F"/>
						<stop  offset="1" style="stop-color:#161513"/>
					</linearGradient>
					<path fill-rule="evenodd" clip-rule="evenodd" fill="url(#SVGID_13_)" d="M94.33,119.21l-15.97-6.48
						c-0.07-0.07-0.13-0.1-0.2-0.1c-3.28-1.44-5.84-4.32-7.68-8.64c-2.65-6.26-2.98-13.86-1-22.8c1.98-8.94,5.72-16.57,11.25-22.9
						c5.52-6.33,11.2-9.49,17.02-9.49c2.04,0,3.92,0.4,5.63,1.21c0.4,0.17,0.82,0.35,1.25,0.55l18.08,9.01
						c-0.12-0.05-0.23-0.1-0.35-0.13l-0.35-0.1c-0.2-0.03-0.4-0.07-0.6-0.1c-0.23-0.07-0.45-0.12-0.65-0.15
						c-0.3-0.06-0.4-0.09-0.28-0.1h0.48l-1.66-0.2c-0.54-0.07-1.07-0.1-1.61-0.1l-3.87,0.6c-1.34,0.33-2.66,0.89-3.97,1.66
						c-0.07,0.03-0.13,0.08-0.2,0.15c-1.61,0.94-3.18,2.18-4.72,3.72c-1,0.9-1.99,1.91-2.96,3.01C96.61,74,92.76,81.4,90.41,90.04
						c-1.71,6.29-2.28,11.9-1.71,16.82c0.1,0.7,0.22,1.42,0.35,2.16c0.2,0.97,0.45,1.92,0.75,2.86c0.03,0.1,0.07,0.18,0.1,0.25
						C90.95,115.35,92.42,117.71,94.33,119.21z"/>
					
						<linearGradient id="SVGID_14_" gradientUnits="userSpaceOnUse" x1="-370.1592" y1="-249.6631" x2="-326.8627" y2="-249.6631" gradientTransform="matrix(0.584 -0.8171 0.8407 0.551 518.4826 -60.828)">
						<stop  offset="0" style="stop-color:#141411"/>
						<stop  offset="0.5882" style="stop-color:#2F322C"/>
						<stop  offset="1" style="stop-color:#241C17"/>
					</linearGradient>
					<path fill-rule="evenodd" clip-rule="evenodd" fill="url(#SVGID_14_)" d="M97.29,120.52l-2.41-0.95
						c-0.2-0.1-0.39-0.22-0.55-0.35c-1.91-1.51-3.38-3.87-4.42-7.08c-0.03-0.07-0.07-0.15-0.1-0.25c-0.3-0.94-0.55-1.89-0.75-2.86
						c-0.13-0.74-0.25-1.46-0.35-2.16c-0.57-4.92,0-10.53,1.71-16.82c2.34-8.64,6.19-16.04,11.55-22.2
						c0.97-1.11,1.96-2.11,2.96-3.01c1.54-1.54,3.11-2.78,4.72-3.72c0.07-0.07,0.13-0.12,0.2-0.15c1.31-0.77,2.63-1.32,3.97-1.66
						l3.87-0.6c0.54,0,1.07,0.03,1.61,0.1l1.66,0.2h-0.48c-3.54,0.07-6.55,0.84-9.01,2.31c-0.1,0.03-0.18,0.08-0.25,0.15
						c-1.57,0.94-3.16,2.18-4.77,3.72c-0.97,0.87-1.96,1.88-2.96,3.01c-4.59,5.36-8.07,11.63-10.45,18.83
						c-0.37,1.07-0.72,2.19-1.05,3.36c-1.71,6.29-2.26,11.89-1.66,16.77c0.03,0.74,0.13,1.46,0.3,2.16c0.2,1,0.45,1.98,0.75,2.91
						c0,0.1,0.02,0.18,0.05,0.25c1.04,3.21,2.53,5.59,4.47,7.13c0.2,0.17,0.4,0.32,0.6,0.45C96.72,120.24,96.99,120.39,97.29,120.52
						z"/>
					
						<linearGradient id="SVGID_15_" gradientUnits="userSpaceOnUse" x1="-405.1821" y1="-329.2549" x2="-378.5636" y2="-329.2549" gradientTransform="matrix(0.3151 0.9537 -0.9001 0.4773 -85.8519 549.8234)">
						<stop  offset="0" style="stop-color:#321F19"/>
						<stop  offset="1" style="stop-color:#0F0B0A"/>
					</linearGradient>
					<path fill-rule="evenodd" clip-rule="evenodd" fill="url(#SVGID_15_)" d="M122.7,59.58l0.05,0.03c0.03,0,0.07,0.02,0.1,0.05
						c3.21,1.14,5.54,3.98,6.98,8.54c2.04,6.16,1.89,13.56-0.45,22.2c-2.38,8.64-6.24,16-11.6,22.1c-5.29,6.16-10.5,9.24-15.62,9.24
						c-1.57,0-3-0.28-4.27-0.85c-0.2-0.1-0.4-0.22-0.6-0.35c-0.3-0.13-0.57-0.29-0.8-0.45c-0.2-0.13-0.4-0.28-0.6-0.45
						c-1.94-1.54-3.43-3.92-4.47-7.13c-0.03-0.07-0.05-0.15-0.05-0.25c-0.3-0.94-0.55-1.91-0.75-2.91c-0.17-0.7-0.27-1.42-0.3-2.16
						c-0.6-4.89-0.05-10.48,1.66-16.77c0.33-1.17,0.69-2.29,1.05-3.36c2.38-7.2,5.86-13.48,10.45-18.83c1-1.14,1.99-2.14,2.96-3.01
						c1.61-1.54,3.2-2.78,4.77-3.72c0.07-0.07,0.15-0.12,0.25-0.15c2.47-1.47,5.47-2.24,9.01-2.31c-0.12,0.01-0.03,0.04,0.28,0.1
						c0.2,0.03,0.42,0.08,0.65,0.15c0.2,0.03,0.4,0.07,0.6,0.1l0.35,0.1C122.47,59.48,122.59,59.53,122.7,59.58z"/>
				</g>
			</g>
		</g>
		<g>
			
				<radialGradient id="SVGID_16_" cx="-346.856" cy="-322.6494" r="16.3014" gradientTransform="matrix(-0.2441 0.9743 -0.2588 -0.0562 -76.0555 406.208)" gradientUnits="userSpaceOnUse">
				<stop  offset="0" style="stop-color:#FFFFFF;stop-opacity:0.6902"/>
				<stop  offset="0.1725" style="stop-color:#FFFFFF;stop-opacity:0.2118"/>
				<stop  offset="0.3529" style="stop-color:#FEFEFE;stop-opacity:0.0706"/>
				<stop  offset="0.8" style="stop-color:#FEFEFE;stop-opacity:0"/>
				<stop  offset="1" style="stop-color:#FAFAFA;stop-opacity:0"/>
			</radialGradient>
			<path fill-rule="evenodd" clip-rule="evenodd" fill="url(#SVGID_16_)" d="M95.03,70.5c0.84,0.17,1.17,1.92,1,5.27
				c-0.13,2.95-0.75,6.56-1.86,10.85c-1,4.08-2.16,7.6-3.46,10.55c-1.34,2.61-2.44,3.83-3.32,3.67c-0.8-0.13-1.12-1.72-0.95-4.77
				c0.1-3.08,0.65-6.66,1.66-10.75c1.11-4.29,2.33-7.83,3.67-10.65C93.11,71.72,94.2,70.33,95.03,70.5z"/>
		</g>
		<g>
			
				<radialGradient id="SVGID_17_" cx="-396.9146" cy="-315.291" r="8.6583" gradientTransform="matrix(-0.7598 0.6569 -0.3132 -0.4278 -291.6375 188.5667)" gradientUnits="userSpaceOnUse">
				<stop  offset="0" style="stop-color:#FFFFFF;stop-opacity:0.6902"/>
				<stop  offset="0.1725" style="stop-color:#FFFFFF;stop-opacity:0.2118"/>
				<stop  offset="0.3529" style="stop-color:#FEFEFE;stop-opacity:0.0706"/>
				<stop  offset="0.8" style="stop-color:#FEFEFE;stop-opacity:0"/>
				<stop  offset="1" style="stop-color:#FAFAFA;stop-opacity:0"/>
			</radialGradient>
			<path fill-rule="evenodd" clip-rule="evenodd" fill="url(#SVGID_17_)" d="M101.91,67.09c-0.54-0.7-0.37-1.83,0.5-3.37
				c0.8-1.61,2.04-3.15,3.72-4.62c1.77-1.51,3.46-2.53,5.07-3.06c1.64-0.57,2.73-0.5,3.26,0.2c0.57,0.74,0.38,1.93-0.55,3.57
				c-0.8,1.57-2.09,3.11-3.87,4.62c-1.67,1.47-3.35,2.49-5.02,3.06C103.52,67.96,102.48,67.82,101.91,67.09z"/>
		</g>
	</g>
</g>
</svg>
