<?xml version="1.0" encoding="utf-8"?>
<!-- Generator: Adobe Illustrator 16.0.0, SVG Export Plug-In . SVG Version: 6.00 Build 0)  -->
<!DOCTYPE svg PUBLIC "-//W3C//DTD SVG 1.1//EN" "http://www.w3.org/Graphics/SVG/1.1/DTD/svg11.dtd">
<svg version="1.1" xmlns="http://www.w3.org/2000/svg" xmlns:xlink="http://www.w3.org/1999/xlink" x="0px" y="0px" width="243px"
	 height="332px" viewBox="0 0 243 332" enable-background="new 0 0 243 332" xml:space="preserve">
<g id="Blue">
</g>
<g id="Green">
</g>
<g id="Red">
</g>
<g id="Yellow">
	<g>
		<g>
			
				<linearGradient id="SVGID_1_" gradientUnits="userSpaceOnUse" x1="-263.4165" y1="-13.6606" x2="53.0587" y2="-36.0766" gradientTransform="matrix(0.6907 0 0 0.6907 192.3681 176.4341)">
				<stop  offset="0" style="stop-color:#FFFFFF;stop-opacity:0.2"/>
				<stop  offset="0.251" style="stop-color:#FFFFFF;stop-opacity:0.2"/>
				<stop  offset="0.4902" style="stop-color:#FFFFFF;stop-opacity:0"/>
				<stop  offset="0.5961" style="stop-color:#FEFEFE;stop-opacity:0"/>
				<stop  offset="0.7137" style="stop-color:#FEFEFE;stop-opacity:0.2118"/>
				<stop  offset="0.8314" style="stop-color:#FEFEFE;stop-opacity:0.2"/>
				<stop  offset="1" style="stop-color:#FDFDFD;stop-opacity:0.2"/>
			</linearGradient>
			<path fill-rule="evenodd" clip-rule="evenodd" fill="url(#SVGID_1_)" d="M85.62,154.06c0,0.02,0.01,0.05,0.03,0.07
				c0,0.02,0.01,0.05,0.04,0.07v0.07c0,0.02,0.01,0.03,0.03,0.03v0.07h0.03v0.03l0.04,0.03v0.03h0.03c0.02,0.02,0.05,0.03,0.07,0.03
				s0.03,0.01,0.03,0.03c0.02,0,0.05,0,0.07,0h0.07c0.02,0,0.05,0,0.07,0h0.03c0-0.02,0.01-0.03,0.03-0.03h0.04
				c0.35-0.02,0.68-0.03,1-0.03c0.02,0,0.05,0,0.07,0h0.04l0.03-0.03c0.02,0,0.05-0.01,0.07-0.03h0.03v-0.03l0.07-0.07v-0.03
				c0.14-0.05,0.23-0.09,0.28-0.14c0-0.02,0-0.05,0-0.07c0-0.09-0.12-0.17-0.35-0.24c-0.04-0.02-0.1-0.03-0.17-0.03
				c-0.16-0.02-0.36-0.03-0.59-0.03c-0.21,0-0.39,0.01-0.55,0.03H86.1c-0.02,0-0.03,0.01-0.03,0.03c-0.05,0-0.09,0-0.14,0
				C85.72,153.88,85.62,153.96,85.62,154.06z M85.34,153.99h-0.04l-0.03-0.03c-0.02,0-0.05,0-0.07,0c-0.09,0-0.2,0-0.31,0h-0.03
				c-0.02,0-0.05,0.01-0.07,0.03h-0.03c-0.02,0-0.05,0.01-0.07,0.03l-0.07,0.07v0.03c-0.02,0-0.04,0.01-0.04,0.03v0.03
				c-0.02,0-0.04,0.01-0.04,0.03v0.24h0.04v0.07l0.1,0.1v0.03h0.04v0.03l0.03,0.03v0.03h0.03l0.04,0.04c-0.39,0-0.76,0.01-1.11,0.03
				c0.46-0.09,0.69-0.18,0.69-0.28c0-0.12-0.25-0.22-0.76-0.31c-0.37-0.05-0.77-0.07-1.21-0.07c-0.09-0.02-0.2-0.03-0.31-0.03
				c0.09-0.05,0.14-0.09,0.14-0.14c0-0.09-0.22-0.17-0.66-0.24c-0.32-0.05-0.7-0.08-1.14-0.1v-0.24c-0.02,0-0.04-0.01-0.04-0.03
				v-0.03l-0.1-0.1c-0.02-0.02-0.05-0.03-0.07-0.03h-0.04c-0.02-0.02-0.05-0.03-0.07-0.03h-0.04l-0.03-0.03c-0.02,0-0.05,0-0.07,0
				c-0.07,0-0.15,0-0.24,0h-0.03c-0.02,0-0.05,0.01-0.07,0.03h-0.07c-0.02,0-0.05,0-0.07,0h-0.03c-0.02,0-0.05,0.01-0.07,0.03H79.4
				c-0.02,0-0.05,0.01-0.07,0.03l-0.07,0.07v0.03c-0.02,0-0.03,0.01-0.03,0.03v0.03c-0.02,0-0.04,0.01-0.04,0.03v0.14
				c0,0.02,0.01,0.03,0.04,0.03v0.07c-0.3,0-0.56,0.02-0.79,0.07c-0.44,0.07-0.66,0.15-0.66,0.24c0,0.09,0.22,0.17,0.66,0.24
				c0.3,0.05,0.63,0.08,1,0.1c0.02,0,0.04,0,0.07,0c-0.28,0.05-0.42,0.12-0.42,0.21c0,0.09,0.26,0.18,0.79,0.28
				c0.48,0.09,1.08,0.14,1.8,0.14c-0.21,0.02-0.4,0.05-0.59,0.07c-1.43,0.18-2.14,0.4-2.14,0.66c0,0.25,0.71,0.46,2.14,0.62
				c1.45,0.21,3.2,0.31,5.25,0.31s3.79-0.1,5.21-0.31c1.45-0.16,2.18-0.37,2.18-0.62c0-0.25-0.73-0.47-2.18-0.66
				c-1.43-0.18-3.17-0.28-5.21-0.28c-0.32,0-0.64,0-0.97,0l0.14-0.14v-0.07h0.03v-0.38c-0.02,0-0.03-0.01-0.03-0.03v-0.03l-0.1-0.1
				C85.39,154,85.37,153.99,85.34,153.99z M88,143.31c0.48-0.07,1.09-0.05,1.83,0.07l139.07,18.03c0.28,0.05,0.44,0.12,0.48,0.21
				v0.04l-27.28,7.15c-0.62,0.25-1.32,0.29-2.11,0.1l-21.62-3.18c-0.88-0.18-1.97-0.2-3.28-0.03l-45.41,11.05
				c-0.81,0.09-1.82-0.01-3.04-0.31c-38.5-6.79-76.86-13.5-115.11-20.13c-1.8-0.25-1.77-0.55,0.07-0.9L88,143.31z"/>
		</g>
		<g>
			<g>
				
					<radialGradient id="SVGID_2_" cx="-162.1001" cy="-242.2002" r="30.3144" gradientTransform="matrix(0.6907 0 0 0.6508 192.3681 166.7602)" gradientUnits="userSpaceOnUse">
					<stop  offset="0" style="stop-color:#FEFDB4"/>
					<stop  offset="1" style="stop-color:#FFFF00"/>
				</radialGradient>
				<path fill-rule="evenodd" clip-rule="evenodd" fill="url(#SVGID_2_)" d="M101.02,8.56C86.84,10.4,73.1,10.78,59.79,9.7V9.63
					c0.07-0.16,0.66-0.32,1.76-0.48c0.67-0.23,2.23-0.44,4.7-0.62c0.35-0.02,0.72-0.05,1.14-0.07l1.17-0.1
					c2.74-0.18,5.47-0.3,8.18-0.35c2.74-0.05,6.37-0.07,10.88-0.07H88c0.09,0,0.18,0,0.28,0l1.31,0.03l0.03-0.03l4.18,0.03
					c0.64,0,1.05,0,1.21,0c3.29,0.12,5.25,0.29,5.87,0.52c0.02,0.02,0.06,0.03,0.1,0.03L101.02,8.56z"/>
				
					<linearGradient id="SVGID_3_" gradientUnits="userSpaceOnUse" x1="-163.2505" y1="-343.4761" x2="-160.4376" y2="-221.8019" gradientTransform="matrix(0.6907 0 0 0.6907 192.3681 176.4341)">
					<stop  offset="0" style="stop-color:#FFFF00"/>
					<stop  offset="1" style="stop-color:#FFFF00;stop-opacity:0"/>
				</linearGradient>
				<path fill-rule="evenodd" clip-rule="evenodd" fill="url(#SVGID_3_)" d="M101.02,8.56c0.02-0.02,0.06-0.03,0.1-0.03l21.55,31.84
					l-81.47-0.62L59.27,9.63c0.18,0.02,0.36,0.05,0.52,0.07C73.1,10.78,86.84,10.4,101.02,8.56z"/>
				
					<linearGradient id="SVGID_4_" gradientUnits="userSpaceOnUse" x1="-212.6001" y1="-29.6641" x2="-122.2001" y2="-29.6641" gradientTransform="matrix(0.6907 0 0 0.6907 192.3681 176.4341)">
					<stop  offset="0" style="stop-color:#FFFF00;stop-opacity:0.5608"/>
					<stop  offset="1" style="stop-color:#C4EF81;stop-opacity:0"/>
				</linearGradient>
				<path fill-rule="evenodd" clip-rule="evenodd" fill="url(#SVGID_4_)" d="M70.18,160.62c-2.51-0.32-4.87-0.69-7.08-1.11
					c-6.49-1.27-9.74-2.68-9.74-4.25c0-1.59,3.25-2.87,9.74-3.83c2.21-0.35,4.57-0.61,7.08-0.79c4.9-0.39,10.41-0.53,16.51-0.41
					c9.21,0.21,17.07,0.94,23.59,2.21c6.52,1.24,9.77,2.66,9.77,4.25c0,1.57-3.26,2.84-9.77,3.83c-6.52,0.97-14.38,1.35-23.59,1.14
					C80.59,161.54,75.09,161.19,70.18,160.62z M86.17,153.78H86.1c-0.02,0-0.03,0.01-0.03,0.03H86c-0.02,0-0.05,0-0.07,0
					c-0.21,0.07-0.31,0.15-0.31,0.24c0,0.02,0.01,0.05,0.03,0.07c0,0.02,0.01,0.05,0.04,0.07v0.07c0,0.02,0.01,0.03,0.03,0.03v0.07
					h0.03v0.03l0.04,0.03v0.03h0.03c0.02,0.02,0.05,0.03,0.07,0.03s0.03,0.01,0.03,0.03c0.02,0,0.05,0,0.07,0h0.07
					c0.02,0,0.05,0,0.07,0h0.03c0-0.02,0.01-0.03,0.03-0.03h0.04c0.35-0.02,0.68-0.03,1-0.03c0.02,0,0.05,0,0.07,0h0.04l0.03-0.03
					c0.02,0,0.05-0.01,0.07-0.03h0.03v-0.03l0.07-0.07v-0.03c0.14-0.05,0.23-0.09,0.28-0.14c0-0.02,0-0.05,0-0.07
					c0-0.09-0.12-0.17-0.35-0.24c-0.04-0.02-0.1-0.03-0.17-0.03c-0.16-0.02-0.36-0.03-0.59-0.03
					C86.52,153.74,86.33,153.76,86.17,153.78z M91.56,155.06c-1.43-0.18-3.17-0.28-5.21-0.28c-0.32,0-0.64,0-0.97,0l0.14-0.14v-0.07
					h0.03v-0.38c-0.02,0-0.03-0.01-0.03-0.03v-0.03l-0.1-0.1c-0.02-0.02-0.04-0.03-0.07-0.03h-0.04l-0.03-0.03
					c-0.02,0-0.05,0-0.07,0c-0.09,0-0.2,0-0.31,0h-0.03c-0.02,0-0.05,0.01-0.07,0.03h-0.03c-0.02,0-0.05,0.01-0.07,0.03l-0.07,0.07
					v0.03c-0.02,0-0.04,0.01-0.04,0.03v0.03c-0.02,0-0.04,0.01-0.04,0.03v0.24h0.04v0.07l0.1,0.1v0.03h0.04v0.03l0.03,0.03v0.03
					h0.03l0.04,0.04c-0.39,0-0.76,0.01-1.11,0.03c0.46-0.09,0.69-0.18,0.69-0.28c0-0.12-0.25-0.22-0.76-0.31
					c-0.37-0.05-0.77-0.07-1.21-0.07c-0.09-0.02-0.2-0.03-0.31-0.03c0.09-0.05,0.14-0.09,0.14-0.14c0-0.09-0.22-0.17-0.66-0.24
					c-0.32-0.05-0.7-0.08-1.14-0.1v-0.24c-0.02,0-0.04-0.01-0.04-0.03v-0.03l-0.1-0.1c-0.02-0.02-0.05-0.03-0.07-0.03h-0.04
					c-0.02-0.02-0.05-0.03-0.07-0.03h-0.04l-0.03-0.03c-0.02,0-0.05,0-0.07,0c-0.07,0-0.15,0-0.24,0h-0.03
					c-0.02,0-0.05,0.01-0.07,0.03h-0.07c-0.02,0-0.05,0-0.07,0h-0.03c-0.02,0-0.05,0.01-0.07,0.03H79.4c-0.02,0-0.05,0.01-0.07,0.03
					l-0.07,0.07v0.03c-0.02,0-0.03,0.01-0.03,0.03v0.03c-0.02,0-0.04,0.01-0.04,0.03v0.14c0,0.02,0.01,0.03,0.04,0.03v0.07
					c-0.3,0-0.56,0.02-0.79,0.07c-0.44,0.07-0.66,0.15-0.66,0.24c0,0.09,0.22,0.17,0.66,0.24c0.3,0.05,0.63,0.08,1,0.1
					c0.02,0,0.04,0,0.07,0c-0.28,0.05-0.42,0.12-0.42,0.21c0,0.09,0.26,0.18,0.79,0.28c0.48,0.09,1.08,0.14,1.8,0.14
					c-0.21,0.02-0.4,0.05-0.59,0.07c-1.43,0.18-2.14,0.4-2.14,0.66c0,0.25,0.71,0.46,2.14,0.62c1.45,0.21,3.2,0.31,5.25,0.31
					s3.79-0.1,5.21-0.31c1.45-0.16,2.18-0.37,2.18-0.62C93.74,155.46,93.01,155.24,91.56,155.06z"/>
				
					<linearGradient id="SVGID_5_" gradientUnits="userSpaceOnUse" x1="29.7988" y1="-58.7246" x2="-47.251" y2="-58.7246" gradientTransform="matrix(0.6907 0 0 0.6907 192.3681 176.4341)">
					<stop  offset="0" style="stop-color:#FFFF00;stop-opacity:0.4"/>
					<stop  offset="1" style="stop-color:#FDFD7B;stop-opacity:0"/>
				</linearGradient>
				<polygon fill-rule="evenodd" clip-rule="evenodd" fill="url(#SVGID_5_)" points="159.77,136.62 159.73,134.92 171.61,132.47 
					212.95,136.75 198.9,138.86 182.77,139.27 166.33,137.51 165.71,137.38 				"/>
				
					<linearGradient id="SVGID_6_" gradientUnits="userSpaceOnUse" x1="156.9004" y1="-21.9995" x2="-36.0996" y2="-21.9995" gradientTransform="matrix(0.6907 0 0 0.6907 192.3681 176.4341)">
					<stop  offset="0" style="stop-color:#FFFF00;stop-opacity:0.5608"/>
					<stop  offset="1" style="stop-color:#FFFF00;stop-opacity:0"/>
				</linearGradient>
				<path fill-rule="evenodd" clip-rule="evenodd" fill="url(#SVGID_6_)" d="M186.53,166.94l-8.63-1.45l-0.62,0.14l-11.74,2.62
					l-0.03-0.17v-14.85l63.44,8.22c0.28,0.05,0.44,0.12,0.48,0.21v0.17l-28.66,7.43L186.53,166.94z"/>
				
					<linearGradient id="SVGID_7_" gradientUnits="userSpaceOnUse" x1="-262.2095" y1="2.7305" x2="54.2662" y2="-19.6855" gradientTransform="matrix(0.6907 0 0 0.6907 192.3681 176.4341)">
					<stop  offset="0" style="stop-color:#FFFFFF;stop-opacity:0.2"/>
					<stop  offset="0.251" style="stop-color:#FFFFFF;stop-opacity:0.2"/>
					<stop  offset="0.4902" style="stop-color:#FFFFFF;stop-opacity:0"/>
					<stop  offset="0.5961" style="stop-color:#FEFEFE;stop-opacity:0"/>
					<stop  offset="0.7137" style="stop-color:#FEFEFE;stop-opacity:0.2118"/>
					<stop  offset="0.8314" style="stop-color:#FEFEFE;stop-opacity:0.2"/>
					<stop  offset="1" style="stop-color:#FDFDFD;stop-opacity:0.2"/>
				</linearGradient>
				<path fill-rule="evenodd" clip-rule="evenodd" fill="url(#SVGID_7_)" d="M186.53,166.94l-8.12-1.17
					c-0.35-0.07-0.72-0.12-1.14-0.14l0.62-0.14L186.53,166.94z"/>
				
					<linearGradient id="SVGID_8_" gradientUnits="userSpaceOnUse" x1="156.9004" y1="-11.9751" x2="-36.0996" y2="-11.9751" gradientTransform="matrix(0.6907 0 0 0.6907 192.3681 176.4341)">
					<stop  offset="0" style="stop-color:#0000FF;stop-opacity:0.4118"/>
					<stop  offset="1" style="stop-color:#0000F7;stop-opacity:0"/>
				</linearGradient>
				<polygon fill-rule="evenodd" clip-rule="evenodd" fill="url(#SVGID_8_)" points="165.53,168.25 165.5,168.25 165.5,168.08 				
					"/>
				
					<linearGradient id="SVGID_9_" gradientUnits="userSpaceOnUse" x1="-154.5503" y1="-32.5752" x2="-151.3506" y2="-32.5752" gradientTransform="matrix(0.6907 0 0 0.6907 192.3681 176.4341)">
					<stop  offset="0" style="stop-color:#94E31C;stop-opacity:0.5608"/>
					<stop  offset="1" style="stop-color:#C0D17C;stop-opacity:0"/>
				</linearGradient>
				<path fill-rule="evenodd" clip-rule="evenodd" fill="url(#SVGID_9_)" d="M86.17,153.78c0.16-0.02,0.34-0.03,0.55-0.03
					c0.23,0,0.43,0.01,0.59,0.03c0.07,0,0.13,0.01,0.17,0.03c0.23,0.07,0.35,0.15,0.35,0.24c0,0.02,0,0.05,0,0.07
					c-0.04-0.05-0.14-0.09-0.28-0.14v-0.03l-0.1-0.1c-0.02-0.02-0.05-0.03-0.07-0.03h-0.03l-0.04-0.03c-0.02,0-0.05,0-0.07,0
					C86.9,153.78,86.54,153.78,86.17,153.78z M86,153.81c-0.02,0-0.05,0.01-0.07,0.03h-0.07c0,0.02-0.01,0.03-0.03,0.03l-0.03,0.03
					v0.03h-0.04c0,0.02-0.01,0.03-0.03,0.03v0.07h-0.03v0.03c-0.02,0-0.04,0.01-0.04,0.03c-0.02-0.02-0.03-0.05-0.03-0.07
					c0-0.09,0.1-0.17,0.31-0.24C85.95,153.81,85.98,153.81,86,153.81z"/>
				
					<linearGradient id="SVGID_10_" gradientUnits="userSpaceOnUse" x1="-270.3926" y1="-21.2905" x2="-180.2928" y2="-28.7679" gradientTransform="matrix(0.6907 0 0 0.6907 192.3681 176.4341)">
					<stop  offset="0" style="stop-color:#FFFF00;stop-opacity:0.5529"/>
					<stop  offset="0.4784" style="stop-color:#A8DB47;stop-opacity:0.4353"/>
					<stop  offset="1" style="stop-color:#C0D17C;stop-opacity:0"/>
				</linearGradient>
				<path fill-rule="evenodd" clip-rule="evenodd" fill="url(#SVGID_10_)" d="M70.18,150.64c-2.51,0.18-4.87,0.45-7.08,0.79
					c-6.49,0.97-9.74,2.24-9.74,3.83c0,1.57,3.25,2.98,9.74,4.25c2.21,0.41,4.57,0.78,7.08,1.11v5.94
					c-19.57-3.43-39.11-6.84-58.61-10.22c-1.17-0.16-1.56-0.33-1.17-0.52l0.04-0.03c0.07-0.05,0.16-0.08,0.28-0.1
					c0.14-0.05,0.32-0.09,0.55-0.14l58.92-9.36V150.64z"/>
			</g>
		</g>
		<g>
			<g>
				
					<linearGradient id="SVGID_11_" gradientUnits="userSpaceOnUse" x1="27.4761" y1="194.499" x2="10.3514" y2="196.9261" gradientTransform="matrix(0.6907 0 0 0.6907 192.3681 176.4341)">
					<stop  offset="0" style="stop-color:#F1F163;stop-opacity:0.502"/>
					<stop  offset="1" style="stop-color:#F1F163;stop-opacity:0"/>
				</linearGradient>
				<path fill-rule="evenodd" clip-rule="evenodd" fill="url(#SVGID_11_)" d="M232.74,313.02l-11.33,7.39l-0.38,0.21v0.03
					l-0.07,0.17v0.1l-0.04,0.07v0.04c-0.14,0.23-0.23,0.33-0.28,0.31c-0.07-0.02-0.12-0.03-0.14-0.03
					c-8.13-2.66-15.89-5.32-23.28-7.98v-12.45l33.08,9.96C231.5,311.44,232.3,312.17,232.74,313.02z"/>
				
					<linearGradient id="SVGID_12_" gradientUnits="userSpaceOnUse" x1="35.4614" y1="190.9063" x2="18.4663" y2="212.8794" gradientTransform="matrix(0.6907 0 0 0.6907 192.3681 176.4341)">
					<stop  offset="0" style="stop-color:#FFFF00;stop-opacity:0.5608"/>
					<stop  offset="1" style="stop-color:#FEFE73;stop-opacity:0.0157"/>
				</linearGradient>
				<path fill-rule="evenodd" clip-rule="evenodd" fill="url(#SVGID_12_)" d="M220.93,321.03l0.04-0.1v0.03
					c-0.2,1.14-0.23,1.89-0.1,2.25c-0.04,0.03-0.02,0.07,0.09,0.14l-0.36-0.14l-0.76-0.17l-22.59-7.48v-2.23
					c7.38,2.66,15.14,5.32,23.28,7.98c0.02,0,0.07,0.01,0.14,0.03C220.7,321.37,220.79,321.26,220.93,321.03z"/>
				
					<linearGradient id="SVGID_13_" gradientUnits="userSpaceOnUse" x1="49.1724" y1="204.0303" x2="50.9227" y2="206.855" gradientTransform="matrix(0.6907 0 0 0.6907 192.3681 176.4341)">
					<stop  offset="0" style="stop-color:#FFFF00;stop-opacity:0.349"/>
					<stop  offset="1" style="stop-color:#FEFE75;stop-opacity:0"/>
				</linearGradient>
				<path fill-rule="evenodd" clip-rule="evenodd" fill="url(#SVGID_13_)" d="M221.03,320.65l0.38-0.24l11.33-7.39
					c0.16,0.32,0.28,0.67,0.35,1.04c0,0.09-0.07-0.1-0.21-0.59c0.16,0.67,0.24,1.04,0.24,1.11v-0.24l0.07,1.83l-11.47,6.7
					l-0.86,0.35c-0.13-0.36-0.09-1.11,0.1-2.25v-0.03v-0.1L221.03,320.65z"/>
				
					<linearGradient id="SVGID_14_" gradientUnits="userSpaceOnUse" x1="41.7891" y1="208.6484" x2="42.846" y2="210.3943" gradientTransform="matrix(0.6907 0 0 0.6907 192.3681 176.4341)">
					<stop  offset="0" style="stop-color:#0000FF;stop-opacity:0.2118"/>
					<stop  offset="1" style="stop-color:#CBCBFF;stop-opacity:0"/>
				</linearGradient>
				<polygon fill-rule="evenodd" clip-rule="evenodd" fill="url(#SVGID_14_)" points="221.41,320.41 221.03,320.65 221.03,320.62 
									"/>
				
					<linearGradient id="SVGID_15_" gradientUnits="userSpaceOnUse" x1="-161.7754" y1="209.2754" x2="244.4746" y2="209.2754" gradientTransform="matrix(0.6907 0 0 0.6907 192.3681 176.4341)">
					<stop  offset="0" style="stop-color:#0000FF;stop-opacity:0.2118"/>
					<stop  offset="1" style="stop-color:#CBCBFF;stop-opacity:0"/>
				</linearGradient>
				<polygon fill-rule="evenodd" clip-rule="evenodd" fill="url(#SVGID_15_)" points="220.96,320.93 220.93,321.03 220.93,321 				
					"/>
			</g>
		</g>
	</g>
</g>
</svg>
