<?xml version="1.0" encoding="utf-8"?>
<!-- Generator: Adobe Illustrator 16.0.0, SVG Export Plug-In . SVG Version: 6.00 Build 0)  -->
<!DOCTYPE svg PUBLIC "-//W3C//DTD SVG 1.1//EN" "http://www.w3.org/Graphics/SVG/1.1/DTD/svg11.dtd">
<svg version="1.1" id="Layer_1" xmlns="http://www.w3.org/2000/svg" xmlns:xlink="http://www.w3.org/1999/xlink" x="0px" y="0px"
	 width="48.5px" height="51.75px" viewBox="0 0 48.5 51.75" enable-background="new 0 0 48.5 51.75" xml:space="preserve">
<g>
	<g>
		<g>
			
				<linearGradient id="SVGID_1_" gradientUnits="userSpaceOnUse" x1="-231.9141" y1="-220.0303" x2="-227.9803" y2="-227.0253" gradientTransform="matrix(0.3589 0 0 0.3589 111.7074 87.2708)">
				<stop  offset="0" style="stop-color:#0B0B0B"/>
				<stop  offset="0.2431" style="stop-color:#1D1D1D;stop-opacity:0.8314"/>
				<stop  offset="0.4902" style="stop-color:#1D1D1D;stop-opacity:0.2431"/>
				<stop  offset="0.7686" style="stop-color:#1C1C1C;stop-opacity:0.851"/>
				<stop  offset="1" style="stop-color:#000000"/>
			</linearGradient>
			<path fill-rule="evenodd" clip-rule="evenodd" fill="url(#SVGID_1_)" d="M24.69,4.56l11.16,5.78c-1.08-0.08-1.63-0.13-1.65-0.13
				c-0.59,0-1.17,0.04-1.74,0.13l-10.7-5.28C22.49,4.91,23.47,4.74,24.69,4.56z"/>
			
				<linearGradient id="SVGID_2_" gradientUnits="userSpaceOnUse" x1="-269.0923" y1="-191.478" x2="-266.054" y2="-198.8976" gradientTransform="matrix(0.3589 0 0 0.3589 111.7074 87.2708)">
				<stop  offset="0" style="stop-color:#0B0B0B"/>
				<stop  offset="0.2431" style="stop-color:#1D1D1D;stop-opacity:0.8314"/>
				<stop  offset="0.4902" style="stop-color:#1D1D1D;stop-opacity:0.2431"/>
				<stop  offset="0.7686" style="stop-color:#1C1C1C;stop-opacity:0.851"/>
				<stop  offset="1" style="stop-color:#000000"/>
			</linearGradient>
			<path fill-rule="evenodd" clip-rule="evenodd" fill="url(#SVGID_2_)" d="M22.19,18.37c-0.19,0.28-0.37,0.55-0.54,0.83
				c-0.31,0.5-0.61,1.02-0.89,1.54l-11.61-4.7c0.48-0.82,1-1.62,1.57-2.39c0.32,0.14,0.64,0.28,0.97,0.43L22.19,18.37z"/>
			
				<linearGradient id="SVGID_3_" gradientUnits="userSpaceOnUse" x1="-254.4399" y1="-208.9932" x2="-250.7271" y2="-216.1115" gradientTransform="matrix(0.3589 0 0 0.3589 111.7074 87.2708)">
				<stop  offset="0" style="stop-color:#0B0B0B"/>
				<stop  offset="0.2431" style="stop-color:#1D1D1D;stop-opacity:0.8314"/>
				<stop  offset="0.4902" style="stop-color:#1D1D1D;stop-opacity:0.2431"/>
				<stop  offset="0.7686" style="stop-color:#1C1C1C;stop-opacity:0.851"/>
				<stop  offset="1" style="stop-color:#000000"/>
			</linearGradient>
			<path fill-rule="evenodd" clip-rule="evenodd" fill="url(#SVGID_3_)" d="M27.41,12.69c-0.14,0.11-0.28,0.23-0.42,0.34
				c-0.62,0.5-1.22,1.04-1.8,1.64c-0.14-0.09-0.29-0.17-0.44-0.26L14.65,9.37c0.82-0.73,1.66-1.39,2.51-1.97L27.41,12.69z"/>
			
				<linearGradient id="SVGID_4_" gradientUnits="userSpaceOnUse" x1="-280.3682" y1="-145.9785" x2="-277.9037" y2="-153.6239" gradientTransform="matrix(0.3589 0 0 0.3589 111.7074 87.2708)">
				<stop  offset="0" style="stop-color:#0B0B0B"/>
				<stop  offset="0.2431" style="stop-color:#1D1D1D;stop-opacity:0.8314"/>
				<stop  offset="0.4902" style="stop-color:#1D1D1D;stop-opacity:0.2431"/>
				<stop  offset="0.7686" style="stop-color:#1C1C1C;stop-opacity:0.851"/>
				<stop  offset="1" style="stop-color:#000000"/>
			</linearGradient>
			<path fill-rule="evenodd" clip-rule="evenodd" fill="url(#SVGID_4_)" d="M17.38,35.66c0.01,0.4,0.03,0.79,0.06,1.18L5.87,33.29
				c-0.18-0.94-0.3-1.92-0.34-2.92l11.85,3.6C17.36,34.54,17.36,35.1,17.38,35.66z"/>
			
				<linearGradient id="SVGID_5_" gradientUnits="userSpaceOnUse" x1="-278.292" y1="-168.2222" x2="-275.9347" y2="-175.8949" gradientTransform="matrix(0.3589 0 0 0.3589 111.7074 87.2708)">
				<stop  offset="0" style="stop-color:#0B0B0B"/>
				<stop  offset="0.2431" style="stop-color:#1D1D1D;stop-opacity:0.8314"/>
				<stop  offset="0.4902" style="stop-color:#1D1D1D;stop-opacity:0.2431"/>
				<stop  offset="0.7686" style="stop-color:#1C1C1C;stop-opacity:0.851"/>
				<stop  offset="1" style="stop-color:#000000"/>
			</linearGradient>
			<path fill-rule="evenodd" clip-rule="evenodd" fill="url(#SVGID_5_)" d="M18.66,25.95c-0.11,0.37-0.21,0.74-0.31,1.11
				c-0.13,0.52-0.25,1.06-0.36,1.6L5.97,24.74c0.2-1.06,0.45-2.09,0.75-3.1L18.66,25.95z"/>
		</g>
	</g>
	<g>
		<path fill-rule="evenodd" clip-rule="evenodd" fill="#FFFFFF" d="M35.49,10.75c0,0.02-0.01,0.04-0.02,0.05l-0.59,1.97
			c-0.06,0-0.13-0.01-0.2-0.02l0.61-1.97c0-0.02,0.01-0.04,0.02-0.05C35.37,10.74,35.43,10.75,35.49,10.75z M34.49,10.73L34,12.72
			c-0.04,0-0.08,0-0.13,0c-0.01,0-0.03,0-0.05,0l0.48-1.99c0.01-0.01,0.02-0.02,0.02-0.04c0.02,0,0.04,0,0.05,0
			c0.05,0,0.09,0,0.13,0C34.5,10.71,34.5,10.72,34.49,10.73z M33.48,10.77L33.1,12.8c-0.07,0-0.14,0.01-0.2,0.02l0.39-2.01
			C33.36,10.78,33.42,10.77,33.48,10.77z M31.96,13.01l0.29-1.99c0.07-0.02,0.14-0.05,0.22-0.07l-0.29,2.01
			C32.11,12.97,32.04,12.99,31.96,13.01z M31.18,11.38c0.07-0.02,0.14-0.05,0.2-0.07l-0.16,1.96c-0.06,0.01-0.13,0.04-0.2,0.07
			L31.18,11.38z M29.23,12.38l0.07,1.83c-0.07,0.04-0.14,0.08-0.2,0.13l-0.09-1.83C29.08,12.47,29.16,12.43,29.23,12.38z
			 M30.3,11.77l-0.05,1.9c-0.06,0.04-0.13,0.07-0.2,0.11l0.05-1.9C30.18,11.84,30.25,11.81,30.3,11.77z M25.85,15.18
			c0.06-0.06,0.12-0.12,0.18-0.18l0.43,1.54c-0.06,0.06-0.12,0.13-0.18,0.2L25.85,15.18z M26.88,14.18
			c0.07-0.06,0.14-0.11,0.22-0.16l0.3,1.65c-0.07,0.05-0.14,0.1-0.2,0.16L26.88,14.18z M35.71,12.96c-0.06-0.02-0.11-0.04-0.16-0.05
			l0.7-1.94c0-0.04,0.01-0.06,0.04-0.07c0.05,0.01,0.1,0.03,0.16,0.05c0,0.01-0.01,0.04-0.02,0.07L35.71,12.96z M28.15,15.04
			l-0.2-1.76c0.06-0.06,0.13-0.11,0.2-0.16l0.2,1.76C28.28,14.92,28.21,14.98,28.15,15.04z M25.58,17.5
			c-0.02,0.02-0.05,0.05-0.09,0.07c-0.04,0.05-0.07,0.1-0.11,0.14l-0.54-1.44c0.04-0.05,0.07-0.1,0.11-0.14
			c0.04-0.02,0.06-0.04,0.07-0.05L25.58,17.5z M24.06,17.25l0.65,1.29c-0.06,0.07-0.11,0.15-0.16,0.23l-0.66-1.29
			C23.93,17.4,23.99,17.32,24.06,17.25z M23.13,18.52l0.74,1.13c-0.05,0.08-0.1,0.17-0.16,0.25l-0.75-1.13
			C23.01,18.68,23.07,18.59,23.13,18.52z M22.93,21.1l-0.86-0.99c0.05-0.1,0.1-0.19,0.16-0.27l0.86,0.99
			C23.03,20.93,22.98,21.02,22.93,21.1z M21.55,23.71l-1.04-0.68c0.05-0.1,0.1-0.19,0.14-0.29l1.02,0.68
			C21.63,23.5,21.58,23.6,21.55,23.71z M22.35,22.11c-0.05,0.08-0.1,0.17-0.14,0.27l-0.95-0.84c0.05-0.1,0.1-0.19,0.14-0.27
			L22.35,22.11z M38.83,12.26c0.02,0.01,0.05,0.04,0.07,0.07l0.02,0.02c-0.01,0.05-0.02,0.09-0.04,0.13l-0.95,1.74
			c-0.05-0.04-0.1-0.08-0.14-0.13l0.95-1.74c0.02-0.05,0.05-0.08,0.07-0.09H38.83z M28.47,46.21c-0.07,0.02-0.14,0.05-0.2,0.07
			l0.16-1.9c0.06-0.02,0.13-0.05,0.2-0.09L28.47,46.21z M26.57,44.83c0.06-0.02,0.12-0.04,0.18-0.04l-0.38,1.97
			c-0.06,0.01-0.13,0.02-0.2,0.02L26.57,44.83z M25.84,44.86c0.05,0,0.09,0,0.13,0l-0.5,1.97c-0.04,0-0.08,0-0.13,0
			c-0.01,0-0.03,0-0.05,0l0.5-1.97C25.81,44.86,25.82,44.86,25.84,44.86z M30.32,43.43c0.07-0.04,0.14-0.07,0.21-0.11l0.09,1.79
			c-0.07,0.04-0.14,0.07-0.21,0.11L30.32,43.43z M29.37,43.97c0.07-0.04,0.14-0.07,0.21-0.11l-0.05,1.87
			c-0.06,0.04-0.13,0.07-0.2,0.11L29.37,43.97z M31.69,44.34c-0.06,0.05-0.13,0.1-0.2,0.16l-0.2-1.72c0.07-0.05,0.14-0.1,0.22-0.16
			L31.69,44.34z M32.75,43.46c-0.07,0.06-0.14,0.12-0.2,0.18l-0.22-1.2h0.22L32.75,43.46z M41.95,19.67
			c0.02,0.01,0.04,0.04,0.04,0.07c0,0.04-0.01,0.07-0.02,0.11c-0.01,0.05-0.04,0.08-0.07,0.09l-0.33,0.25h-0.32l0.64-0.48
			C41.9,19.67,41.93,19.66,41.95,19.67z M40.57,19.65c-0.02-0.08-0.04-0.17-0.05-0.25l1.18-1.04c0.02-0.02,0.05-0.03,0.09-0.02
			c0.02,0,0.04,0.02,0.04,0.07c0,0.04-0.01,0.07-0.02,0.11s-0.03,0.07-0.05,0.09L40.57,19.65z M41.18,16.04
			c-0.01,0.05-0.03,0.08-0.05,0.11l-1.17,1.35c-0.01-0.07-0.04-0.14-0.07-0.22l1.17-1.33c0.02-0.04,0.05-0.05,0.07-0.05
			c0.02,0,0.04,0.02,0.05,0.05C41.19,15.98,41.19,16.01,41.18,16.04z M41.41,17.12c0.04-0.04,0.07-0.05,0.09-0.04
			c0.01,0,0.03,0.02,0.05,0.05c0,0.02-0.01,0.06-0.02,0.11s-0.03,0.08-0.05,0.11l-1.18,1.18c-0.02-0.07-0.05-0.15-0.07-0.23
			L41.41,17.12z M40.73,14.97c0.01,0.04,0,0.07-0.04,0.11l-1.13,1.45c-0.04-0.06-0.07-0.12-0.11-0.18l1.15-1.47
			c0.01-0.02,0.04-0.04,0.07-0.05c0.02-0.01,0.05,0,0.07,0.04C40.75,14.88,40.74,14.92,40.73,14.97z M40.21,13.98
			c0,0.04-0.01,0.07-0.04,0.11l-1.08,1.58c-0.05-0.06-0.08-0.12-0.11-0.18l1.06-1.56c0.02-0.05,0.05-0.07,0.09-0.07
			c0.01-0.01,0.02-0.01,0.04,0c0.01,0.02,0.02,0.05,0.04,0.07C40.22,13.94,40.22,13.96,40.21,13.98z M37.32,11.27
			c0,0.02-0.01,0.05-0.02,0.09l-0.79,1.88c-0.06-0.02-0.11-0.04-0.16-0.05l0.79-1.92c0.01-0.02,0.02-0.05,0.04-0.07
			C37.23,11.22,37.27,11.25,37.32,11.27z M39.42,13.06c0.02-0.04,0.05-0.06,0.07-0.07c0.02,0,0.04,0,0.05,0
			c0.01,0.01,0.04,0.03,0.07,0.05c-0.01,0.02-0.02,0.04-0.02,0.05c0,0.04-0.01,0.07-0.04,0.11l-1.02,1.69
			c-0.05-0.06-0.09-0.11-0.13-0.16L39.42,13.06z M37.95,11.74c0.02-0.04,0.05-0.06,0.09-0.07c0.04,0.01,0.07,0.03,0.11,0.05
			c0,0.04-0.01,0.08-0.04,0.13l-0.86,1.81c-0.06-0.04-0.11-0.06-0.16-0.07L37.95,11.74z M27.47,44.67c0.07-0.02,0.14-0.05,0.21-0.07
			l-0.29,1.96c-0.06,0.02-0.12,0.04-0.18,0.05L27.47,44.67z M23.54,46.68c-0.06-0.01-0.12-0.02-0.18-0.04l0.72-1.97
			c0.06,0.01,0.11,0.03,0.16,0.05L23.54,46.68z M22.53,43.99c0.04,0.02,0.08,0.05,0.13,0.09l-0.86,1.87c0,0.01-0.01,0.02-0.04,0.04
			c-0.05-0.04-0.09-0.07-0.13-0.11c0-0.01,0-0.02,0-0.04L22.53,43.99z M21.83,43.45c0.06,0.05,0.11,0.09,0.16,0.13l-0.97,1.78
			c-0.01,0.02-0.02,0.04-0.02,0.05c-0.06-0.05-0.11-0.09-0.14-0.13c0.01-0.02,0.02-0.04,0.02-0.05L21.83,43.45z M23.27,44.38
			c0.05,0.02,0.11,0.05,0.18,0.09l-0.81,1.94c-0.06-0.02-0.12-0.05-0.18-0.09L23.27,44.38z M24.31,46.82l0.59-2.01
			c0.06,0.01,0.12,0.02,0.18,0.02l-0.61,1.99C24.42,46.82,24.37,46.82,24.31,46.82z M21.08,24.75c-0.04,0.11-0.08,0.21-0.13,0.31
			l-1.09-0.48c0.04-0.11,0.08-0.21,0.13-0.31L21.08,24.75z M20.44,26.45l-1.17-0.34c0.04-0.1,0.07-0.19,0.11-0.29l1.17,0.32
			C20.51,26.24,20.47,26.34,20.44,26.45z M18.86,27.38l1.24,0.16c-0.04,0.1-0.07,0.2-0.09,0.3l-1.24-0.16
			C18.79,27.58,18.82,27.48,18.86,27.38z M19.47,39.21c0.01,0.07,0.03,0.15,0.05,0.23l-1.18,1.18c-0.04,0.04-0.06,0.05-0.07,0.04
			c-0.02-0.01-0.04-0.03-0.05-0.05c-0.01-0.04-0.01-0.07,0-0.11c0.02-0.05,0.04-0.08,0.05-0.09L19.47,39.21z M19.2,38.13
			c0,0.08,0.01,0.17,0.04,0.25l-1.18,1.04c-0.02,0.01-0.05,0.02-0.07,0.02c-0.02-0.01-0.04-0.04-0.04-0.07
			c-0.01-0.04-0.01-0.07,0-0.11c0.01-0.05,0.04-0.08,0.07-0.09L19.2,38.13z M17.74,36.45l1.15-0.74c0,0.1,0.01,0.19,0.02,0.27
			l-1.17,0.74c-0.02,0.01-0.05,0.01-0.07,0c-0.02-0.01-0.04-0.04-0.04-0.07c0-0.04,0.01-0.07,0.04-0.11
			C17.7,36.49,17.72,36.46,17.74,36.45z M18.98,36.95c0.02,0.07,0.04,0.16,0.05,0.25l-1.18,0.88c-0.04,0.02-0.07,0.03-0.09,0.02
			c-0.01-0.01-0.02-0.03-0.04-0.05c0-0.05,0.01-0.09,0.02-0.13c0.02-0.05,0.05-0.08,0.07-0.09L18.98,36.95z M17.74,34.99l1.15-0.59
			c-0.01,0.1-0.02,0.19-0.02,0.27l-1.15,0.59c-0.02,0.01-0.05,0.01-0.07,0c-0.01-0.01-0.02-0.04-0.02-0.09
			c0-0.04,0.01-0.07,0.04-0.11C17.7,35.03,17.72,35.01,17.74,34.99z M19.14,31.69c-0.02,0.1-0.04,0.19-0.05,0.29l-1.11,0.3
			c-0.04,0.01-0.06,0.01-0.07-0.02c-0.01-0.02-0.02-0.06-0.02-0.11c0.01-0.04,0.02-0.07,0.04-0.11c0.02-0.04,0.05-0.06,0.09-0.07
			L19.14,31.69z M18.96,33.06c0,0.1-0.01,0.19-0.02,0.29l-1.13,0.45c-0.04,0.01-0.06,0.01-0.07,0c-0.01-0.02-0.02-0.05-0.04-0.09
			c0.01-0.04,0.03-0.07,0.05-0.11c0.02-0.05,0.05-0.07,0.07-0.07L18.96,33.06z M18.21,30.51c0.04-0.04,0.07-0.05,0.09-0.05
			l1.09-0.16c-0.01,0.09-0.04,0.2-0.07,0.3l-1.09,0.16c-0.04,0-0.05-0.01-0.05-0.04c-0.01-0.04-0.02-0.07-0.02-0.11
			C18.16,30.57,18.17,30.53,18.21,30.51z M18.64,28.96l1.06-0.02c-0.01,0.02-0.02,0.05-0.02,0.07c-0.02,0.07-0.05,0.14-0.07,0.21
			l-1.06,0.02c-0.02,0-0.04-0.01-0.05-0.04c0-0.04,0-0.07,0-0.11c0.01-0.04,0.03-0.07,0.05-0.11
			C18.59,28.98,18.62,28.96,18.64,28.96z M18.57,41.74c0-0.02,0-0.05,0-0.07c0.01-0.04,0.04-0.07,0.07-0.11l1.15-1.33
			c0.01,0.02,0.02,0.05,0.02,0.07c0.02,0.05,0.05,0.1,0.07,0.14l-1.17,1.33c-0.02,0.02-0.05,0.04-0.09,0.04c-0.01,0-0.02,0-0.04,0
			C18.59,41.79,18.58,41.77,18.57,41.74z M20.31,41.4l-1.13,1.44c-0.02,0.02-0.05,0.04-0.07,0.05h-0.02
			c-0.02-0.04-0.05-0.07-0.07-0.11c0.01-0.05,0.03-0.09,0.05-0.13l1.15-1.45C20.24,41.26,20.27,41.33,20.31,41.4z M20.22,44.49
			l1.02-1.67c0.04,0.04,0.08,0.08,0.13,0.14l-1.04,1.67c-0.01,0.02-0.02,0.04-0.04,0.05c-0.04-0.04-0.08-0.08-0.13-0.13
			C20.18,44.54,20.2,44.51,20.22,44.49z M20.69,42.05c0.04,0.06,0.07,0.12,0.11,0.18l-1.08,1.58c-0.02,0.02-0.05,0.04-0.07,0.05
			c-0.02-0.05-0.05-0.1-0.09-0.14c0-0.04,0.02-0.07,0.05-0.09L20.69,42.05z"/>
	</g>
</g>
</svg>
