<?xml version="1.0" encoding="utf-8"?>
<!-- Generator: Adobe Illustrator 16.0.0, SVG Export Plug-In . SVG Version: 6.00 Build 0)  -->
<!DOCTYPE svg PUBLIC "-//W3C//DTD SVG 1.1//EN" "http://www.w3.org/Graphics/SVG/1.1/DTD/svg11.dtd">
<svg version="1.1" id="Layer_2" xmlns="http://www.w3.org/2000/svg" xmlns:xlink="http://www.w3.org/1999/xlink" x="0px" y="0px"
	 width="48.5px" height="51.75px" viewBox="0 0 48.5 51.75" enable-background="new 0 0 48.5 51.75" xml:space="preserve">
<g>
	<g>
		<g>
			
				<linearGradient id="SVGID_1_" gradientUnits="userSpaceOnUse" x1="-265.1582" y1="-199.5298" x2="-261.4454" y2="-206.6481" gradientTransform="matrix(0.3589 0 0 0.3589 111.7074 87.2708)">
				<stop  offset="0" style="stop-color:#0B0B0B"/>
				<stop  offset="0.2431" style="stop-color:#1D1D1D;stop-opacity:0.8314"/>
				<stop  offset="0.4902" style="stop-color:#1D1D1D;stop-opacity:0.2431"/>
				<stop  offset="0.7686" style="stop-color:#1C1C1C;stop-opacity:0.851"/>
				<stop  offset="1" style="stop-color:#000000"/>
			</linearGradient>
			<path fill-rule="evenodd" clip-rule="evenodd" fill="url(#SVGID_1_)" d="M21.4,18.06l-10.1-5.09c0.59-0.79,1.21-1.55,1.87-2.27
				l9.92,5.15C22.51,16.54,21.95,17.27,21.4,18.06z"/>
			
				<linearGradient id="SVGID_2_" gradientUnits="userSpaceOnUse" x1="-245.6855" y1="-215.8794" x2="-241.7519" y2="-222.8743" gradientTransform="matrix(0.3589 0 0 0.3589 111.7074 87.2708)">
				<stop  offset="0" style="stop-color:#0B0B0B"/>
				<stop  offset="0.2431" style="stop-color:#1D1D1D;stop-opacity:0.8314"/>
				<stop  offset="0.4902" style="stop-color:#1D1D1D;stop-opacity:0.2431"/>
				<stop  offset="0.7686" style="stop-color:#1C1C1C;stop-opacity:0.851"/>
				<stop  offset="1" style="stop-color:#000000"/>
			</linearGradient>
			<path fill-rule="evenodd" clip-rule="evenodd" fill="url(#SVGID_2_)" d="M27.35,11.82l-9.13-4.93c1.09-0.61,2.19-1.1,3.3-1.46
				l8.67,4.84C29.23,10.65,28.28,11.17,27.35,11.82z"/>
			
				<linearGradient id="SVGID_3_" gradientUnits="userSpaceOnUse" x1="-276.1118" y1="-180.3403" x2="-273.0735" y2="-187.7599" gradientTransform="matrix(0.3589 0 0 0.3589 111.7074 87.2708)">
				<stop  offset="0" style="stop-color:#0B0B0B"/>
				<stop  offset="0.2431" style="stop-color:#1D1D1D;stop-opacity:0.8314"/>
				<stop  offset="0.4902" style="stop-color:#1D1D1D;stop-opacity:0.2431"/>
				<stop  offset="0.7686" style="stop-color:#1C1C1C;stop-opacity:0.851"/>
				<stop  offset="1" style="stop-color:#000000"/>
			</linearGradient>
			<path fill-rule="evenodd" clip-rule="evenodd" fill="url(#SVGID_3_)" d="M19.08,22.13c-0.38,0.85-0.72,1.69-1.03,2.52L7.18,20.4
				c0.13-0.33,0.26-0.66,0.4-0.99c0.24-0.56,0.5-1.12,0.77-1.66L19.08,22.13z"/>
			
				<linearGradient id="SVGID_4_" gradientUnits="userSpaceOnUse" x1="-282.2144" y1="-156.3662" x2="-279.8571" y2="-164.039" gradientTransform="matrix(0.3589 0 0 0.3589 111.7074 87.2708)">
				<stop  offset="0" style="stop-color:#0B0B0B"/>
				<stop  offset="0.2431" style="stop-color:#1D1D1D;stop-opacity:0.8314"/>
				<stop  offset="0.4902" style="stop-color:#1D1D1D;stop-opacity:0.2431"/>
				<stop  offset="0.7686" style="stop-color:#1C1C1C;stop-opacity:0.851"/>
				<stop  offset="1" style="stop-color:#000000"/>
			</linearGradient>
			<path fill-rule="evenodd" clip-rule="evenodd" fill="url(#SVGID_4_)" d="M16.22,31.69c-0.05,0.34-0.1,0.7-0.13,1.09L5.48,29.71
				c-0.03-0.99,0.01-1.98,0.12-2.99l10.9,3.31C16.39,30.59,16.3,31.14,16.22,31.69z"/>
			
				<linearGradient id="SVGID_5_" gradientUnits="userSpaceOnUse" x1="-280.0952" y1="-132.689" x2="-277.6307" y2="-140.3343" gradientTransform="matrix(0.3589 0 0 0.3589 111.7074 87.2708)">
				<stop  offset="0" style="stop-color:#0B0B0B"/>
				<stop  offset="0.2431" style="stop-color:#1D1D1D;stop-opacity:0.8314"/>
				<stop  offset="0.4902" style="stop-color:#1D1D1D;stop-opacity:0.2431"/>
				<stop  offset="0.7686" style="stop-color:#1C1C1C;stop-opacity:0.851"/>
				<stop  offset="1" style="stop-color:#000000"/>
			</linearGradient>
			<path fill-rule="evenodd" clip-rule="evenodd" fill="url(#SVGID_5_)" d="M16.24,38.76c0.15,0.92,0.35,1.78,0.6,2.58L7.8,38.59
				c-0.57-1.13-1.03-2.28-1.39-3.44l9.78,3.12C16.21,38.44,16.22,38.6,16.24,38.76z"/>
		</g>
	</g>
	<g>
		<path fill-rule="evenodd" clip-rule="evenodd" fill="#FFFFFF" d="M33.66,10.73c0.06-0.01,0.12-0.02,0.18-0.02l-0.45,2.05
			c-0.07,0-0.14,0-0.2,0L33.66,10.73z M32.82,10.84l-0.34,2.03c-0.08,0.01-0.16,0.02-0.21,0.04l0.34-2.01
			C32.69,10.87,32.76,10.85,32.82,10.84z M34.85,10.75l-0.56,2.01c-0.07,0-0.14,0-0.2,0l0.57-2.05
			C34.72,10.72,34.78,10.73,34.85,10.75z M31.76,11.13l-0.23,1.99c-0.06,0.01-0.13,0.04-0.21,0.07l0.23-2.01
			C31.62,11.17,31.69,11.15,31.76,11.13z M30.68,11.54l-0.13,1.96c-0.06,0.02-0.12,0.05-0.18,0.09l0.11-1.96
			C30.55,11.6,30.61,11.57,30.68,11.54z M28.64,14.59c-0.06,0.05-0.12,0.1-0.18,0.14l-0.14-1.81c0.07-0.05,0.14-0.09,0.21-0.13
			L28.64,14.59z M29.39,12.22c0.07-0.05,0.14-0.09,0.22-0.13l0.02,1.9c-0.07,0.02-0.14,0.06-0.21,0.11L29.39,12.22z M34.96,12.87
			l0.66-2.01c0.06,0.01,0.12,0.03,0.18,0.05l-0.68,2.01C35.06,12.91,35,12.89,34.96,12.87z M26.39,14.5l0.38,1.6
			c-0.06,0.06-0.13,0.12-0.21,0.18L26.2,14.7C26.26,14.63,26.32,14.56,26.39,14.5z M27.62,15.36c-0.04,0.02-0.08,0.07-0.13,0.13
			l-0.23-1.74c0.04-0.02,0.08-0.06,0.13-0.11c0.01-0.01,0.03-0.02,0.05-0.04l0.27,1.71C27.67,15.32,27.64,15.34,27.62,15.36z
			 M25.66,17.21l-0.48-1.49c0.06-0.06,0.12-0.13,0.18-0.2L25.84,17C25.78,17.07,25.72,17.14,25.66,17.21z M24.17,16.87
			c0.06-0.07,0.13-0.14,0.2-0.22L24.96,18c-0.07,0.07-0.13,0.15-0.18,0.23L24.17,16.87z M22.48,19.19l0.81,1.06
			c-0.06,0.08-0.11,0.17-0.16,0.25l-0.81-1.08C22.37,19.34,22.42,19.26,22.48,19.19z M24.1,19.06c-0.06,0.08-0.12,0.17-0.18,0.25
			l-0.7-1.2c0.06-0.08,0.12-0.17,0.18-0.25L24.1,19.06z M21.71,23.06l-0.99-0.77c0.05-0.1,0.1-0.19,0.14-0.29l0.97,0.75
			C21.8,22.85,21.76,22.96,21.71,23.06z M22.38,21.75l-0.9-0.92c0.06-0.08,0.12-0.17,0.18-0.27l0.9,0.9
			C22.49,21.55,22.44,21.64,22.38,21.75z M36.7,11.22l-0.77,1.96c-0.04-0.01-0.07-0.02-0.11-0.04c-0.02-0.01-0.04-0.02-0.05-0.04
			l0.75-1.94c0.01-0.01,0.02-0.02,0.04-0.04c0.01,0.01,0.02,0.02,0.04,0.02c0.04,0.01,0.08,0.02,0.13,0.02
			C36.71,11.18,36.71,11.19,36.7,11.22z M37.54,11.63l-0.86,1.9c-0.04-0.02-0.09-0.05-0.16-0.09l0.88-1.9v-0.04
			c0.06,0.01,0.11,0.04,0.16,0.07C37.56,11.59,37.55,11.61,37.54,11.63z M38.65,15.29c-0.04-0.06-0.08-0.11-0.13-0.16l1.08-1.63
			c0.02-0.04,0.05-0.06,0.07-0.07c0.04,0.02,0.07,0.06,0.09,0.11c-0.01,0.04-0.02,0.07-0.04,0.11L38.65,15.29z M39.1,12.74
			c0,0.04-0.01,0.07-0.02,0.09l-1.02,1.76c-0.05-0.05-0.09-0.1-0.13-0.14l1-1.72c0.02-0.04,0.04-0.06,0.05-0.07
			C39.03,12.68,39.06,12.71,39.1,12.74z M38.38,12.1c-0.01,0.02-0.02,0.05-0.04,0.07l-0.95,1.85c-0.05-0.05-0.09-0.09-0.13-0.13
			l0.92-1.83c0.02-0.01,0.04-0.03,0.05-0.05C38.28,12.03,38.32,12.06,38.38,12.1z M40.34,14.43c0,0.01,0,0.02,0,0.04
			c-0.01,0.04-0.03,0.08-0.05,0.13l-1.11,1.53c-0.04-0.07-0.07-0.13-0.11-0.18l1.11-1.54c0.04-0.02,0.07-0.04,0.09-0.05h0.02
			C40.31,14.38,40.33,14.41,40.34,14.43z M25.88,44.94c0.06-0.01,0.13-0.02,0.2-0.02l-0.43,1.99c-0.08,0.01-0.16,0.02-0.22,0.02
			L25.88,44.94z M27.49,46.55l0.22-1.96c0.08-0.02,0.16-0.04,0.21-0.05l-0.21,1.94C27.65,46.51,27.57,46.53,27.49,46.55z
			 M26.79,44.83c0.07-0.01,0.14-0.02,0.2-0.04l-0.36,1.97c-0.06,0.01-0.12,0.03-0.18,0.05L26.79,44.83z M29.64,43.75
			c0.07-0.05,0.14-0.09,0.2-0.13l0.02,1.85c-0.07,0.04-0.14,0.08-0.21,0.13V43.75z M28.67,44.24c0.07-0.04,0.14-0.07,0.22-0.09
			l-0.11,1.9c-0.07,0.04-0.14,0.07-0.22,0.09L28.67,44.24z M30.59,43.14c0.06-0.05,0.13-0.09,0.2-0.13l0.14,1.78
			c-0.07,0.05-0.14,0.09-0.2,0.13L30.59,43.14z M31.71,42.32c0-0.01,0.01-0.02,0.02-0.02l0.25,1.69c-0.06,0.05-0.12,0.1-0.18,0.14
			l-0.27-1.69C31.59,42.41,31.65,42.37,31.71,42.32z M41.71,20.48l0.08-0.05c0.04-0.02,0.06-0.03,0.07-0.02
			c0.02,0.01,0.03,0.03,0.04,0.07H41.71z M40.41,20.08h-0.02l1.26-1.02c0.04-0.02,0.06-0.03,0.07-0.02
			c0.02,0.01,0.04,0.04,0.05,0.07c0,0.02-0.01,0.06-0.02,0.11c-0.02,0.04-0.04,0.07-0.05,0.09l-1.26,1.02
			C40.43,20.25,40.42,20.17,40.41,20.08z M41.24,16.66c-0.01,0.04-0.03,0.07-0.05,0.11l-1.22,1.29c-0.02-0.07-0.05-0.15-0.07-0.23
			l1.22-1.29c0.01-0.02,0.04-0.04,0.07-0.04c0.01,0,0.02,0.01,0.04,0.04c0,0.02,0.01,0.05,0.04,0.07
			C41.25,16.61,41.25,16.63,41.24,16.66z M41.56,17.79c0.01,0.02,0.01,0.06,0,0.11c-0.02,0.04-0.05,0.07-0.07,0.11l-1.26,1.15
			c-0.01-0.08-0.03-0.16-0.05-0.23l1.26-1.17c0.02-0.02,0.05-0.04,0.07-0.04C41.53,17.71,41.55,17.74,41.56,17.79z M40.82,15.51
			c0,0.04-0.01,0.07-0.04,0.11l-1.18,1.44c-0.02-0.07-0.05-0.14-0.09-0.22l1.18-1.42c0.01-0.04,0.03-0.05,0.05-0.05
			c0.01,0,0.03,0,0.05,0c0.01,0.04,0.02,0.07,0.04,0.11C40.84,15.48,40.84,15.5,40.82,15.51z M25.17,44.94l-0.56,1.97
			c-0.06,0-0.13-0.01-0.2-0.02L25,44.92C25.07,44.92,25.13,44.93,25.17,44.94z M23.45,44.53c0.01,0.01,0.03,0.02,0.05,0.04
			c0.04,0.01,0.07,0.02,0.11,0.04l-0.75,1.94c-0.04-0.01-0.08-0.02-0.13-0.04c-0.01-0.01-0.03-0.02-0.05-0.04L23.45,44.53z
			 M22.84,44.27L22,46.18c-0.07-0.04-0.13-0.07-0.18-0.09l0.88-1.9C22.75,44.21,22.79,44.24,22.84,44.27z M24.15,44.76
			c0.06,0.01,0.12,0.02,0.18,0.04l-0.66,1.97c-0.06-0.01-0.11-0.02-0.16-0.04L24.15,44.76z M21.32,43.16
			c0.04,0.05,0.08,0.1,0.13,0.14l-1.02,1.78c-0.04-0.06-0.08-0.11-0.13-0.16L21.32,43.16z M21.96,43.74
			c0.05,0.04,0.1,0.08,0.14,0.13l-0.93,1.81c-0.05-0.04-0.1-0.07-0.16-0.11L21.96,43.74z M20.15,23.49l1.06,0.59
			c-0.05,0.1-0.08,0.19-0.11,0.29l-1.08-0.57C20.06,23.7,20.1,23.6,20.15,23.49z M17.53,37.19l1.24-0.9c0,0.1,0.01,0.19,0.02,0.29
			l-1.22,0.86c-0.04,0.02-0.07,0.03-0.11,0.02c-0.01-0.02-0.02-0.05-0.02-0.09c-0.01-0.04-0.01-0.07,0.02-0.11
			S17.51,37.2,17.53,37.19z M18.7,35.07c0.01,0.08,0.01,0.18,0,0.29l-1.2,0.68c-0.02,0.01-0.05,0.01-0.07-0.02
			c-0.01-0.01-0.02-0.04-0.04-0.07c0-0.05,0.01-0.09,0.04-0.13c0.02-0.04,0.05-0.06,0.07-0.07L18.7,35.07z M17.55,34.26l1.18-0.52
			c-0.01,0.08-0.02,0.17-0.02,0.27l-1.18,0.54c-0.02,0.01-0.05,0.01-0.07-0.02c-0.01-0.02-0.02-0.05-0.04-0.09
			c0-0.04,0.02-0.07,0.05-0.11C17.49,34.3,17.51,34.27,17.55,34.26z M17.57,32.95c0-0.05,0.02-0.09,0.05-0.13
			c0.02-0.04,0.05-0.05,0.07-0.05l1.15-0.4c-0.01,0.1-0.02,0.19-0.04,0.27l-1.13,0.41c-0.04,0-0.06-0.01-0.07-0.02
			C17.58,33.02,17.57,32.99,17.57,32.95z M17.94,31.21l1.11-0.23c-0.04,0.11-0.06,0.21-0.07,0.3l-1.09,0.22
			c-0.04,0.01-0.06,0.01-0.07-0.02c-0.02-0.02-0.03-0.06-0.02-0.11c0.01-0.04,0.03-0.07,0.05-0.11
			C17.88,31.24,17.91,31.22,17.94,31.21z M18.12,29.94c-0.01-0.04-0.01-0.08,0-0.13c0.01-0.04,0.03-0.07,0.05-0.11
			c0.02-0.02,0.05-0.04,0.07-0.04l1.08-0.07c-0.01,0.1-0.03,0.19-0.05,0.29l-1.09,0.09C18.15,29.97,18.13,29.96,18.12,29.94z
			 M18.52,28.25c0.01-0.05,0.03-0.08,0.05-0.11c0.04-0.04,0.07-0.05,0.09-0.05l1.04,0.09c-0.02,0.1-0.05,0.2-0.07,0.31l-1.06-0.07
			c-0.02,0-0.04-0.02-0.05-0.05C18.5,28.33,18.5,28.3,18.52,28.25z M19.02,26.71c0.01-0.05,0.03-0.08,0.05-0.11
			c0.04-0.02,0.06-0.04,0.07-0.04l1,0.22c-0.04,0.11-0.07,0.21-0.11,0.3l-0.99-0.21c-0.04,0-0.05-0.02-0.05-0.05
			C19,26.77,19.01,26.73,19.02,26.71z M19.7,25.11l0.95,0.32c-0.01,0.04-0.02,0.06-0.02,0.07c-0.04,0.08-0.07,0.16-0.09,0.23
			l-0.95-0.34c-0.02-0.01-0.04-0.04-0.05-0.07c0-0.04,0.01-0.08,0.02-0.13c0.01-0.04,0.04-0.06,0.07-0.07
			C19.65,25.1,19.68,25.1,19.7,25.11z M18.91,37.6c0.01,0.06,0.02,0.12,0.02,0.18l-1.22,1c-0.04,0.02-0.07,0.03-0.09,0.02
			c-0.01,0-0.02-0.01-0.02-0.02c-0.02-0.04-0.03-0.07-0.02-0.09c-0.01-0.02-0.01-0.05,0.02-0.07c0.01-0.04,0.03-0.06,0.05-0.07
			l1.24-1.02C18.89,37.55,18.9,37.57,18.91,37.6z M19.41,39.75c0.01,0.08,0.03,0.16,0.05,0.23l-1.2,1.29
			c-0.04,0.02-0.06,0.04-0.07,0.04c-0.02-0.06-0.04-0.12-0.05-0.18c0-0.02,0.02-0.05,0.05-0.07L19.41,39.75z M19.16,38.91
			l-1.24,1.17c-0.02,0.02-0.05,0.03-0.07,0.02h-0.02c0-0.05-0.01-0.09-0.02-0.13v-0.02c0.01-0.05,0.04-0.09,0.07-0.13l1.24-1.15
			C19.14,38.75,19.15,38.83,19.16,38.91z M20.71,42.48c0.05,0.04,0.09,0.08,0.13,0.13l-1.08,1.67c0,0.01-0.01,0.02-0.02,0.04
			c-0.05-0.05-0.09-0.1-0.13-0.16c0.01-0.01,0.02-0.02,0.02-0.04L20.71,42.48z M20.19,41.65c0.04,0.07,0.08,0.14,0.13,0.2
			l-1.13,1.54c-0.02,0.01-0.04,0.02-0.05,0.04c-0.04-0.06-0.07-0.12-0.11-0.18c0.01-0.01,0.02-0.02,0.04-0.04L20.19,41.65z
			 M18.55,42.25c0-0.02,0.01-0.04,0.04-0.05l1.17-1.42c0.02,0.05,0.05,0.11,0.09,0.18l-1.17,1.42c-0.02,0.04-0.05,0.05-0.07,0.05
			C18.59,42.37,18.58,42.31,18.55,42.25z"/>
	</g>
</g>
</svg>
